<?xml version="1.0" encoding="UTF-8"?>
<svg xmlns="http://www.w3.org/2000/svg" xmlns:xlink="http://www.w3.org/1999/xlink" width="49pt" height="67pt" viewBox="0 0 49 67" version="1.1">
<defs>
<radialGradient id="radial0" gradientUnits="userSpaceOnUse" cx="102" cy="208.86" fx="102" fy="208.86" r="12.002" gradientTransform="matrix(0.125541,0,0,0.119819,-0.890088,6.143224)">
<stop offset="0" style="stop-color:rgb(98.039216%,82.352941%,5.490196%);stop-opacity:1;"/>
<stop offset="1" style="stop-color:rgb(98.431373%,11.764706%,3.529412%);stop-opacity:1;"/>
</radialGradient>
<radialGradient id="radial1" gradientUnits="userSpaceOnUse" cx="102" cy="208.86" fx="102" fy="208.86" r="12.002" gradientTransform="matrix(0.125541,0,0,0.119819,8.651049,-2.733824)">
<stop offset="0" style="stop-color:rgb(98.039216%,82.352941%,5.490196%);stop-opacity:1;"/>
<stop offset="1" style="stop-color:rgb(98.431373%,11.764706%,3.529412%);stop-opacity:1;"/>
</radialGradient>
<radialGradient id="radial2" gradientUnits="userSpaceOnUse" cx="102" cy="208.86" fx="102" fy="208.86" r="12.002" gradientTransform="matrix(0.125541,0,0,0.119819,19.070974,13.644956)">
<stop offset="0" style="stop-color:rgb(98.039216%,82.352941%,5.490196%);stop-opacity:1;"/>
<stop offset="1" style="stop-color:rgb(98.431373%,11.764706%,3.529412%);stop-opacity:1;"/>
</radialGradient>
<radialGradient id="radial3" gradientUnits="userSpaceOnUse" cx="102" cy="208.86" fx="102" fy="208.86" r="12.002" gradientTransform="matrix(0.125541,0,0,0.119819,25.096955,27.898245)">
<stop offset="0" style="stop-color:rgb(98.039216%,82.352941%,5.490196%);stop-opacity:1;"/>
<stop offset="1" style="stop-color:rgb(98.431373%,11.764706%,3.529412%);stop-opacity:1;"/>
</radialGradient>
<radialGradient id="radial4" gradientUnits="userSpaceOnUse" cx="102" cy="208.86" fx="102" fy="208.86" r="12.002" gradientTransform="matrix(0.125541,0,0,0.119819,2.122903,20.271485)">
<stop offset="0" style="stop-color:rgb(98.039216%,82.352941%,5.490196%);stop-opacity:1;"/>
<stop offset="1" style="stop-color:rgb(98.431373%,11.764706%,3.529412%);stop-opacity:1;"/>
</radialGradient>
<radialGradient id="radial5" gradientUnits="userSpaceOnUse" cx="102" cy="208.86" fx="102" fy="208.86" r="12.002" gradientTransform="matrix(0.125541,0,0,0.119819,10.910791,9.268946)">
<stop offset="0" style="stop-color:rgb(98.039216%,82.352941%,5.490196%);stop-opacity:1;"/>
<stop offset="1" style="stop-color:rgb(98.431373%,11.764706%,3.529412%);stop-opacity:1;"/>
</radialGradient>
<radialGradient id="radial6" gradientUnits="userSpaceOnUse" cx="102" cy="208.86" fx="102" fy="208.86" r="12.002" gradientTransform="matrix(0.125541,0,0,0.119819,18.568809,3.830191)">
<stop offset="0" style="stop-color:rgb(17.254902%,89.019608%,18.823529%);stop-opacity:1;"/>
<stop offset="1" style="stop-color:rgb(3.529412%,39.215686%,98.431373%);stop-opacity:1;"/>
</radialGradient>
<radialGradient id="radial7" gradientUnits="userSpaceOnUse" cx="102" cy="208.86" fx="102" fy="208.86" r="12.002" gradientTransform="matrix(0.125541,0,0,0.119819,15.430277,-10.673156)">
<stop offset="0" style="stop-color:rgb(17.254902%,89.019608%,18.823529%);stop-opacity:1;"/>
<stop offset="1" style="stop-color:rgb(3.529412%,39.215686%,98.431373%);stop-opacity:1;"/>
</radialGradient>
<radialGradient id="radial8" gradientUnits="userSpaceOnUse" cx="102" cy="208.86" fx="102" fy="208.86" r="12.002" gradientTransform="matrix(0.125541,0,0,0.119819,-6.916068,16.583133)">
<stop offset="0" style="stop-color:rgb(17.254902%,89.019608%,18.823529%);stop-opacity:1;"/>
<stop offset="1" style="stop-color:rgb(3.529412%,39.215686%,98.431373%);stop-opacity:1;"/>
</radialGradient>
<radialGradient id="radial9" gradientUnits="userSpaceOnUse" cx="102" cy="208.86" fx="102" fy="208.86" r="12.002" gradientTransform="matrix(0.125541,0,0,0.119819,5.638058,25.960297)">
<stop offset="0" style="stop-color:rgb(17.254902%,89.019608%,18.823529%);stop-opacity:1;"/>
<stop offset="1" style="stop-color:rgb(3.529412%,39.215686%,98.431373%);stop-opacity:1;"/>
</radialGradient>
<radialGradient id="radial10" gradientUnits="userSpaceOnUse" cx="102" cy="208.86" fx="102" fy="208.86" r="12.002" gradientTransform="matrix(0.125541,0,0,0.119819,2.625068,-5.92206)">
<stop offset="0" style="stop-color:rgb(17.254902%,89.019608%,18.823529%);stop-opacity:1;"/>
<stop offset="1" style="stop-color:rgb(3.529412%,39.215686%,98.431373%);stop-opacity:1;"/>
</radialGradient>
<radialGradient id="radial11" gradientUnits="userSpaceOnUse" cx="102" cy="208.86" fx="102" fy="208.86" r="12.002" gradientTransform="matrix(0.125541,0,0,0.119819,7.521177,-12.42356)">
<stop offset="0" style="stop-color:rgb(95.686275%,5.098039%,98.039216%);stop-opacity:1;"/>
<stop offset="1" style="stop-color:rgb(6.27451%,95.686275%,96.862745%);stop-opacity:1;"/>
</radialGradient>
<radialGradient id="radial12" gradientUnits="userSpaceOnUse" cx="102" cy="208.86" fx="102" fy="208.86" r="12.002" gradientTransform="matrix(0.125541,0,0,0.119819,26.980073,4.455335)">
<stop offset="0" style="stop-color:rgb(95.686275%,5.098039%,98.039216%);stop-opacity:1;"/>
<stop offset="1" style="stop-color:rgb(6.27451%,95.686275%,96.862745%);stop-opacity:1;"/>
</radialGradient>
<radialGradient id="radial13" gradientUnits="userSpaceOnUse" cx="102" cy="208.86" fx="102" fy="208.86" r="12.002" gradientTransform="matrix(0.125541,0,0,0.119819,20.326386,20.959143)">
<stop offset="0" style="stop-color:rgb(95.686275%,5.098039%,98.039216%);stop-opacity:1;"/>
<stop offset="1" style="stop-color:rgb(6.27451%,95.686275%,96.862745%);stop-opacity:1;"/>
</radialGradient>
<radialGradient id="radial14" gradientUnits="userSpaceOnUse" cx="102" cy="208.86" fx="102" fy="208.86" r="12.002" gradientTransform="matrix(0.125541,0,0,0.119819,-9.552435,27.960759)">
<stop offset="0" style="stop-color:rgb(95.686275%,5.098039%,98.039216%);stop-opacity:1;"/>
<stop offset="1" style="stop-color:rgb(6.27451%,95.686275%,96.862745%);stop-opacity:1;"/>
</radialGradient>
<radialGradient id="radial15" gradientUnits="userSpaceOnUse" cx="102" cy="208.86" fx="102" fy="208.86" r="12.002" gradientTransform="matrix(0.125541,0,0,0.119819,2.87615,9.956604)">
<stop offset="0" style="stop-color:rgb(54.117647%,38.823529%,87.058824%);stop-opacity:1;"/>
<stop offset="1" style="stop-color:rgb(100%,0%,47.843137%);stop-opacity:1;"/>
</radialGradient>
<radialGradient id="radial16" gradientUnits="userSpaceOnUse" cx="102" cy="208.86" fx="102" fy="208.86" r="12.002" gradientTransform="matrix(0.125541,0,0,0.119819,17.438937,-2.796339)">
<stop offset="0" style="stop-color:rgb(54.117647%,38.823529%,87.058824%);stop-opacity:1;"/>
<stop offset="1" style="stop-color:rgb(100%,0%,47.843137%);stop-opacity:1;"/>
</radialGradient>
<radialGradient id="radial17" gradientUnits="userSpaceOnUse" cx="102" cy="208.86" fx="102" fy="208.86" r="12.002" gradientTransform="matrix(0.125541,0,0,0.119819,12.919452,19.083711)">
<stop offset="0" style="stop-color:rgb(54.117647%,38.823529%,87.058824%);stop-opacity:1;"/>
<stop offset="1" style="stop-color:rgb(100%,0%,47.843137%);stop-opacity:1;"/>
</radialGradient>
<radialGradient id="radial18" gradientUnits="userSpaceOnUse" cx="102" cy="208.86" fx="102" fy="208.86" r="12.002" gradientTransform="matrix(0.125541,0,0,0.119819,34.638091,26.835499)">
<stop offset="0" style="stop-color:rgb(54.117647%,38.823529%,87.058824%);stop-opacity:1;"/>
<stop offset="1" style="stop-color:rgb(100%,0%,47.843137%);stop-opacity:1;"/>
</radialGradient>
<radialGradient id="radial19" gradientUnits="userSpaceOnUse" cx="102" cy="208.86" fx="102" fy="208.86" r="12.002" gradientTransform="matrix(0.125541,0,0,0.119819,29.741981,15.332845)">
<stop offset="0" style="stop-color:rgb(54.117647%,38.823529%,87.058824%);stop-opacity:1;"/>
<stop offset="1" style="stop-color:rgb(100%,0%,47.843137%);stop-opacity:1;"/>
</radialGradient>
<linearGradient id="linear0" gradientUnits="userSpaceOnUse" x1="341.5" y1="556.36" x2="424.5" y2="556.36" gradientTransform="matrix(-0.125541,0,0,0.125029,72.551553,-7.947815)">
<stop offset="0" style="stop-color:rgb(98.039216%,82.352941%,5.490196%);stop-opacity:1;"/>
<stop offset="1" style="stop-color:rgb(98.431373%,11.764706%,3.529412%);stop-opacity:1;"/>
</linearGradient>
</defs>
<g id="surface1">
<path style=" stroke:none;fill-rule:nonzero;fill:rgb(0%,50.196078%,0%);fill-opacity:1;" d="M 24.640625 7.351562 L 24.640625 7.578125 C 22.242188 10.789062 4.769531 23.460938 20.453125 18.730469 C 22.792969 18.863281 -7.582031 37.378906 20.453125 29.234375 C 17.675781 32.386719 -13.496094 48 20.453125 39.484375 C 20.835938 39.558594 -27.15625 62.65625 22.585938 50.863281 L 21.644531 61.617188 L 24.59375 61.617188 L 24.679688 24.308594 L 23.761719 61.617188 L 27.84375 61.492188 L 26.777344 50.863281 C 76.132812 62.105469 26.78125 38.835938 28.910156 39.484375 C 62.691406 47.453125 29.382812 31.046875 28.910156 29.234375 C 57.328125 37.929688 28.910156 22.230469 28.910156 18.730469 C 44.246094 23.542969 26.195312 11.03125 24.71875 7.578125 L 24.71875 7.351562 C 24.710938 7.394531 24.695312 7.4375 24.679688 7.484375 C 24.664062 7.4375 24.652344 7.394531 24.640625 7.351562 Z M 24.640625 7.351562 "/>
<path style=" stroke:none;fill-rule:nonzero;fill:rgb(33.333333%,13.333333%,0%);fill-opacity:1;" d="M 22.585938 51.859375 L 21.707031 61.488281 L 27.984375 61.488281 L 26.855469 51.734375 Z M 22.585938 51.859375 "/>
<path style=" stroke:none;fill-rule:nonzero;fill:rgb(12.941176%,47.058824%,26.666667%);fill-opacity:1;" d="M 21.832031 27.230469 C 19.234375 29.785156 11.199219 30.933594 9.78125 30.355469 C 6.425781 29.832031 16.53125 28.820312 21.832031 27.230469 Z M 21.832031 27.230469 "/>
<path style=" stroke:none;fill-rule:nonzero;fill:rgb(12.941176%,47.058824%,26.666667%);fill-opacity:1;" d="M 19.195312 37.859375 C 16.597656 40.414062 8.5625 41.5625 7.144531 40.984375 C 3.789062 40.460938 13.894531 39.449219 19.195312 37.859375 Z M 19.195312 37.859375 "/>
<path style=" stroke:none;fill-rule:nonzero;fill:rgb(12.941176%,47.058824%,26.666667%);fill-opacity:1;" d="M 17.566406 49.859375 C 14.964844 52.414062 6.929688 53.5625 5.511719 52.984375 C 2.160156 52.460938 12.261719 51.453125 17.566406 49.859375 Z M 17.566406 49.859375 "/>
<path style=" stroke:none;fill-rule:nonzero;fill:rgb(12.941176%,47.058824%,26.666667%);fill-opacity:1;" d="M 32.085938 49.859375 C 34.6875 52.414062 42.722656 53.5625 44.140625 52.984375 C 47.492188 52.460938 37.390625 51.453125 32.085938 49.859375 Z M 32.085938 49.859375 "/>
<path style=" stroke:none;fill-rule:nonzero;fill:rgb(12.941176%,47.058824%,26.666667%);fill-opacity:1;" d="M 27.820312 37.109375 C 30.417969 39.664062 38.453125 40.8125 39.871094 40.234375 C 43.226562 39.710938 33.121094 38.699219 27.820312 37.109375 Z M 27.820312 37.109375 "/>
<path style=" stroke:none;fill-rule:nonzero;fill:rgb(12.941176%,47.058824%,26.666667%);fill-opacity:1;" d="M 26.5625 27.230469 C 29.160156 29.785156 37.199219 30.933594 38.617188 30.355469 C 41.96875 29.832031 31.867188 28.820312 26.5625 27.230469 Z M 26.5625 27.230469 "/>
<path style=" stroke:none;fill-rule:nonzero;fill:rgb(12.941176%,47.058824%,26.666667%);fill-opacity:1;" d="M 26.4375 16.226562 C 27.984375 18.390625 32.769531 19.367188 33.613281 18.875 C 35.609375 18.433594 29.59375 17.578125 26.4375 16.226562 Z M 26.4375 16.226562 "/>
<path style=" stroke:none;fill-rule:nonzero;fill:rgb(12.941176%,47.058824%,26.666667%);fill-opacity:1;" d="M 23.089844 16.226562 C 21.542969 18.390625 16.757812 19.367188 15.914062 18.875 C 13.917969 18.433594 19.933594 17.578125 23.089844 16.226562 Z M 23.089844 16.226562 "/>
<path style=" stroke:none;fill-rule:nonzero;fill:url(#radial0);" d="M 11.1875 29.910156 C 11.914062 29.527344 12.832031 29.78125 13.234375 30.476562 C 13.636719 31.171875 13.371094 32.042969 12.640625 32.429688 C 11.914062 32.8125 10.996094 32.558594 10.597656 31.863281 C 10.195312 31.167969 10.457031 30.296875 11.183594 29.914062 "/>
<path style=" stroke:none;fill-rule:nonzero;fill:url(#radial1);" d="M 20.730469 21.03125 C 21.457031 20.648438 22.375 20.902344 22.777344 21.597656 C 23.175781 22.292969 22.914062 23.167969 22.183594 23.550781 C 21.457031 23.933594 20.539062 23.679688 20.136719 22.984375 C 19.734375 22.292969 20 21.421875 20.726562 21.035156 "/>
<path style=" stroke:none;fill-rule:nonzero;fill:url(#radial2);" d="M 31.148438 37.410156 C 31.878906 37.027344 32.792969 37.28125 33.195312 37.976562 C 33.597656 38.671875 33.332031 39.546875 32.605469 39.929688 C 31.875 40.3125 30.960938 40.0625 30.558594 39.367188 C 30.15625 38.671875 30.417969 37.796875 31.144531 37.414062 "/>
<path style=" stroke:none;fill-rule:nonzero;fill:url(#radial3);" d="M 37.175781 51.664062 C 37.902344 51.28125 38.820312 51.535156 39.222656 52.230469 C 39.625 52.925781 39.359375 53.800781 38.628906 54.183594 C 37.902344 54.566406 36.984375 54.3125 36.582031 53.617188 C 36.183594 52.921875 36.445312 52.050781 37.171875 51.667969 "/>
<path style=" stroke:none;fill-rule:nonzero;fill:url(#radial4);" d="M 14.199219 44.039062 C 14.929688 43.65625 15.847656 43.90625 16.246094 44.601562 C 16.648438 45.296875 16.382812 46.171875 15.65625 46.554688 C 14.925781 46.9375 14.011719 46.6875 13.609375 45.992188 C 13.207031 45.296875 13.472656 44.425781 14.195312 44.039062 "/>
<path style=" stroke:none;fill-rule:nonzero;fill:url(#radial5);" d="M 22.988281 33.035156 C 23.71875 32.652344 24.632812 32.90625 25.035156 33.601562 C 25.4375 34.296875 25.171875 35.171875 24.445312 35.554688 C 23.714844 35.9375 22.800781 35.683594 22.398438 34.988281 C 21.996094 34.296875 22.257812 33.421875 22.984375 33.039062 "/>
<path style=" stroke:none;fill-rule:nonzero;fill:url(#radial6);" d="M 30.648438 27.597656 C 31.375 27.210938 32.289062 27.464844 32.691406 28.160156 C 33.09375 28.855469 32.832031 29.730469 32.101562 30.113281 C 31.375 30.5 30.457031 30.246094 30.054688 29.550781 C 29.652344 28.855469 29.917969 27.984375 30.644531 27.597656 "/>
<path style=" stroke:none;fill-rule:nonzero;fill:url(#radial7);" d="M 27.507812 13.09375 C 28.238281 12.710938 29.152344 12.960938 29.554688 13.65625 C 29.957031 14.351562 29.691406 15.226562 28.964844 15.609375 C 28.234375 15.996094 27.320312 15.742188 26.917969 15.046875 C 26.515625 14.351562 26.777344 13.480469 27.503906 13.09375 "/>
<path style=" stroke:none;fill-rule:nonzero;fill:url(#radial8);" d="M 5.160156 40.351562 C 5.890625 39.964844 6.804688 40.21875 7.207031 40.914062 C 7.609375 41.609375 7.34375 42.484375 6.617188 42.867188 C 5.886719 43.25 4.972656 43 4.570312 42.304688 C 4.167969 41.609375 4.433594 40.734375 5.15625 40.351562 "/>
<path style=" stroke:none;fill-rule:nonzero;fill:url(#radial9);" d="M 17.714844 49.726562 C 18.445312 49.34375 19.359375 49.59375 19.761719 50.289062 C 20.164062 50.984375 19.898438 51.859375 19.171875 52.246094 C 18.441406 52.628906 17.527344 52.375 17.125 51.679688 C 16.722656 50.984375 16.984375 50.113281 17.710938 49.726562 "/>
<path style=" stroke:none;fill-rule:nonzero;fill:url(#radial10);" d="M 14.703125 17.84375 C 15.429688 17.460938 16.347656 17.714844 16.75 18.410156 C 17.152344 19.105469 16.886719 19.980469 16.15625 20.363281 C 15.429688 20.746094 14.511719 20.492188 14.109375 19.796875 C 13.710938 19.101562 13.972656 18.230469 14.699219 17.847656 "/>
<path style=" stroke:none;fill-rule:nonzero;fill:url(#radial11);" d="M 19.597656 11.34375 C 20.328125 10.960938 21.242188 11.210938 21.644531 11.90625 C 22.046875 12.601562 21.78125 13.476562 21.054688 13.859375 C 20.324219 14.242188 19.410156 13.992188 19.007812 13.296875 C 18.605469 12.601562 18.867188 11.730469 19.59375 11.34375 "/>
<path style=" stroke:none;fill-rule:nonzero;fill:url(#radial12);" d="M 39.058594 28.222656 C 39.785156 27.835938 40.703125 28.089844 41.105469 28.785156 C 41.507812 29.480469 41.242188 30.355469 40.511719 30.742188 C 39.785156 31.125 38.867188 30.871094 38.464844 30.175781 C 38.066406 29.480469 38.328125 28.609375 39.054688 28.222656 "/>
<path style=" stroke:none;fill-rule:nonzero;fill:url(#radial13);" d="M 32.402344 44.726562 C 33.132812 44.34375 34.050781 44.59375 34.449219 45.289062 C 34.851562 45.984375 34.585938 46.859375 33.859375 47.242188 C 33.128906 47.625 32.214844 47.375 31.8125 46.679688 C 31.410156 45.984375 31.675781 45.113281 32.398438 44.726562 "/>
<path style=" stroke:none;fill-rule:nonzero;fill:url(#radial14);" d="M 2.523438 51.726562 C 3.253906 51.34375 4.171875 51.597656 4.574219 52.292969 C 4.972656 52.988281 4.707031 53.863281 3.980469 54.246094 C 3.25 54.628906 2.335938 54.375 1.933594 53.679688 C 1.53125 52.984375 1.796875 52.113281 2.519531 51.730469 "/>
<path style=" stroke:none;fill-rule:nonzero;fill:url(#radial15);" d="M 14.953125 33.722656 C 15.683594 33.339844 16.597656 33.59375 17 34.289062 C 17.402344 34.984375 17.136719 35.859375 16.410156 36.242188 C 15.679688 36.625 14.765625 36.371094 14.363281 35.675781 C 13.960938 34.984375 14.222656 34.109375 14.949219 33.726562 "/>
<path style=" stroke:none;fill-rule:nonzero;fill:url(#radial16);" d="M 29.515625 20.96875 C 30.246094 20.585938 31.160156 20.839844 31.5625 21.535156 C 31.964844 22.230469 31.699219 23.105469 30.972656 23.488281 C 30.242188 23.871094 29.328125 23.617188 28.925781 22.921875 C 28.523438 22.230469 28.785156 21.359375 29.511719 20.972656 "/>
<path style=" stroke:none;fill-rule:nonzero;fill:url(#radial17);" d="M 24.996094 42.851562 C 25.726562 42.46875 26.640625 42.71875 27.042969 43.414062 C 27.445312 44.109375 27.179688 44.984375 26.453125 45.367188 C 25.722656 45.75 24.808594 45.5 24.40625 44.804688 C 24.003906 44.109375 24.265625 43.238281 24.992188 42.851562 "/>
<path style=" stroke:none;fill-rule:nonzero;fill:url(#radial18);" d="M 46.714844 50.601562 C 47.445312 50.21875 48.359375 50.472656 48.761719 51.167969 C 49.164062 51.863281 48.898438 52.734375 48.171875 53.121094 C 47.441406 53.503906 46.527344 53.25 46.125 52.554688 C 45.722656 51.859375 45.984375 50.988281 46.710938 50.605469 "/>
<path style=" stroke:none;fill-rule:nonzero;fill:url(#radial19);" d="M 41.820312 39.101562 C 42.546875 38.714844 43.464844 38.96875 43.867188 39.664062 C 44.269531 40.359375 44.003906 41.234375 43.273438 41.617188 C 42.546875 42 41.628906 41.75 41.226562 41.054688 C 40.828125 40.359375 41.089844 39.484375 41.816406 39.101562 "/>
<path style=" stroke:none;fill-rule:nonzero;fill:url(#linear0);" d="M 29.617188 56.488281 L 19.320312 56.238281 L 20.578125 66.988281 L 28.234375 66.988281 Z M 29.617188 56.488281 "/>
<path style=" stroke:none;fill-rule:nonzero;fill:rgb(100%,40%,0%);fill-opacity:1;" d="M 26.148438 6.65625 L 29.039062 10.859375 L 24.683594 8.292969 L 21.566406 12.574219 L 22.761719 7.429688 L 17.949219 5.867188 L 23.042969 5.257812 L 23.179688 0.0117188 L 25.132812 4.777344 L 30.035156 3.097656 Z M 26.148438 6.65625 "/>
<path style=" stroke:none;fill-rule:nonzero;fill:rgb(100%,80%,0%);fill-opacity:1;" d="M 25.527344 6.554688 L 27.703125 9.148438 L 24.652344 7.710938 L 22.839844 10.695312 L 23.324219 7.253906 L 20.03125 6.503906 L 23.378906 5.8125 L 23.15625 2.363281 L 24.742188 5.378906 L 27.898438 4 Z M 25.527344 6.554688 "/>
</g>
</svg>
