<?xml version="1.0" encoding="UTF-8"?>
<svg xmlns="http://www.w3.org/2000/svg" xmlns:xlink="http://www.w3.org/1999/xlink" width="49pt" height="73pt" viewBox="0 0 49 73" version="1.1">
<defs>
<linearGradient id="linear0" gradientUnits="userSpaceOnUse" x1="423.08" y1="581.12" x2="454.71" y2="679.18" gradientTransform="matrix(0.148883,0,0,0.148226,-41.218202,-28.89799)">
<stop offset="0" style="stop-color:rgb(0%,0%,0%);stop-opacity:1;"/>
<stop offset="1" style="stop-color:rgb(0%,0%,0%);stop-opacity:0;"/>
</linearGradient>
<linearGradient id="linear1" gradientUnits="userSpaceOnUse" x1="-680.1" y1="263.71" x2="-637.43" y2="240.45" spreadMethod="reflect" gradientTransform="matrix(0.0481793,0,0,0.0479666,53.589686,49.803998)">
<stop offset="0" style="stop-color:rgb(98.039216%,0.784314%,79.215686%);stop-opacity:1;"/>
<stop offset="1" style="stop-color:rgb(98.039216%,0.784314%,0.784314%);stop-opacity:1;"/>
</linearGradient>
<radialGradient id="radial0" gradientUnits="userSpaceOnUse" cx="-656.33" cy="243.79" fx="-656.33" fy="243.79" r="33.352" gradientTransform="matrix(0.0626524,0,0,0.0623758,63.089704,46.290917)">
<stop offset="0" style="stop-color:rgb(100%,100%,100%);stop-opacity:1;"/>
<stop offset="0.5" style="stop-color:rgb(100%,100%,100%);stop-opacity:0;"/>
<stop offset="1" style="stop-color:rgb(0%,0%,0%);stop-opacity:0.403922;"/>
</radialGradient>
<linearGradient id="linear2" gradientUnits="userSpaceOnUse" x1="-435.6" y1="863.28" x2="-393.15" y2="863.28" gradientTransform="matrix(0.0739489,0,0,0.0776007,55.465382,-4.393695)">
<stop offset="0" style="stop-color:rgb(38.431373%,28.235294%,6.666667%);stop-opacity:1;"/>
<stop offset="0.4108" style="stop-color:rgb(55.686275%,38.039216%,0%);stop-opacity:1;"/>
<stop offset="0.79" style="stop-color:rgb(55.686275%,38.039216%,0%);stop-opacity:1;"/>
<stop offset="1" style="stop-color:rgb(38.431373%,28.235294%,6.666667%);stop-opacity:1;"/>
</linearGradient>
<linearGradient id="linear3" gradientUnits="userSpaceOnUse" x1="-735.77" y1="468.43" x2="-403.77" y2="468.43" spreadMethod="reflect" gradientTransform="matrix(0.0739489,0,0,0.0736224,55.465382,-0.960062)">
<stop offset="0" style="stop-color:rgb(14.901961%,78.039216%,0%);stop-opacity:1;"/>
<stop offset="1" style="stop-color:rgb(60.392157%,91.372549%,52.941176%);stop-opacity:1;"/>
</linearGradient>
<linearGradient id="linear4" gradientUnits="userSpaceOnUse" x1="-418.63" y1="231.81" x2="-409.38" y2="237.88" spreadMethod="reflect" gradientTransform="matrix(0.0739489,0,0,0.0736224,55.465382,-0.960062)">
<stop offset="0" style="stop-color:rgb(98.039216%,50.588235%,0.784314%);stop-opacity:1;"/>
<stop offset="1" style="stop-color:rgb(98.039216%,91.372549%,0.784314%);stop-opacity:1;"/>
</linearGradient>
<linearGradient id="linear5" gradientUnits="userSpaceOnUse" x1="-418.63" y1="231.81" x2="-411.46" y2="255.02" spreadMethod="reflect" gradientTransform="matrix(-0.0705202,0.0221605,0.0222588,0.0702087,-17.332549,32.066069)">
<stop offset="0" style="stop-color:rgb(98.039216%,24.705882%,0.784314%);stop-opacity:1;"/>
<stop offset="1" style="stop-color:rgb(100%,100%,100%);stop-opacity:1;"/>
</linearGradient>
<linearGradient id="linear6" gradientUnits="userSpaceOnUse" x1="-418.63" y1="231.81" x2="-409.38" y2="237.88" spreadMethod="reflect" gradientTransform="matrix(0.12083,0,0,0.0478977,76.245523,16.992469)">
<stop offset="0" style="stop-color:rgb(98.039216%,50.588235%,0.784314%);stop-opacity:1;"/>
<stop offset="1" style="stop-color:rgb(98.039216%,91.372549%,0.784314%);stop-opacity:1;"/>
</linearGradient>
<linearGradient id="linear7" gradientUnits="userSpaceOnUse" x1="-418.63" y1="231.81" x2="-411.46" y2="255.02" spreadMethod="reflect" gradientTransform="matrix(-0.080263,0.0409187,0.0253346,0.12964,-23.085692,39.191862)">
<stop offset="0" style="stop-color:rgb(98.039216%,24.705882%,0.784314%);stop-opacity:1;"/>
<stop offset="1" style="stop-color:rgb(100%,100%,100%);stop-opacity:1;"/>
</linearGradient>
<linearGradient id="linear8" gradientUnits="userSpaceOnUse" x1="-685.24" y1="236.41" x2="-676.14" y2="251.57" spreadMethod="reflect" gradientTransform="matrix(0.0739489,0,0,0.0736224,84.683634,1.197254)">
<stop offset="0" style="stop-color:rgb(98.039216%,50.588235%,0.784314%);stop-opacity:1;"/>
<stop offset="1" style="stop-color:rgb(98.039216%,91.372549%,0.784314%);stop-opacity:1;"/>
</linearGradient>
<linearGradient id="linear9" gradientUnits="userSpaceOnUse" x1="-674.55" y1="259.27" x2="-656.59" y2="251.57" spreadMethod="reflect" gradientTransform="matrix(0.0582626,0,0,0.0580053,51.194644,16.510556)">
<stop offset="0" style="stop-color:rgb(0.784314%,83.137255%,98.039216%);stop-opacity:1;"/>
<stop offset="1" style="stop-color:rgb(0.784314%,22.745098%,98.039216%);stop-opacity:1;"/>
</linearGradient>
<linearGradient id="linear10" gradientUnits="userSpaceOnUse" x1="-663" y1="241.62" x2="-676.14" y2="251.57" spreadMethod="repeat" gradientTransform="matrix(0.0582626,0,0,0.0580053,79.29605,27.523031)">
<stop offset="0" style="stop-color:rgb(98.039216%,0.784314%,79.215686%);stop-opacity:1;"/>
<stop offset="1" style="stop-color:rgb(98.039216%,0.784314%,0.784314%);stop-opacity:1;"/>
</linearGradient>
<linearGradient id="linear11" gradientUnits="userSpaceOnUse" x1="-674.55" y1="259.27" x2="-611.9" y2="262.33" spreadMethod="reflect" gradientTransform="matrix(0.0694676,0,0,0.069161,49.205499,39.971207)">
<stop offset="0" style="stop-color:rgb(98.039216%,50.588235%,0.784314%);stop-opacity:1;"/>
<stop offset="1" style="stop-color:rgb(98.039216%,91.372549%,0.784314%);stop-opacity:1;"/>
</linearGradient>
<linearGradient id="linear12" gradientUnits="userSpaceOnUse" x1="-680.1" y1="263.71" x2="-637.43" y2="240.45" spreadMethod="reflect" gradientTransform="matrix(0.0672263,0,0,0.0669295,58.781885,3.252916)">
<stop offset="0" style="stop-color:rgb(98.039216%,0.784314%,79.215686%);stop-opacity:1;"/>
<stop offset="1" style="stop-color:rgb(98.039216%,0.784314%,0.784314%);stop-opacity:1;"/>
</linearGradient>
<linearGradient id="linear13" gradientUnits="userSpaceOnUse" x1="-711.13" y1="267.87" x2="-646.32" y2="251.57" spreadMethod="reflect" gradientTransform="matrix(0.0694676,0,0,0.069161,92.625089,39.821864)">
<stop offset="0" style="stop-color:rgb(0.784314%,83.137255%,98.039216%);stop-opacity:1;"/>
<stop offset="1" style="stop-color:rgb(0.784314%,22.745098%,98.039216%);stop-opacity:1;"/>
</linearGradient>
<linearGradient id="linear14" gradientUnits="userSpaceOnUse" x1="-657.39" y1="245.92" x2="-646.32" y2="251.57" spreadMethod="reflect" gradientTransform="matrix(0.0784313,0,0,0.0780851,88.477885,12.500885)">
<stop offset="0" style="stop-color:rgb(14.509804%,98.039216%,0.784314%);stop-opacity:1;"/>
<stop offset="1" style="stop-color:rgb(18.039216%,80.784314%,78.823529%);stop-opacity:1;"/>
</linearGradient>
<linearGradient id="linear15" gradientUnits="userSpaceOnUse" x1="-670.22" y1="235.66" x2="-641.19" y2="265.68" spreadMethod="reflect" gradientTransform="matrix(0.0582626,0,0,0.0580053,44.915853,27.2256)">
<stop offset="0" style="stop-color:rgb(14.509804%,98.039216%,0.784314%);stop-opacity:1;"/>
<stop offset="1" style="stop-color:rgb(18.039216%,80.784314%,78.823529%);stop-opacity:1;"/>
</linearGradient>
<linearGradient id="linear16" gradientUnits="userSpaceOnUse" x1="-668.96" y1="253.95" x2="-654.66" y2="242.04" spreadMethod="reflect" gradientTransform="matrix(0.062745,0,0,0.062468,67.02083,30.046802)">
<stop offset="0" style="stop-color:rgb(98.039216%,50.588235%,0.784314%);stop-opacity:1;"/>
<stop offset="1" style="stop-color:rgb(98.039216%,91.372549%,0.784314%);stop-opacity:1;"/>
</linearGradient>
<linearGradient id="linear17" gradientUnits="userSpaceOnUse" x1="-647.25" y1="264.78" x2="-676.14" y2="251.57" spreadMethod="repeat" gradientTransform="matrix(0.0806713,0,0,0.0803151,74.645887,14.246566)">
<stop offset="0" style="stop-color:rgb(98.039216%,0.784314%,79.215686%);stop-opacity:1;"/>
<stop offset="1" style="stop-color:rgb(98.039216%,0.784314%,0.784314%);stop-opacity:1;"/>
</linearGradient>
<linearGradient id="linear18" gradientUnits="userSpaceOnUse" x1="-663" y1="231.33" x2="-672.46" y2="251.57" spreadMethod="reflect" gradientTransform="matrix(0.0582626,0,0,0.0580053,64.049717,7.878783)">
<stop offset="0" style="stop-color:rgb(14.509804%,98.039216%,0.784314%);stop-opacity:1;"/>
<stop offset="1" style="stop-color:rgb(18.039216%,80.784314%,78.823529%);stop-opacity:1;"/>
</linearGradient>
<radialGradient id="radial1" gradientUnits="userSpaceOnUse" cx="-656.33" cy="243.79" fx="-656.33" fy="243.79" r="33.352" gradientTransform="matrix(0.0874211,0,0,0.0870352,72.037569,-1.649)">
<stop offset="0" style="stop-color:rgb(100%,100%,100%);stop-opacity:1;"/>
<stop offset="0.5" style="stop-color:rgb(100%,100%,100%);stop-opacity:0;"/>
<stop offset="1" style="stop-color:rgb(0%,0%,0%);stop-opacity:0.403922;"/>
</radialGradient>
<radialGradient id="radial2" gradientUnits="userSpaceOnUse" cx="-654.66" cy="244.27" fx="-654.66" fy="244.27" r="33.352" gradientTransform="matrix(0.0673924,0,0,0.0670946,70.025707,5.658862)">
<stop offset="0" style="stop-color:rgb(100%,100%,100%);stop-opacity:1;"/>
<stop offset="0.5" style="stop-color:rgb(100%,100%,100%);stop-opacity:0;"/>
<stop offset="1" style="stop-color:rgb(0%,0%,0%);stop-opacity:0.403922;"/>
</radialGradient>
<radialGradient id="radial3" gradientUnits="userSpaceOnUse" cx="-656.59" cy="245.16" fx="-656.59" fy="245.16" r="33.352" gradientTransform="matrix(0.0739469,0,0,0.0736204,61.493715,12.682031)">
<stop offset="0" style="stop-color:rgb(100%,100%,100%);stop-opacity:1;"/>
<stop offset="0.5" style="stop-color:rgb(100%,100%,100%);stop-opacity:0;"/>
<stop offset="1" style="stop-color:rgb(0%,0%,0%);stop-opacity:0.403922;"/>
</radialGradient>
<radialGradient id="radial4" gradientUnits="userSpaceOnUse" cx="-657.91" cy="247.4" fx="-657.91" fy="247.4" r="33.352" gradientTransform="matrix(0.0806713,0,0,0.0803151,74.645887,14.246566)">
<stop offset="0" style="stop-color:rgb(100%,100%,100%);stop-opacity:1;"/>
<stop offset="0.5" style="stop-color:rgb(100%,100%,100%);stop-opacity:0;"/>
<stop offset="1" style="stop-color:rgb(0%,0%,0%);stop-opacity:0.403922;"/>
</radialGradient>
<radialGradient id="radial5" gradientUnits="userSpaceOnUse" cx="-657.44" cy="244.49" fx="-657.44" fy="244.49" r="33.352" gradientTransform="matrix(0.0851594,0,0,0.0847836,92.054704,-1.531852)">
<stop offset="0" style="stop-color:rgb(100%,100%,100%);stop-opacity:1;"/>
<stop offset="0.5" style="stop-color:rgb(100%,100%,100%);stop-opacity:0;"/>
<stop offset="1" style="stop-color:rgb(0%,0%,0%);stop-opacity:0.403922;"/>
</radialGradient>
<radialGradient id="radial6" gradientUnits="userSpaceOnUse" cx="-659.67" cy="246.33" fx="-659.67" fy="246.33" r="33.352" gradientTransform="matrix(0.0873959,0,0,0.0870103,94.390822,10.302635)">
<stop offset="0" style="stop-color:rgb(100%,100%,100%);stop-opacity:1;"/>
<stop offset="0.5" style="stop-color:rgb(100%,100%,100%);stop-opacity:0;"/>
<stop offset="1" style="stop-color:rgb(0%,0%,0%);stop-opacity:0.403922;"/>
</radialGradient>
<radialGradient id="radial7" gradientUnits="userSpaceOnUse" cx="-657.23" cy="243.23" fx="-657.23" fy="243.23" r="33.352" gradientTransform="matrix(0.0706666,0,0,0.0703548,87.448729,24.51911)">
<stop offset="0" style="stop-color:rgb(100%,100%,100%);stop-opacity:1;"/>
<stop offset="0.5" style="stop-color:rgb(100%,100%,100%);stop-opacity:0;"/>
<stop offset="1" style="stop-color:rgb(0%,0%,0%);stop-opacity:0.403922;"/>
</radialGradient>
<radialGradient id="radial8" gradientUnits="userSpaceOnUse" cx="-657.23" cy="243.87" fx="-657.23" fy="243.87" r="33.352" gradientTransform="matrix(0.0739585,0,0,0.073632,55.230654,23.415057)">
<stop offset="0" style="stop-color:rgb(100%,100%,100%);stop-opacity:1;"/>
<stop offset="0.5" style="stop-color:rgb(100%,100%,100%);stop-opacity:0;"/>
<stop offset="1" style="stop-color:rgb(0%,0%,0%);stop-opacity:0.403922;"/>
</radialGradient>
<radialGradient id="radial9" gradientUnits="userSpaceOnUse" cx="-654.66" cy="245.02" fx="-654.66" fy="245.02" r="33.352" gradientTransform="matrix(0.0796235,0,0,0.0792719,78.070235,25.929721)">
<stop offset="0" style="stop-color:rgb(100%,100%,100%);stop-opacity:1;"/>
<stop offset="0.5" style="stop-color:rgb(100%,100%,100%);stop-opacity:0;"/>
<stop offset="1" style="stop-color:rgb(0%,0%,0%);stop-opacity:0.403922;"/>
</radialGradient>
<radialGradient id="radial10" gradientUnits="userSpaceOnUse" cx="-658.16" cy="245.65" fx="-658.16" fy="245.65" r="33.352" gradientTransform="matrix(0.0807421,0,0,0.0803857,56.626024,37.213832)">
<stop offset="0" style="stop-color:rgb(100%,100%,100%);stop-opacity:1;"/>
<stop offset="0.5" style="stop-color:rgb(100%,100%,100%);stop-opacity:0;"/>
<stop offset="1" style="stop-color:rgb(0%,0%,0%);stop-opacity:0.403922;"/>
</radialGradient>
<radialGradient id="radial11" gradientUnits="userSpaceOnUse" cx="-655.39" cy="243.96" fx="-655.39" fy="243.96" r="33.352" gradientTransform="matrix(0.0916625,0,0,0.0912578,107.172986,34.430499)">
<stop offset="0" style="stop-color:rgb(100%,100%,100%);stop-opacity:1;"/>
<stop offset="0.5" style="stop-color:rgb(100%,100%,100%);stop-opacity:0;"/>
<stop offset="1" style="stop-color:rgb(0%,0%,0%);stop-opacity:0.403922;"/>
</radialGradient>
<linearGradient id="linear19" gradientUnits="userSpaceOnUse" x1="-1286.8" y1="257.31" x2="-1217.6" y2="207.84" gradientTransform="matrix(0.0662354,0,0,0.0659431,107.411322,-10.850582)">
<stop offset="0" style="stop-color:rgb(88.235294%,90.196078%,0.392157%);stop-opacity:1;"/>
<stop offset="1" style="stop-color:rgb(99.215686%,100%,73.333333%);stop-opacity:1;"/>
</linearGradient>
</defs>
<g id="surface1">
<path style=" stroke:none;fill-rule:nonzero;fill:url(#linear0);" d="M 25.175781 72.898438 L 29.0625 72.898438 C 28.308594 71.832031 26.886719 68.382812 26.765625 67.648438 C 26.441406 66.910156 23.34375 67.195312 22.875 67.691406 C 23.15625 69.984375 24.65625 72.261719 25.175781 72.898438 Z M 25.175781 72.898438 "/>
<path style=" stroke:none;fill-rule:nonzero;fill:url(#linear1);" d="M 23.253906 61.871094 C 23.261719 62.445312 22.953125 62.980469 22.453125 63.273438 C 21.957031 63.5625 21.339844 63.5625 20.839844 63.273438 C 20.339844 62.980469 20.035156 62.445312 20.039062 61.871094 C 20.035156 61.292969 20.339844 60.761719 20.839844 60.472656 C 21.339844 60.179688 21.957031 60.179688 22.453125 60.472656 C 22.953125 60.761719 23.261719 61.292969 23.253906 61.871094 Z M 23.253906 61.871094 "/>
<path style=" stroke:none;fill-rule:nonzero;fill:url(#radial0);" d="M 23.253906 61.871094 C 23.261719 62.445312 22.953125 62.980469 22.453125 63.273438 C 21.957031 63.5625 21.339844 63.5625 20.839844 63.273438 C 20.339844 62.980469 20.035156 62.445312 20.039062 61.871094 C 20.035156 61.292969 20.339844 60.761719 20.839844 60.472656 C 21.339844 60.179688 21.957031 60.179688 22.453125 60.472656 C 22.953125 60.761719 23.261719 61.292969 23.253906 61.871094 Z M 23.253906 61.871094 "/>
<path style=" stroke:none;fill-rule:nonzero;fill:rgb(27.058824%,18.431373%,0%);fill-opacity:1;" d="M 22.878906 57.480469 L 26.765625 57.480469 C 26.582031 61.199219 26.65625 64.484375 26.765625 67.710938 C 25.148438 68.492188 23.167969 67.882812 22.878906 67.710938 C 23.191406 64.523438 23.265625 61.164062 22.878906 57.480469 Z M 22.878906 57.480469 "/>
<path style=" stroke:none;fill-rule:nonzero;fill:url(#linear2);" d="M 23.253906 57.515625 L 26.390625 57.515625 C 26.242188 61.207031 26.304688 64.472656 26.390625 67.675781 C 25.324219 68.140625 24.289062 67.976562 23.253906 67.675781 C 23.503906 64.507812 23.5625 61.175781 23.253906 57.515625 Z M 23.253906 57.515625 "/>
<path style=" stroke:none;fill-rule:nonzero;fill:rgb(28.235294%,63.137255%,20%);fill-opacity:1;" d="M 24.226562 6.398438 C 22.664062 12.429688 15.226562 17.125 14.058594 17.5625 C 13.503906 17.769531 19.058594 21.09375 19.664062 20.386719 C 16.929688 25.074219 13.824219 26.855469 10.695312 28.425781 C 12.101562 30.167969 14.6875 30.820312 16.675781 31.402344 C 14.40625 34.402344 12.007812 37.679688 6.511719 39.734375 C 8.007812 41.273438 11.945312 42.46875 13.835938 42.636719 C 10 48.667969 3.847656 51.714844 0.0117188 53.648438 C 15.4375 62.234375 32.863281 63.550781 47.691406 54.09375 C 43.3125 52.324219 36.730469 49.28125 33.34375 43.15625 C 35.136719 42.726562 39.246094 41.101562 41.042969 39.734375 C 35.730469 38.222656 32.644531 34.953125 31.027344 31.699219 C 33.019531 31.386719 35.234375 30.097656 37.230469 29.019531 C 33.984375 27.425781 30.984375 24.683594 28.335938 20.3125 C 30.464844 19.898438 33.578125 18.566406 35.511719 16.964844 C 31.65625 15.414062 26.902344 10.886719 24.226562 6.398438 Z M 24.226562 6.398438 "/>
<path style=" stroke:none;fill-rule:nonzero;fill:url(#linear3);" d="M 24.207031 7.589844 C 22.71875 13.355469 16.449219 17 15.335938 17.417969 C 14.800781 17.621094 20.117188 20.691406 20.695312 20.019531 C 18.078125 24.5 15.324219 26.9375 12.332031 28.4375 C 13.675781 30.105469 16.359375 30.410156 18.261719 30.96875 C 16.089844 33.835938 13.796875 37.601562 8.542969 39.566406 C 9.972656 41.039062 13.632812 41.972656 15.441406 42.132812 C 11.769531 47.898438 6.097656 51.445312 2.429688 53.292969 C 12.769531 62.242188 35.105469 59.953125 45.695312 54.035156 C 41.503906 52.339844 35.214844 48.699219 31.976562 42.839844 C 33.691406 42.425781 37.832031 41.085938 39.546875 39.777344 C 34.46875 38.332031 31.09375 34.363281 29.550781 31.253906 C 31.453125 30.957031 34.3125 30.25 36.21875 29.21875 C 33.117188 27.691406 30.140625 24.335938 27.609375 20.15625 C 29.648438 19.757812 32.730469 18.382812 34.574219 16.851562 C 30.890625 15.367188 26.769531 11.878906 24.207031 7.589844 Z M 24.207031 7.589844 "/>
<path style=" stroke:none;fill-rule:nonzero;fill:rgb(0%,0%,0%);fill-opacity:0.117647;" d="M 20.472656 20.371094 L 20.179688 20.839844 C 21.503906 21.808594 26.308594 23.144531 28.972656 22.25 L 27.792969 20.476562 C 25.96875 20.839844 23.96875 20.972656 20.472656 20.371094 Z M 20.472656 20.371094 "/>
<path style=" stroke:none;fill-rule:nonzero;fill:rgb(0%,0%,0%);fill-opacity:0.117647;" d="M 17.886719 31.46875 L 17.316406 32.214844 C 23.226562 33.21875 26.558594 34.117188 30.667969 33.113281 L 29.835938 31.832031 C 26.714844 32.199219 23.871094 32.070312 17.886719 31.46875 Z M 17.886719 31.46875 "/>
<path style=" stroke:none;fill-rule:nonzero;fill:rgb(28.235294%,63.137255%,20%);fill-opacity:1;" d="M 17.101562 30.78125 L 16.457031 31.269531 C 22.363281 32.269531 27.507812 32.554688 31.621094 31.550781 L 31.480469 30.886719 C 28.359375 31.25 23.085938 31.382812 17.101562 30.78125 Z M 17.101562 30.78125 "/>
<path style=" stroke:none;fill-rule:nonzero;fill:rgb(28.235294%,63.137255%,20%);fill-opacity:1;" d="M 19.632812 19.980469 L 19.320312 20.058594 C 22.773438 21.0625 25.953125 21.273438 28.359375 20.269531 L 28.035156 20.085938 C 26.210938 20.449219 23.128906 20.582031 19.632812 19.980469 Z M 19.632812 19.980469 "/>
<path style=" stroke:none;fill-rule:nonzero;fill:url(#linear4);" d="M 28.414062 11.738281 C 26.9375 13.445312 25.175781 17.765625 17.183594 19.730469 C 17.890625 20.03125 18.597656 20.40625 19.304688 20.472656 C 25.421875 18.988281 28.15625 14.027344 28.855469 12.28125 C 28.707031 11.972656 28.515625 11.851562 28.414062 11.738281 Z M 28.414062 11.738281 "/>
<path style=" stroke:none;fill-rule:nonzero;fill:rgb(0%,0%,0%);fill-opacity:0.117647;" d="M 15.109375 42.605469 L 14.585938 43.171875 C 20.921875 44.964844 28.554688 46.316406 33.226562 44.832031 L 32.324219 43.308594 C 28.339844 43.820312 15.644531 42.714844 15.109375 42.605469 Z M 15.109375 42.605469 "/>
<path style=" stroke:none;fill-rule:nonzero;fill:rgb(28.235294%,63.137255%,20%);fill-opacity:1;" d="M 14.816406 42.125 L 12.605469 42.089844 C 20.265625 43.886719 28.589844 44.382812 34.238281 42.894531 L 34.050781 42.226562 C 31.082031 44.15625 15.464844 42.226562 14.816406 42.125 Z M 14.816406 42.125 "/>
<path style=" stroke:none;fill-rule:nonzero;fill:url(#linear5);" d="M 12.679688 36.035156 C 21.925781 41.457031 28.3125 42.632812 36.527344 42.113281 C 35.945312 42.613281 34.300781 43.03125 33.648438 43.304688 C 27.363281 43.722656 22.472656 44.089844 12.046875 36.71875 C 12.09375 36.382812 12.582031 36.359375 12.679688 36.035156 Z M 12.679688 36.035156 "/>
<path style=" stroke:none;fill-rule:nonzero;fill:url(#linear6);" d="M 32.042969 25.253906 C 30 27.941406 27.386719 30.648438 13.535156 30.453125 C 14.691406 30.648438 15.367188 31.261719 16.523438 31.304688 C 28.789062 32.128906 31.625 27.792969 32.761719 25.871094 C 32.523438 25.667969 32.207031 25.328125 32.042969 25.253906 Z M 32.042969 25.253906 "/>
<path style=" stroke:none;fill-rule:nonzero;fill:url(#linear7);" d="M 10.859375 46.253906 C 21.386719 56.273438 30.664062 59.546875 35.890625 59.265625 C 34.859375 59.664062 34.042969 59.855469 33.40625 60.050781 C 26.253906 60.820312 20.050781 57.925781 9.933594 47.46875 C 9.984375 46.84375 10.746094 46.851562 10.859375 46.253906 Z M 10.859375 46.253906 "/>
<path style=" stroke:none;fill-rule:nonzero;fill:rgb(95.686275%,98.039216%,0.784314%);fill-opacity:1;" d="M 27.746094 4.746094 C 27.714844 5.199219 28.65625 6.6875 28.40625 7.066406 C 28.144531 7.445312 26.40625 7.152344 26 7.355469 C 25.585938 7.554688 24.757812 9.109375 24.308594 9.078125 C 23.847656 9.046875 23.234375 7.402344 22.851562 7.148438 C 22.472656 6.894531 20.707031 6.960938 20.507812 6.550781 C 20.300781 6.140625 21.433594 4.789062 21.460938 4.335938 C 21.492188 3.878906 20.550781 2.390625 20.800781 2.011719 C 21.0625 1.632812 22.800781 1.925781 23.207031 1.722656 C 23.621094 1.523438 24.449219 -0.03125 24.898438 0 C 25.359375 0.03125 25.972656 1.675781 26.355469 1.929688 C 26.734375 2.183594 28.5 2.117188 28.699219 2.527344 C 28.898438 2.9375 27.777344 4.289062 27.746094 4.746094 Z M 27.746094 4.746094 "/>
<path style=" stroke:none;fill-rule:nonzero;fill:url(#linear8);" d="M 38.121094 19.71875 C 38.132812 20.601562 37.664062 21.421875 36.898438 21.867188 C 36.128906 22.3125 35.183594 22.3125 34.414062 21.867188 C 33.648438 21.421875 33.179688 20.601562 33.1875 19.71875 C 33.179688 18.835938 33.648438 18.015625 34.414062 17.570312 C 35.183594 17.125 36.128906 17.125 36.898438 17.570312 C 37.664062 18.015625 38.132812 18.835938 38.121094 19.71875 Z M 38.121094 19.71875 "/>
<path style=" stroke:none;fill-rule:nonzero;fill:url(#linear9);" d="M 14.511719 31.101562 C 14.515625 31.800781 14.148438 32.445312 13.542969 32.796875 C 12.941406 33.144531 12.191406 33.144531 11.589844 32.796875 C 10.984375 32.445312 10.617188 31.800781 10.625 31.101562 C 10.617188 30.40625 10.984375 29.757812 11.589844 29.410156 C 12.191406 29.058594 12.941406 29.058594 13.542969 29.410156 C 14.148438 29.757812 14.515625 30.40625 14.511719 31.101562 Z M 14.511719 31.101562 "/>
<path style=" stroke:none;fill-rule:nonzero;fill:url(#linear10);" d="M 42.613281 42.117188 C 42.617188 42.8125 42.25 43.457031 41.644531 43.808594 C 41.042969 44.160156 40.292969 44.160156 39.691406 43.808594 C 39.085938 43.457031 38.71875 42.8125 38.726562 42.117188 C 38.71875 41.417969 39.085938 40.773438 39.691406 40.421875 C 40.292969 40.070312 41.042969 40.070312 41.644531 40.421875 C 42.25 40.773438 42.617188 41.417969 42.613281 42.117188 Z M 42.613281 42.117188 "/>
<path style=" stroke:none;fill-rule:nonzero;fill:url(#linear11);" d="M 5.464844 57.371094 C 5.472656 58.199219 5.035156 58.96875 4.316406 59.390625 C 3.59375 59.804688 2.703125 59.804688 1.984375 59.390625 C 1.261719 58.96875 0.820312 58.199219 0.832031 57.371094 C 0.820312 56.539062 1.261719 55.769531 1.984375 55.351562 C 2.703125 54.933594 3.59375 54.933594 4.316406 55.351562 C 5.035156 55.769531 5.472656 56.539062 5.464844 57.371094 Z M 5.464844 57.371094 "/>
<path style=" stroke:none;fill-rule:nonzero;fill:url(#linear12);" d="M 16.453125 20.089844 C 16.460938 20.894531 16.035156 21.640625 15.339844 22.042969 C 14.640625 22.449219 13.78125 22.449219 13.082031 22.042969 C 12.386719 21.640625 11.960938 20.894531 11.96875 20.089844 C 11.960938 19.289062 12.386719 18.542969 13.082031 18.136719 C 13.78125 17.734375 14.640625 17.734375 15.339844 18.136719 C 16.035156 18.542969 16.460938 19.289062 16.453125 20.089844 Z M 16.453125 20.089844 "/>
<path style=" stroke:none;fill-rule:nonzero;fill:url(#linear13);" d="M 48.882812 57.222656 C 48.894531 58.050781 48.453125 58.820312 47.734375 59.238281 C 47.011719 59.65625 46.121094 59.65625 45.402344 59.238281 C 44.683594 58.820312 44.242188 58.050781 44.25 57.222656 C 44.242188 56.390625 44.683594 55.621094 45.402344 55.203125 C 46.121094 54.785156 47.011719 54.785156 47.734375 55.203125 C 48.453125 55.621094 48.894531 56.390625 48.882812 57.222656 Z M 48.882812 57.222656 "/>
<path style=" stroke:none;fill-rule:nonzero;fill:url(#linear14);" d="M 39.09375 32.144531 C 39.105469 33.082031 38.605469 33.953125 37.792969 34.425781 C 36.980469 34.894531 35.976562 34.894531 35.160156 34.425781 C 34.347656 33.953125 33.851562 33.082031 33.863281 32.144531 C 33.851562 31.207031 34.347656 30.335938 35.160156 29.867188 C 35.976562 29.394531 36.980469 29.394531 37.792969 29.867188 C 38.605469 30.335938 39.105469 31.207031 39.09375 32.144531 Z M 39.09375 32.144531 "/>
<path style=" stroke:none;fill-rule:nonzero;fill:url(#linear15);" d="M 8.230469 41.816406 C 8.238281 42.515625 7.871094 43.160156 7.265625 43.511719 C 6.660156 43.863281 5.914062 43.863281 5.308594 43.511719 C 4.707031 43.160156 4.335938 42.515625 4.34375 41.816406 C 4.335938 41.121094 4.707031 40.476562 5.308594 40.125 C 5.914062 39.773438 6.660156 39.773438 7.265625 40.125 C 7.871094 40.476562 8.238281 41.121094 8.230469 41.816406 Z M 8.230469 41.816406 "/>
<path style=" stroke:none;fill-rule:nonzero;fill:url(#linear16);" d="M 27.511719 45.761719 C 27.523438 46.511719 27.125 47.207031 26.472656 47.585938 C 25.824219 47.960938 25.019531 47.960938 24.367188 47.585938 C 23.71875 47.207031 23.320312 46.511719 23.328125 45.761719 C 23.320312 45.011719 23.71875 44.316406 24.367188 43.9375 C 25.019531 43.5625 25.824219 43.5625 26.472656 43.9375 C 27.125 44.316406 27.523438 45.011719 27.511719 45.761719 Z M 27.511719 45.761719 "/>
<path style=" stroke:none;fill-rule:nonzero;fill:url(#linear17);" d="M 23.851562 34.453125 C 23.863281 35.414062 23.351562 36.308594 22.515625 36.796875 C 21.679688 37.28125 20.644531 37.28125 19.808594 36.796875 C 18.96875 36.308594 18.460938 35.414062 18.46875 34.453125 C 18.460938 33.488281 18.96875 32.59375 19.808594 32.109375 C 20.644531 31.621094 21.679688 31.621094 22.515625 32.109375 C 23.351562 32.59375 23.863281 33.488281 23.851562 34.453125 Z M 23.851562 34.453125 "/>
<path style=" stroke:none;fill-rule:nonzero;fill:url(#linear18);" d="M 27.363281 22.472656 C 27.371094 23.167969 27.003906 23.8125 26.398438 24.164062 C 25.792969 24.515625 25.046875 24.515625 24.445312 24.164062 C 23.839844 23.8125 23.472656 23.167969 23.480469 22.472656 C 23.472656 21.773438 23.839844 21.128906 24.445312 20.777344 C 25.046875 20.425781 25.792969 20.425781 26.398438 20.777344 C 27.003906 21.128906 27.371094 21.773438 27.363281 22.472656 Z M 27.363281 22.472656 "/>
<path style=" stroke:none;fill-rule:nonzero;fill:url(#radial1);" d="M 16.453125 20.089844 C 16.460938 20.894531 16.035156 21.640625 15.339844 22.042969 C 14.640625 22.449219 13.78125 22.449219 13.082031 22.042969 C 12.386719 21.640625 11.960938 20.894531 11.96875 20.089844 C 11.960938 19.289062 12.386719 18.542969 13.082031 18.136719 C 13.78125 17.734375 14.640625 17.734375 15.339844 18.136719 C 16.035156 18.542969 16.460938 19.289062 16.453125 20.089844 Z M 16.453125 20.089844 "/>
<path style=" stroke:none;fill-rule:nonzero;fill:url(#radial2);" d="M 27.363281 22.472656 C 27.371094 23.167969 27.003906 23.8125 26.398438 24.164062 C 25.792969 24.515625 25.046875 24.515625 24.445312 24.164062 C 23.839844 23.8125 23.472656 23.167969 23.480469 22.472656 C 23.472656 21.773438 23.839844 21.128906 24.445312 20.777344 C 25.046875 20.425781 25.792969 20.425781 26.398438 20.777344 C 27.003906 21.128906 27.371094 21.773438 27.363281 22.472656 Z M 27.363281 22.472656 "/>
<path style=" stroke:none;fill-rule:nonzero;fill:url(#radial3);" d="M 14.511719 31.101562 C 14.515625 31.800781 14.148438 32.445312 13.542969 32.796875 C 12.941406 33.144531 12.191406 33.144531 11.589844 32.796875 C 10.984375 32.445312 10.617188 31.800781 10.625 31.101562 C 10.617188 30.40625 10.984375 29.757812 11.589844 29.410156 C 12.191406 29.058594 12.941406 29.058594 13.542969 29.410156 C 14.148438 29.757812 14.515625 30.40625 14.511719 31.101562 Z M 14.511719 31.101562 "/>
<path style=" stroke:none;fill-rule:nonzero;fill:url(#radial4);" d="M 23.851562 34.453125 C 23.863281 35.414062 23.351562 36.308594 22.515625 36.796875 C 21.679688 37.28125 20.644531 37.28125 19.808594 36.796875 C 18.96875 36.308594 18.460938 35.414062 18.46875 34.453125 C 18.460938 33.488281 18.96875 32.59375 19.808594 32.109375 C 20.644531 31.621094 21.679688 31.621094 22.515625 32.109375 C 23.351562 32.59375 23.863281 33.488281 23.851562 34.453125 Z M 23.851562 34.453125 "/>
<path style=" stroke:none;fill-rule:nonzero;fill:url(#radial5);" d="M 38.121094 19.71875 C 38.132812 20.601562 37.664062 21.421875 36.898438 21.867188 C 36.128906 22.3125 35.183594 22.3125 34.414062 21.867188 C 33.648438 21.421875 33.179688 20.601562 33.1875 19.71875 C 33.179688 18.835938 33.648438 18.015625 34.414062 17.570312 C 35.183594 17.125 36.128906 17.125 36.898438 17.570312 C 37.664062 18.015625 38.132812 18.835938 38.121094 19.71875 Z M 38.121094 19.71875 "/>
<path style=" stroke:none;fill-rule:nonzero;fill:url(#radial6);" d="M 39.09375 32.144531 C 39.105469 33.082031 38.605469 33.953125 37.792969 34.425781 C 36.980469 34.894531 35.976562 34.894531 35.160156 34.425781 C 34.347656 33.953125 33.851562 33.082031 33.863281 32.144531 C 33.851562 31.207031 34.347656 30.335938 35.160156 29.867188 C 35.976562 29.394531 36.980469 29.394531 37.792969 29.867188 C 38.605469 30.335938 39.105469 31.207031 39.09375 32.144531 Z M 39.09375 32.144531 "/>
<path style=" stroke:none;fill-rule:nonzero;fill:url(#radial7);" d="M 42.613281 42.117188 C 42.617188 42.8125 42.25 43.457031 41.644531 43.808594 C 41.042969 44.160156 40.292969 44.160156 39.691406 43.808594 C 39.085938 43.457031 38.71875 42.8125 38.726562 42.117188 C 38.71875 41.417969 39.085938 40.773438 39.691406 40.421875 C 40.292969 40.070312 41.042969 40.070312 41.644531 40.421875 C 42.25 40.773438 42.617188 41.417969 42.613281 42.117188 Z M 42.613281 42.117188 "/>
<path style=" stroke:none;fill-rule:nonzero;fill:url(#radial8);" d="M 8.230469 41.816406 C 8.238281 42.515625 7.871094 43.160156 7.265625 43.511719 C 6.660156 43.863281 5.914062 43.863281 5.308594 43.511719 C 4.707031 43.160156 4.335938 42.515625 4.34375 41.816406 C 4.335938 41.121094 4.707031 40.476562 5.308594 40.125 C 5.914062 39.773438 6.660156 39.773438 7.265625 40.125 C 7.871094 40.476562 8.238281 41.121094 8.230469 41.816406 Z M 8.230469 41.816406 "/>
<path style=" stroke:none;fill-rule:nonzero;fill:url(#radial9);" d="M 27.511719 45.761719 C 27.523438 46.511719 27.125 47.207031 26.472656 47.585938 C 25.824219 47.960938 25.019531 47.960938 24.367188 47.585938 C 23.71875 47.207031 23.320312 46.511719 23.328125 45.761719 C 23.320312 45.011719 23.71875 44.316406 24.367188 43.9375 C 25.019531 43.5625 25.824219 43.5625 26.472656 43.9375 C 27.125 44.316406 27.523438 45.011719 27.511719 45.761719 Z M 27.511719 45.761719 "/>
<path style=" stroke:none;fill-rule:nonzero;fill:url(#radial10);" d="M 5.464844 57.371094 C 5.472656 58.199219 5.035156 58.96875 4.316406 59.390625 C 3.59375 59.804688 2.703125 59.804688 1.984375 59.390625 C 1.261719 58.96875 0.820312 58.199219 0.832031 57.371094 C 0.820312 56.539062 1.261719 55.769531 1.984375 55.351562 C 2.703125 54.933594 3.59375 54.933594 4.316406 55.351562 C 5.035156 55.769531 5.472656 56.539062 5.464844 57.371094 Z M 5.464844 57.371094 "/>
<path style=" stroke:none;fill-rule:nonzero;fill:url(#radial11);" d="M 48.882812 57.222656 C 48.894531 58.050781 48.453125 58.820312 47.734375 59.238281 C 47.011719 59.65625 46.121094 59.65625 45.402344 59.238281 C 44.683594 58.820312 44.242188 58.050781 44.25 57.222656 C 44.242188 56.390625 44.683594 55.621094 45.402344 55.203125 C 46.121094 54.785156 47.011719 54.785156 47.734375 55.203125 C 48.453125 55.621094 48.894531 56.390625 48.882812 57.222656 Z M 48.882812 57.222656 "/>
<path style=" stroke:none;fill-rule:nonzero;fill:url(#linear19);" d="M 27.417969 4.722656 C 27.390625 5.128906 28.234375 6.464844 28.007812 6.800781 C 27.777344 7.140625 26.21875 6.878906 25.855469 7.058594 C 25.484375 7.242188 24.742188 8.632812 24.339844 8.605469 C 23.929688 8.578125 23.378906 7.101562 23.035156 6.875 C 22.695312 6.648438 21.113281 6.707031 20.933594 6.339844 C 20.75 5.976562 21.761719 4.761719 21.789062 4.355469 C 21.816406 3.949219 20.972656 2.613281 21.199219 2.273438 C 21.429688 1.933594 22.988281 2.199219 23.351562 2.019531 C 23.722656 1.835938 24.464844 0.445312 24.867188 0.472656 C 25.28125 0.5 25.828125 1.976562 26.171875 2.203125 C 26.511719 2.429688 28.09375 2.371094 28.273438 2.738281 C 28.453125 3.101562 27.445312 4.316406 27.417969 4.722656 Z M 27.417969 4.722656 "/>
<path style=" stroke:none;fill-rule:nonzero;fill:rgb(0%,0%,0%);fill-opacity:0.341176;" d="M 23.136719 60.589844 L 23.117188 61.179688 C 24.152344 62.128906 25.777344 62.652344 26.632812 62.625 L 26.566406 60.554688 C 25.703125 60.683594 23.339844 60.628906 23.136719 60.589844 Z M 23.136719 60.589844 "/>
</g>
</svg>
