<?xml version="1.0" encoding="UTF-8"?>
<svg xmlns="http://www.w3.org/2000/svg" xmlns:xlink="http://www.w3.org/1999/xlink" width="37pt" height="58pt" viewBox="0 0 37 58" version="1.1">
<g id="surface1">
<path style=" stroke:none;fill-rule:nonzero;fill:rgb(100%,41.568627%,61.568627%);fill-opacity:1;" d="M 0 52.960938 L 18.296875 4.453125 L 36.953125 52.78125 C 24.636719 59.050781 12.316406 60.457031 0 52.960938 Z M 0 52.960938 "/>
<path style=" stroke:none;fill-rule:nonzero;fill:rgb(100%,98.823529%,76.078431%);fill-opacity:1;" d="M 23.019531 29.011719 C 22.882812 29.148438 19.742188 27.332031 19.550781 27.359375 C 19.359375 27.390625 16.941406 30.074219 16.773438 29.988281 C 16.601562 29.902344 17.382812 26.398438 17.296875 26.230469 C 17.210938 26.058594 13.871094 24.628906 13.898438 24.4375 C 13.929688 24.253906 17.554688 23.902344 17.691406 23.769531 C 17.828125 23.636719 18.183594 20.066406 18.371094 20.035156 C 18.5625 20.007812 20.019531 23.292969 20.191406 23.378906 C 20.363281 23.464844 23.917969 22.695312 24.007812 22.863281 C 24.09375 23.03125 21.371094 25.414062 21.339844 25.597656 C 21.308594 25.785156 23.15625 28.878906 23.019531 29.011719 Z M 23.019531 29.011719 "/>
<path style=" stroke:none;fill-rule:nonzero;fill:rgb(76.078431%,94.117647%,100%);fill-opacity:1;" d="M 10.574219 47.398438 C 10.46875 47.445312 9.089844 45.8125 8.976562 45.792969 C 8.863281 45.769531 6.96875 46.789062 6.890625 46.707031 C 6.8125 46.625 7.964844 44.828125 7.949219 44.714844 C 7.9375 44.605469 6.367188 43.144531 6.421875 43.046875 C 6.476562 42.949219 8.570312 43.472656 8.671875 43.421875 C 8.777344 43.375 9.703125 41.453125 9.8125 41.476562 C 9.925781 41.496094 10.066406 43.617188 10.144531 43.699219 C 10.222656 43.78125 12.363281 44.054688 12.378906 44.167969 C 12.394531 44.277344 10.386719 45.066406 10.332031 45.164062 C 10.277344 45.261719 10.675781 47.351562 10.574219 47.398438 Z M 10.574219 47.398438 "/>
<path style=" stroke:none;fill-rule:nonzero;fill:rgb(100%,98.823529%,76.078431%);fill-opacity:1;" d="M 18.441406 50.058594 C 18.265625 50.03125 17.921875 46.71875 17.792969 46.59375 C 17.664062 46.46875 14.296875 46.160156 14.269531 45.988281 C 14.238281 45.8125 17.332031 44.46875 17.414062 44.3125 C 17.496094 44.152344 16.753906 40.902344 16.910156 40.824219 C 17.070312 40.742188 19.324219 43.226562 19.503906 43.25 C 19.679688 43.277344 22.589844 41.578125 22.714844 41.703125 C 22.84375 41.828125 21.144531 44.707031 21.171875 44.878906 C 21.199219 45.054688 23.742188 47.253906 23.660156 47.410156 C 23.582031 47.566406 20.273438 46.863281 20.113281 46.945312 C 19.957031 47.027344 18.617188 50.085938 18.441406 50.058594 Z M 18.441406 50.058594 "/>
<path style=" stroke:none;fill-rule:nonzero;fill:rgb(78.039216%,100%,76.078431%);fill-opacity:1;" d="M 13.5 37.136719 C 13.457031 37.199219 12.128906 36.726562 12.058594 36.753906 C 11.988281 36.777344 11.261719 37.96875 11.191406 37.949219 C 11.121094 37.929688 11.164062 36.539062 11.117188 36.480469 C 11.070312 36.421875 9.695312 36.113281 9.691406 36.039062 C 9.691406 35.964844 11.046875 35.574219 11.089844 35.515625 C 11.132812 35.453125 11.003906 34.070312 11.074219 34.042969 C 11.148438 34.019531 11.941406 35.167969 12.011719 35.191406 C 12.085938 35.210938 13.382812 34.664062 13.429688 34.722656 C 13.476562 34.78125 12.609375 35.882812 12.613281 35.957031 C 12.613281 36.027344 13.542969 37.078125 13.5 37.136719 Z M 13.5 37.136719 "/>
<path style=" stroke:none;fill-rule:nonzero;fill:rgb(76.078431%,99.215686%,100%);fill-opacity:1;" d="M 29.566406 37.535156 C 29.574219 37.648438 27.523438 38.316406 27.464844 38.410156 C 27.402344 38.503906 27.671875 40.613281 27.566406 40.65625 C 27.460938 40.695312 26.179688 38.984375 26.070312 38.957031 C 25.960938 38.929688 24.007812 39.832031 23.933594 39.746094 C 23.859375 39.660156 25.121094 37.933594 25.113281 37.820312 C 25.105469 37.710938 23.628906 36.160156 23.691406 36.0625 C 23.75 35.96875 25.804688 36.613281 25.914062 36.574219 C 26.019531 36.53125 27.058594 34.671875 27.171875 34.699219 C 27.28125 34.726562 27.292969 36.851562 27.363281 36.9375 C 27.4375 37.023438 29.558594 37.421875 29.566406 37.535156 Z M 29.566406 37.535156 "/>
<path style=" stroke:none;fill-rule:nonzero;fill:rgb(76.078431%,94.117647%,100%);fill-opacity:1;" d="M 30.828125 51.386719 C 30.8125 51.5 28.671875 51.765625 28.59375 51.84375 C 28.511719 51.925781 28.363281 54.046875 28.25 54.070312 C 28.140625 54.089844 27.222656 52.164062 27.117188 52.117188 C 27.015625 52.070312 24.921875 52.582031 24.867188 52.484375 C 24.8125 52.386719 26.386719 50.933594 26.402344 50.820312 C 26.417969 50.707031 25.273438 48.90625 25.351562 48.824219 C 25.429688 48.742188 27.320312 49.769531 27.429688 49.75 C 27.542969 49.726562 28.929688 48.101562 29.035156 48.148438 C 29.136719 48.195312 28.730469 50.285156 28.785156 50.382812 C 28.839844 50.480469 30.84375 51.277344 30.828125 51.386719 Z M 30.828125 51.386719 "/>
<path style=" stroke:none;fill-rule:nonzero;fill:rgb(78.039216%,100%,76.078431%);fill-opacity:1;" d="M 11.367188 54.808594 C 11.289062 54.808594 10.949219 53.457031 10.890625 53.414062 C 10.832031 53.367188 9.417969 53.4375 9.398438 53.367188 C 9.375 53.296875 10.574219 52.5625 10.597656 52.492188 C 10.621094 52.421875 10.121094 51.121094 10.179688 51.078125 C 10.242188 51.035156 11.324219 51.929688 11.398438 51.933594 C 11.472656 51.933594 12.574219 51.0625 12.632812 51.105469 C 12.691406 51.148438 12.164062 52.4375 12.183594 52.507812 C 12.207031 52.578125 13.390625 53.339844 13.367188 53.410156 C 13.34375 53.480469 11.933594 53.382812 11.871094 53.421875 C 11.8125 53.464844 11.441406 54.808594 11.367188 54.808594 Z M 11.367188 54.808594 "/>
<path style=" stroke:none;fill-rule:nonzero;fill:rgb(78.039216%,100%,76.078431%);fill-opacity:1;" d="M 27.515625 46.027344 C 27.449219 45.996094 27.722656 44.632812 27.6875 44.566406 C 27.652344 44.503906 26.34375 43.976562 26.355469 43.902344 C 26.363281 43.828125 27.765625 43.664062 27.816406 43.609375 C 27.871094 43.558594 27.976562 42.171875 28.046875 42.15625 C 28.121094 42.144531 28.714844 43.40625 28.785156 43.4375 C 28.851562 43.46875 30.222656 43.140625 30.257812 43.203125 C 30.292969 43.269531 29.257812 44.214844 29.25 44.289062 C 29.238281 44.359375 29.980469 45.542969 29.929688 45.597656 C 29.878906 45.648438 28.644531 44.972656 28.570312 44.988281 C 28.496094 45 27.585938 46.0625 27.515625 46.027344 Z M 27.515625 46.027344 "/>
<path style=" stroke:none;fill-rule:nonzero;fill:rgb(78.039216%,100%,76.078431%);fill-opacity:1;" d="M 18.808594 35.5625 C 18.738281 35.53125 19.011719 34.164062 18.976562 34.101562 C 18.941406 34.035156 17.632812 33.507812 17.644531 33.433594 C 17.652344 33.363281 19.054688 33.195312 19.109375 33.144531 C 19.160156 33.089844 19.265625 31.703125 19.339844 31.691406 C 19.410156 31.675781 20.007812 32.9375 20.074219 32.96875 C 20.140625 33.003906 21.511719 32.671875 21.546875 32.738281 C 21.582031 32.800781 20.546875 33.746094 20.539062 33.820312 C 20.527344 33.894531 21.273438 35.078125 21.21875 35.128906 C 21.167969 35.183594 19.933594 34.507812 19.859375 34.519531 C 19.789062 34.53125 18.875 35.59375 18.808594 35.5625 Z M 18.808594 35.5625 "/>
<path style=" stroke:none;fill-rule:nonzero;fill:rgb(57.647059%,100%,67.45098%);fill-opacity:1;" d="M 25.988281 7.945312 C 25.988281 12.332031 22.375 15.890625 17.917969 15.890625 C 13.460938 15.890625 9.847656 12.332031 9.847656 7.945312 C 9.847656 3.558594 13.460938 0 17.917969 0 C 22.375 0 25.988281 3.558594 25.988281 7.945312 Z M 25.988281 7.945312 "/>
</g>
</svg>
