<?xml version="1.0" encoding="UTF-8"?>
<svg xmlns="http://www.w3.org/2000/svg" xmlns:xlink="http://www.w3.org/1999/xlink" width="6pt" height="5pt" viewBox="0 0 6 5" version="1.1">
<defs>
<linearGradient id="linear0" gradientUnits="userSpaceOnUse" x1="2.6377" y1="7.7998" x2="39.863" y2="7.7998" gradientTransform="matrix(0.132503,0,0,0.121814,0.0313548,-0.00109632)">
<stop offset="0" style="stop-color:rgb(72.156863%,83.921569%,22.745098%);stop-opacity:1;"/>
<stop offset="0.4902" style="stop-color:rgb(65.490196%,78.039216%,25.098039%);stop-opacity:1;"/>
<stop offset="0.9333" style="stop-color:rgb(72.156863%,83.921569%,22.745098%);stop-opacity:1;"/>
<stop offset="1" style="stop-color:rgb(72.156863%,83.921569%,22.745098%);stop-opacity:1;"/>
</linearGradient>
<linearGradient id="linear1" gradientUnits="userSpaceOnUse" x1="0" y1="8.4746" x2="44" y2="8.4746" gradientTransform="matrix(0.132503,0,0,0.121814,0.0313548,-0.00109632)">
<stop offset="0" style="stop-color:rgb(86.27451%,40%,27.843137%);stop-opacity:1;"/>
<stop offset="0.4902" style="stop-color:rgb(84.313725%,32.941176%,10.588235%);stop-opacity:1;"/>
<stop offset="1" style="stop-color:rgb(84.705882%,43.529412%,35.294118%);stop-opacity:1;"/>
</linearGradient>
<linearGradient id="linear2" gradientUnits="userSpaceOnUse" x1="16.896" y1="-30.724" x2="23.051" y2="-30.724" gradientTransform="matrix(0.0296012,0.118732,-0.129151,0.0272132,0.0312962,-0.00109632)">
<stop offset="0" style="stop-color:rgb(61.176471%,20.392157%,4.313725%);stop-opacity:1;"/>
<stop offset="1" style="stop-color:rgb(45.490196%,14.117647%,4.313725%);stop-opacity:1;"/>
</linearGradient>
<linearGradient id="linear3" gradientUnits="userSpaceOnUse" x1="16.741" y1="-34.173" x2="36.091" y2="-34.173" gradientTransform="matrix(0.00000684777,0.121814,-0.132503,-0.000121814,0.0314012,-0.00109632)">
<stop offset="0" style="stop-color:rgb(61.176471%,20.392157%,4.313725%);stop-opacity:1;"/>
<stop offset="1" style="stop-color:rgb(45.490196%,14.117647%,4.313725%);stop-opacity:1;"/>
</linearGradient>
<linearGradient id="linear4" gradientUnits="userSpaceOnUse" x1="16.334" y1="-41.147" x2="36.384" y2="-41.147" gradientTransform="matrix(0.0000066086,0.121814,-0.132503,-0.000121814,0.0313886,-0.00109632)">
<stop offset="0" style="stop-color:rgb(46.27451%,53.333333%,16.862745%);stop-opacity:1;"/>
<stop offset="1" style="stop-color:rgb(32.156863%,38.823529%,12.941176%);stop-opacity:1;"/>
</linearGradient>
<linearGradient id="linear5" gradientUnits="userSpaceOnUse" x1="8.8022" y1="14.639" x2="22.932" y2="14.639" gradientTransform="matrix(0.124023,-0.0428906,0.0466546,0.114018,0.0313128,-0.00109632)">
<stop offset="0" style="stop-color:rgb(100%,85.882353%,36.862745%);stop-opacity:1;"/>
<stop offset="0.4902" style="stop-color:rgb(100%,84.705882%,29.019608%);stop-opacity:1;"/>
<stop offset="0.9804" style="stop-color:rgb(83.137255%,66.27451%,6.666667%);stop-opacity:1;"/>
<stop offset="1" style="stop-color:rgb(83.137255%,66.27451%,6.666667%);stop-opacity:1;"/>
</linearGradient>
<linearGradient id="linear6" gradientUnits="userSpaceOnUse" x1="4.3013" y1="-27.256" x2="7.8521" y2="-27.256" gradientTransform="matrix(0.00279581,0.121789,-0.132477,0.00257026,0.0313985,-0.00109632)">
<stop offset="0" style="stop-color:rgb(85.098039%,68.235294%,6.666667%);stop-opacity:1;"/>
<stop offset="0.4902" style="stop-color:rgb(100%,84.705882%,29.019608%);stop-opacity:1;"/>
<stop offset="0.7804" style="stop-color:rgb(83.137255%,66.27451%,6.666667%);stop-opacity:1;"/>
<stop offset="1" style="stop-color:rgb(72.156863%,57.254902%,5.490196%);stop-opacity:1;"/>
</linearGradient>
<linearGradient id="linear7" gradientUnits="userSpaceOnUse" x1="2.6377" y1="6.2998" x2="39.863" y2="6.2998" gradientTransform="matrix(0.132503,0,0,0.121814,0.0313548,-0.00109632)">
<stop offset="0" style="stop-color:rgb(72.156863%,83.921569%,22.745098%);stop-opacity:1;"/>
<stop offset="0.4902" style="stop-color:rgb(65.490196%,78.039216%,25.098039%);stop-opacity:1;"/>
<stop offset="0.9333" style="stop-color:rgb(72.156863%,83.921569%,22.745098%);stop-opacity:1;"/>
<stop offset="1" style="stop-color:rgb(72.156863%,83.921569%,22.745098%);stop-opacity:1;"/>
</linearGradient>
<linearGradient id="linear8" gradientUnits="userSpaceOnUse" x1="13.494" y1="3.6138" x2="35.329" y2="3.6138" gradientTransform="matrix(0.130317,0.0220361,-0.0239699,0.119804,0.0313235,-0.00109632)">
<stop offset="0" style="stop-color:rgb(100%,85.882353%,36.862745%);stop-opacity:1;"/>
<stop offset="0.4902" style="stop-color:rgb(100%,84.705882%,29.019608%);stop-opacity:1;"/>
<stop offset="0.7804" style="stop-color:rgb(83.137255%,66.27451%,6.666667%);stop-opacity:1;"/>
<stop offset="1" style="stop-color:rgb(72.156863%,57.254902%,5.490196%);stop-opacity:1;"/>
</linearGradient>
<linearGradient id="linear9" gradientUnits="userSpaceOnUse" x1="11.887" y1="-35.252" x2="36.04" y2="-35.252" gradientTransform="matrix(0.0019213,0.121801,-0.13249,0.0017663,0.0313821,-0.00109632)">
<stop offset="0" style="stop-color:rgb(85.098039%,68.235294%,6.666667%);stop-opacity:1;"/>
<stop offset="0.4902" style="stop-color:rgb(100%,84.705882%,29.019608%);stop-opacity:1;"/>
<stop offset="0.7804" style="stop-color:rgb(83.137255%,66.27451%,6.666667%);stop-opacity:1;"/>
<stop offset="1" style="stop-color:rgb(72.156863%,57.254902%,5.490196%);stop-opacity:1;"/>
</linearGradient>
<linearGradient id="linear10" gradientUnits="userSpaceOnUse" x1="23.338" y1="5.5752" x2="30.463" y2="5.5752" gradientTransform="matrix(0.132503,0,0,0.121814,0.0313548,-0.00109632)">
<stop offset="0" style="stop-color:rgb(45.882353%,38.823529%,12.941176%);stop-opacity:1;"/>
<stop offset="0.7804" style="stop-color:rgb(83.137255%,66.27451%,6.666667%);stop-opacity:1;"/>
<stop offset="1" style="stop-color:rgb(72.156863%,57.254902%,5.490196%);stop-opacity:1;"/>
</linearGradient>
<linearGradient id="linear11" gradientUnits="userSpaceOnUse" x1="5.8105" y1="-21.856" x2="9.8112" y2="-21.856" gradientTransform="matrix(0.00247781,0.121789,-0.132477,0.00227791,0.0313776,-0.00109632)">
<stop offset="0" style="stop-color:rgb(85.098039%,68.235294%,6.666667%);stop-opacity:1;"/>
<stop offset="0.4902" style="stop-color:rgb(100%,84.705882%,29.019608%);stop-opacity:1;"/>
<stop offset="0.7804" style="stop-color:rgb(83.137255%,66.27451%,6.666667%);stop-opacity:1;"/>
<stop offset="1" style="stop-color:rgb(72.156863%,57.254902%,5.490196%);stop-opacity:1;"/>
</linearGradient>
<linearGradient id="linear12" gradientUnits="userSpaceOnUse" x1="18.163" y1="3.6499" x2="22.638" y2="3.6499" gradientTransform="matrix(0.132503,0,0,0.121814,0.0313548,-0.00109632)">
<stop offset="0" style="stop-color:rgb(45.882353%,38.823529%,12.941176%);stop-opacity:1;"/>
<stop offset="0.7804" style="stop-color:rgb(83.137255%,66.27451%,6.666667%);stop-opacity:1;"/>
<stop offset="1" style="stop-color:rgb(72.156863%,57.254902%,5.490196%);stop-opacity:1;"/>
</linearGradient>
<linearGradient id="linear13" gradientUnits="userSpaceOnUse" x1="0.7251" y1="-20.945" x2="5.8011" y2="-20.945" gradientTransform="matrix(0.00261032,0.121789,-0.132477,0.00239973,0.0313564,-0.00109632)">
<stop offset="0" style="stop-color:rgb(85.098039%,68.235294%,6.666667%);stop-opacity:1;"/>
<stop offset="0.4902" style="stop-color:rgb(100%,84.705882%,29.019608%);stop-opacity:1;"/>
<stop offset="0.7804" style="stop-color:rgb(83.137255%,66.27451%,6.666667%);stop-opacity:1;"/>
<stop offset="1" style="stop-color:rgb(72.156863%,57.254902%,5.490196%);stop-opacity:1;"/>
</linearGradient>
<linearGradient id="linear14" gradientUnits="userSpaceOnUse" x1="4.0059" y1="-17.394" x2="7.4567" y2="-17.394" gradientTransform="matrix(0.00287531,0.121789,-0.132477,0.00264337,0.0313733,-0.00109632)">
<stop offset="0" style="stop-color:rgb(85.098039%,68.235294%,6.666667%);stop-opacity:1;"/>
<stop offset="0.4902" style="stop-color:rgb(100%,84.705882%,29.019608%);stop-opacity:1;"/>
<stop offset="0.7804" style="stop-color:rgb(83.137255%,66.27451%,6.666667%);stop-opacity:1;"/>
<stop offset="1" style="stop-color:rgb(72.156863%,57.254902%,5.490196%);stop-opacity:1;"/>
</linearGradient>
<linearGradient id="linear15" gradientUnits="userSpaceOnUse" x1="2.6377" y1="5.1504" x2="39.863" y2="5.1504" gradientTransform="matrix(0.132503,0,0,0.121814,0.0313548,-0.00109632)">
<stop offset="0" style="stop-color:rgb(72.156863%,83.921569%,22.745098%);stop-opacity:1;"/>
<stop offset="0.4902" style="stop-color:rgb(65.490196%,78.039216%,25.098039%);stop-opacity:1;"/>
<stop offset="0.9333" style="stop-color:rgb(72.156863%,83.921569%,22.745098%);stop-opacity:1;"/>
<stop offset="1" style="stop-color:rgb(72.156863%,83.921569%,22.745098%);stop-opacity:1;"/>
</linearGradient>
<linearGradient id="linear16" gradientUnits="userSpaceOnUse" x1="2.6377" y1="11.375" x2="39.863" y2="11.375" gradientTransform="matrix(0.132503,0,0,0.121814,0.0313548,-0.00109632)">
<stop offset="0" style="stop-color:rgb(72.156863%,83.921569%,22.745098%);stop-opacity:1;"/>
<stop offset="0.4902" style="stop-color:rgb(65.490196%,78.039216%,25.098039%);stop-opacity:1;"/>
<stop offset="0.9333" style="stop-color:rgb(72.156863%,83.921569%,22.745098%);stop-opacity:1;"/>
<stop offset="1" style="stop-color:rgb(72.156863%,83.921569%,22.745098%);stop-opacity:1;"/>
</linearGradient>
<linearGradient id="linear17" gradientUnits="userSpaceOnUse" x1="2.6377" y1="9.625" x2="39.863" y2="9.625" gradientTransform="matrix(0.132503,0,0,0.121814,0.0313548,-0.00109632)">
<stop offset="0" style="stop-color:rgb(72.156863%,83.921569%,22.745098%);stop-opacity:1;"/>
<stop offset="0.4902" style="stop-color:rgb(65.490196%,78.039216%,25.098039%);stop-opacity:1;"/>
<stop offset="0.9333" style="stop-color:rgb(72.156863%,83.921569%,22.745098%);stop-opacity:1;"/>
<stop offset="1" style="stop-color:rgb(72.156863%,83.921569%,22.745098%);stop-opacity:1;"/>
</linearGradient>
<linearGradient id="linear18" gradientUnits="userSpaceOnUse" x1="10.134" y1="-13.902" x2="15.784" y2="-13.902" gradientTransform="matrix(-0.0123096,0.12129,-0.131934,-0.0113165,0.0312367,-0.00109632)">
<stop offset="0" style="stop-color:rgb(86.666667%,36.078431%,16.078431%);stop-opacity:1;"/>
<stop offset="1" style="stop-color:rgb(73.333333%,28.627451%,10.980392%);stop-opacity:1;"/>
</linearGradient>
<linearGradient id="linear19" gradientUnits="userSpaceOnUse" x1="18.782" y1="-20.872" x2="39.574" y2="-20.872" gradientTransform="matrix(0.00541939,0.121716,-0.132397,0.00498219,0.031312,-0.00109632)">
<stop offset="0" style="stop-color:rgb(69.019608%,80%,20%);stop-opacity:1;"/>
<stop offset="1" style="stop-color:rgb(50.196078%,58.039216%,21.176471%);stop-opacity:1;"/>
</linearGradient>
<linearGradient id="linear20" gradientUnits="userSpaceOnUse" x1="16.821" y1="-17.001" x2="34.908" y2="-17.001" gradientTransform="matrix(-0.0129986,0.121229,-0.131867,-0.0119499,0.0314588,-0.00109632)">
<stop offset="0" style="stop-color:rgb(77.254902%,29.803922%,8.235294%);stop-opacity:1;"/>
<stop offset="1" style="stop-color:rgb(63.529412%,21.568627%,4.705882%);stop-opacity:1;"/>
</linearGradient>
<linearGradient id="linear21" gradientUnits="userSpaceOnUse" x1="16.345" y1="-30.498" x2="36.395" y2="-30.498" gradientTransform="matrix(0.0000066086,0.121814,-0.132503,-0.000121814,0.0313886,-0.00109632)">
<stop offset="0" style="stop-color:rgb(46.27451%,53.333333%,16.862745%);stop-opacity:1;"/>
<stop offset="1" style="stop-color:rgb(32.156863%,38.823529%,12.941176%);stop-opacity:1;"/>
</linearGradient>
<linearGradient id="linear22" gradientUnits="userSpaceOnUse" x1="16.337" y1="-38.61" x2="36.387" y2="-38.61" gradientTransform="matrix(0.0000066086,0.121814,-0.132503,-0.000121814,0.0313886,-0.00109632)">
<stop offset="0" style="stop-color:rgb(46.27451%,53.333333%,16.862745%);stop-opacity:1;"/>
<stop offset="1" style="stop-color:rgb(32.156863%,38.823529%,12.941176%);stop-opacity:1;"/>
</linearGradient>
<linearGradient id="linear23" gradientUnits="userSpaceOnUse" x1="16.341" y1="-32.723" x2="36.391" y2="-32.723" gradientTransform="matrix(0.0000066086,0.121814,-0.132503,-0.000121814,0.0313886,-0.00109632)">
<stop offset="0" style="stop-color:rgb(46.27451%,53.333333%,16.862745%);stop-opacity:1;"/>
<stop offset="1" style="stop-color:rgb(32.156863%,38.823529%,12.941176%);stop-opacity:1;"/>
</linearGradient>
<linearGradient id="linear24" gradientUnits="userSpaceOnUse" x1="14.5" y1="6.125" x2="21.2" y2="6.125" gradientTransform="matrix(0.132503,0,0,0.121814,0.0313548,-0.00109632)">
<stop offset="0" style="stop-color:rgb(45.882353%,38.823529%,12.941176%);stop-opacity:1;"/>
<stop offset="0.7804" style="stop-color:rgb(83.137255%,66.27451%,6.666667%);stop-opacity:1;"/>
<stop offset="1" style="stop-color:rgb(72.156863%,57.254902%,5.490196%);stop-opacity:1;"/>
</linearGradient>
<linearGradient id="linear25" gradientUnits="userSpaceOnUse" x1="2.6875" y1="8.1001" x2="39.912" y2="8.1001" gradientTransform="matrix(0.132503,0,0,0.121814,0.0313548,-0.00109632)">
<stop offset="0" style="stop-color:rgb(72.156863%,83.921569%,22.745098%);stop-opacity:1;"/>
<stop offset="0.4902" style="stop-color:rgb(65.490196%,78.039216%,25.098039%);stop-opacity:1;"/>
<stop offset="0.9333" style="stop-color:rgb(72.156863%,83.921569%,22.745098%);stop-opacity:1;"/>
<stop offset="1" style="stop-color:rgb(72.156863%,83.921569%,22.745098%);stop-opacity:1;"/>
</linearGradient>
<linearGradient id="linear26" gradientUnits="userSpaceOnUse" x1="2.6377" y1="6.8252" x2="39.863" y2="6.8252" gradientTransform="matrix(0.132503,0,0,0.121814,0.0313548,-0.00109632)">
<stop offset="0" style="stop-color:rgb(72.156863%,83.921569%,22.745098%);stop-opacity:1;"/>
<stop offset="0.4902" style="stop-color:rgb(65.490196%,78.039216%,25.098039%);stop-opacity:1;"/>
<stop offset="0.9333" style="stop-color:rgb(72.156863%,83.921569%,22.745098%);stop-opacity:1;"/>
<stop offset="1" style="stop-color:rgb(72.156863%,83.921569%,22.745098%);stop-opacity:1;"/>
</linearGradient>
<linearGradient id="linear27" gradientUnits="userSpaceOnUse" x1="11.806" y1="-12.11" x2="38.186" y2="-12.11" gradientTransform="matrix(0.00263682,0.121789,-0.132477,0.00242409,0.0313262,-0.00109632)">
<stop offset="0" style="stop-color:rgb(85.098039%,68.235294%,6.666667%);stop-opacity:1;"/>
<stop offset="0.4902" style="stop-color:rgb(100%,84.705882%,29.019608%);stop-opacity:1;"/>
<stop offset="0.7804" style="stop-color:rgb(83.137255%,66.27451%,6.666667%);stop-opacity:1;"/>
<stop offset="1" style="stop-color:rgb(72.156863%,57.254902%,5.490196%);stop-opacity:1;"/>
</linearGradient>
<linearGradient id="linear28" gradientUnits="userSpaceOnUse" x1="2.6377" y1="8.9751" x2="39.863" y2="8.9751" gradientTransform="matrix(0.132503,0,0,0.121814,0.0313548,-0.00109632)">
<stop offset="0" style="stop-color:rgb(72.156863%,83.921569%,22.745098%);stop-opacity:1;"/>
<stop offset="0.4902" style="stop-color:rgb(65.490196%,78.039216%,25.098039%);stop-opacity:1;"/>
<stop offset="0.9333" style="stop-color:rgb(72.156863%,83.921569%,22.745098%);stop-opacity:1;"/>
<stop offset="1" style="stop-color:rgb(72.156863%,83.921569%,22.745098%);stop-opacity:1;"/>
</linearGradient>
<linearGradient id="linear29" gradientUnits="userSpaceOnUse" x1="18.78" y1="-3.6982" x2="39.572" y2="-3.6982" gradientTransform="matrix(0.00541939,0.121716,-0.132397,0.00498219,0.031312,-0.00109632)">
<stop offset="0" style="stop-color:rgb(69.019608%,80%,20%);stop-opacity:1;"/>
<stop offset="1" style="stop-color:rgb(50.196078%,58.039216%,21.176471%);stop-opacity:1;"/>
</linearGradient>
<linearGradient id="linear30" gradientUnits="userSpaceOnUse" x1="18.767" y1="-6.5645" x2="39.56" y2="-6.5645" gradientTransform="matrix(0.00541939,0.121716,-0.132397,0.00498219,0.031312,-0.00109632)">
<stop offset="0" style="stop-color:rgb(69.019608%,80%,20%);stop-opacity:1;"/>
<stop offset="1" style="stop-color:rgb(50.196078%,58.039216%,21.176471%);stop-opacity:1;"/>
</linearGradient>
<linearGradient id="linear31" gradientUnits="userSpaceOnUse" x1="18.773" y1="-16.315" x2="39.565" y2="-16.315" gradientTransform="matrix(0.00541939,0.121716,-0.132397,0.00498219,0.031312,-0.00109632)">
<stop offset="0" style="stop-color:rgb(69.019608%,80%,20%);stop-opacity:1;"/>
<stop offset="1" style="stop-color:rgb(50.196078%,58.039216%,21.176471%);stop-opacity:1;"/>
</linearGradient>
<linearGradient id="linear32" gradientUnits="userSpaceOnUse" x1="18.799" y1="-2.9614" x2="39.592" y2="-2.9614" gradientTransform="matrix(0.00541939,0.121716,-0.132397,0.00498219,0.031312,-0.00109632)">
<stop offset="0" style="stop-color:rgb(69.019608%,80%,20%);stop-opacity:1;"/>
<stop offset="1" style="stop-color:rgb(50.196078%,58.039216%,21.176471%);stop-opacity:1;"/>
</linearGradient>
<linearGradient id="linear33" gradientUnits="userSpaceOnUse" x1="18.785" y1="-19.727" x2="39.577" y2="-19.727" gradientTransform="matrix(0.00541939,0.121716,-0.132397,0.00498219,0.031312,-0.00109632)">
<stop offset="0" style="stop-color:rgb(69.019608%,80%,20%);stop-opacity:1;"/>
<stop offset="1" style="stop-color:rgb(50.196078%,58.039216%,21.176471%);stop-opacity:1;"/>
</linearGradient>
<linearGradient id="linear34" gradientUnits="userSpaceOnUse" x1="16.337" y1="-38.647" x2="36.387" y2="-38.647" gradientTransform="matrix(0.0000066086,0.121814,-0.132503,-0.000121814,0.0313886,-0.00109632)">
<stop offset="0" style="stop-color:rgb(46.27451%,53.333333%,16.862745%);stop-opacity:1;"/>
<stop offset="1" style="stop-color:rgb(32.156863%,38.823529%,12.941176%);stop-opacity:1;"/>
</linearGradient>
<linearGradient id="linear35" gradientUnits="userSpaceOnUse" x1="16.345" y1="-30.247" x2="36.395" y2="-30.247" gradientTransform="matrix(0.0000066086,0.121814,-0.132503,-0.000121814,0.0313886,-0.00109632)">
<stop offset="0" style="stop-color:rgb(46.27451%,53.333333%,16.862745%);stop-opacity:1;"/>
<stop offset="1" style="stop-color:rgb(32.156863%,38.823529%,12.941176%);stop-opacity:1;"/>
</linearGradient>
<linearGradient id="linear36" gradientUnits="userSpaceOnUse" x1="16.348" y1="-27.072" x2="36.398" y2="-27.072" gradientTransform="matrix(0.0000066086,0.121814,-0.132503,-0.000121814,0.0313886,-0.00109632)">
<stop offset="0" style="stop-color:rgb(46.27451%,53.333333%,16.862745%);stop-opacity:1;"/>
<stop offset="1" style="stop-color:rgb(32.156863%,38.823529%,12.941176%);stop-opacity:1;"/>
</linearGradient>
<linearGradient id="linear37" gradientUnits="userSpaceOnUse" x1="18.775" y1="-23.447" x2="39.567" y2="-23.447" gradientTransform="matrix(0.00541939,0.121716,-0.132397,0.00498219,0.031312,-0.00109632)">
<stop offset="0" style="stop-color:rgb(69.019608%,80%,20%);stop-opacity:1;"/>
<stop offset="1" style="stop-color:rgb(50.196078%,58.039216%,21.176471%);stop-opacity:1;"/>
</linearGradient>
</defs>
<g id="surface1">
<path style=" stroke:none;fill-rule:evenodd;fill:url(#linear0);" d="M 5.296875 1.039062 L 5.277344 1.046875 L 4.992188 1 L 4.914062 1 L 4.640625 0.96875 C 4.71875 0.96875 4.816406 0.960938 4.941406 0.953125 C 4.949219 0.953125 4.957031 0.949219 4.96875 0.949219 L 4.855469 0.9375 C 4.929688 0.9375 5.023438 0.933594 5.132812 0.925781 L 5.03125 0.90625 C 5.117188 0.90625 5.21875 0.902344 5.332031 0.894531 L 5.25 0.882812 C 5.324219 0.882812 5.40625 0.875 5.503906 0.863281 C 5.542969 0.863281 5.578125 0.863281 5.609375 0.855469 C 5.613281 0.855469 5.617188 0.851562 5.621094 0.851562 L 5.644531 0.855469 L 5.609375 0.875 C 5.59375 0.898438 5.59375 0.910156 5.609375 0.917969 L 5.515625 0.914062 C 5.5 0.933594 5.5 0.949219 5.523438 0.960938 L 5.410156 0.953125 C 5.402344 0.972656 5.40625 0.984375 5.425781 1 L 5.292969 0.984375 L 5.292969 1 C 5.285156 1.011719 5.289062 1.023438 5.296875 1.039062 Z M 5.296875 1.039062 "/>
<path style=" stroke:none;fill-rule:evenodd;fill:url(#linear1);" d="M 4.382812 0.722656 L 5.609375 0.855469 C 5.578125 0.863281 5.542969 0.863281 5.503906 0.863281 C 5.40625 0.875 5.324219 0.882812 5.25 0.882812 L 5.332031 0.894531 C 5.21875 0.902344 5.117188 0.90625 5.03125 0.90625 L 5.132812 0.925781 C 5.023438 0.933594 4.929688 0.9375 4.855469 0.9375 L 4.96875 0.949219 C 4.957031 0.949219 4.949219 0.953125 4.941406 0.953125 C 4.816406 0.960938 4.71875 0.96875 4.640625 0.96875 L 4.914062 1 L 4.78125 1.027344 L 4.914062 1.039062 L 5.039062 1.011719 L 4.992188 1 L 5.277344 1.046875 L 5.03125 1.109375 L 4.21875 0.992188 C 4.246094 0.980469 4.242188 0.972656 4.210938 0.96875 C 4.1875 0.960938 4.160156 0.960938 4.121094 0.96875 C 4.121094 0.960938 4.121094 0.957031 4.125 0.949219 C 4.132812 0.921875 4.132812 0.898438 4.121094 0.882812 C 4.171875 0.867188 4.214844 0.847656 4.246094 0.820312 L 4.273438 0.820312 L 4.257812 0.808594 C 4.265625 0.796875 4.273438 0.785156 4.285156 0.777344 L 4.359375 0.785156 C 4.339844 0.773438 4.339844 0.757812 4.359375 0.742188 Z M 5.644531 0.855469 L 5.863281 0.882812 L 5.296875 1.039062 C 5.289062 1.023438 5.285156 1.011719 5.292969 1 L 5.292969 0.984375 L 5.425781 1 C 5.40625 0.984375 5.402344 0.972656 5.410156 0.953125 L 5.523438 0.960938 C 5.5 0.949219 5.5 0.933594 5.515625 0.914062 L 5.609375 0.917969 C 5.59375 0.910156 5.59375 0.898438 5.609375 0.875 Z M 4.332031 0.71875 L 4.296875 0.722656 L 4.296875 0.71875 Z M 0.648438 1.136719 L 0.714844 1.144531 L 0.699219 1.144531 Z M 0.632812 1.136719 L 0.566406 1.15625 C 0.394531 1.128906 0.214844 1.097656 0.03125 1.070312 C 0.378906 0.988281 0.671875 0.917969 0.914062 0.863281 L 0.984375 0.871094 L 0.871094 0.894531 L 0.992188 0.90625 L 1.109375 0.882812 L 1.351562 0.90625 C 1.332031 0.894531 1.332031 0.878906 1.351562 0.855469 L 1.421875 0.863281 C 1.597656 0.890625 1.761719 0.917969 1.914062 0.941406 L 1.914062 0.960938 C 1.933594 0.964844 1.960938 0.96875 1.984375 0.972656 L 1.886719 0.972656 L 2.078125 1 C 1.816406 1.0625 1.511719 1.140625 1.164062 1.230469 L 1.164062 1.234375 C 1.007812 1.214844 0.851562 1.191406 0.6875 1.167969 L 0.753906 1.15625 L 0.992188 1.1875 C 0.972656 1.171875 0.972656 1.15625 0.992188 1.132812 L 1.109375 1.144531 C 1.097656 1.132812 1.097656 1.117188 1.109375 1.09375 L 1.21875 1.109375 C 1.199219 1.09375 1.199219 1.078125 1.21875 1.058594 L 1.304688 1.066406 C 1.289062 1.054688 1.292969 1.042969 1.316406 1.023438 L 1.371094 1 L 1.363281 1 L 1.222656 1.011719 C 1.132812 1.023438 1.050781 1.027344 0.984375 1.027344 L 1.050781 1.035156 L 1.058594 1.039062 C 0.949219 1.050781 0.851562 1.050781 0.773438 1.050781 L 0.859375 1.066406 C 0.757812 1.074219 0.671875 1.078125 0.601562 1.078125 L 0.699219 1.09375 L 0.394531 1.113281 L 0.523438 1.132812 C 0.546875 1.136719 0.585938 1.136719 0.632812 1.136719 Z M 1.355469 0.757812 L 1.304688 0.773438 L 1.296875 0.773438 C 1.324219 0.765625 1.351562 0.757812 1.375 0.753906 L 1.5 0.730469 L 1.390625 0.753906 L 1.375 0.753906 Z M 3.152344 0.597656 L 3.066406 0.601562 C 3.050781 0.601562 3.042969 0.605469 3.03125 0.609375 C 3.03125 0.597656 3.035156 0.585938 3.039062 0.582031 Z M 2.898438 1.460938 C 2.828125 1.449219 2.75 1.4375 2.667969 1.421875 C 2.5 1.394531 2.34375 1.375 2.195312 1.355469 C 2.355469 1.300781 2.507812 1.25 2.648438 1.210938 C 2.679688 1.222656 2.71875 1.230469 2.765625 1.230469 C 2.976562 1.230469 3.113281 1.222656 3.179688 1.210938 C 3.214844 1.207031 3.253906 1.199219 3.296875 1.1875 L 3.335938 1.1875 L 3.464844 1.164062 L 3.664062 1.1875 L 4.371094 1.285156 L 4.371094 1.289062 C 4.207031 1.335938 4.011719 1.382812 3.789062 1.429688 C 3.558594 1.480469 3.398438 1.511719 3.3125 1.527344 C 3.246094 1.515625 3.144531 1.5 3.007812 1.480469 L 3.125 1.453125 L 3.382812 1.484375 C 3.367188 1.46875 3.367188 1.449219 3.382812 1.421875 L 3.507812 1.4375 C 3.492188 1.421875 3.488281 1.410156 3.503906 1.394531 L 3.609375 1.398438 C 3.589844 1.386719 3.589844 1.371094 3.609375 1.351562 L 3.703125 1.355469 C 3.683594 1.34375 3.6875 1.332031 3.707031 1.316406 C 3.71875 1.304688 3.734375 1.296875 3.753906 1.285156 L 3.609375 1.300781 C 3.507812 1.3125 3.421875 1.316406 3.351562 1.316406 L 3.429688 1.328125 L 3.132812 1.34375 L 3.226562 1.355469 C 3.117188 1.367188 3.027344 1.367188 2.953125 1.367188 L 3.058594 1.386719 L 2.734375 1.40625 L 3 1.4375 Z M 3.152344 0.636719 C 3.179688 0.640625 3.21875 0.65625 3.269531 0.679688 L 3.265625 0.679688 C 3.25 0.675781 3.234375 0.671875 3.21875 0.667969 C 3.195312 0.664062 3.144531 0.664062 3.058594 0.664062 L 3.066406 0.65625 C 3.078125 0.652344 3.09375 0.652344 3.113281 0.652344 L 3.15625 0.652344 C 3.152344 0.644531 3.152344 0.640625 3.152344 0.636719 Z M 3.886719 1.277344 C 3.921875 1.265625 3.921875 1.257812 3.886719 1.253906 C 3.855469 1.25 3.8125 1.25 3.761719 1.261719 C 3.710938 1.269531 3.710938 1.277344 3.753906 1.285156 L 3.773438 1.277344 L 3.761719 1.285156 C 3.792969 1.289062 3.835938 1.285156 3.886719 1.277344 Z M 2.308594 0.566406 L 2.457031 0.535156 C 2.46875 0.535156 2.484375 0.539062 2.496094 0.539062 C 2.507812 0.5625 2.527344 0.578125 2.550781 0.597656 C 2.558594 0.605469 2.570312 0.613281 2.582031 0.621094 C 2.507812 0.632812 2.449219 0.636719 2.410156 0.636719 C 2.363281 0.636719 2.300781 0.632812 2.230469 0.625 C 2.257812 0.597656 2.285156 0.578125 2.308594 0.566406 Z M 1.496094 0.992188 C 1.527344 0.980469 1.527344 0.972656 1.496094 0.96875 C 1.46875 0.960938 1.429688 0.964844 1.375 0.972656 C 1.328125 0.980469 1.324219 0.988281 1.371094 1 L 1.382812 0.992188 L 1.375 1 C 1.429688 1 1.46875 0.996094 1.496094 0.992188 Z M 1.496094 0.992188 "/>
<path style=" stroke:none;fill-rule:evenodd;fill:url(#linear2);" d="M 5.074219 1.125 L 5.863281 0.882812 L 5.863281 1.480469 L 5.703125 1.539062 L 5.007812 1.796875 L 5.007812 1.710938 C 5.011719 1.625 5.019531 1.546875 5.027344 1.472656 C 5.027344 1.449219 5.027344 1.421875 5.03125 1.398438 C 5.039062 1.351562 5.042969 1.304688 5.046875 1.261719 Z M 4.375 1.339844 L 4.402344 2.015625 C 4.15625 2.109375 3.816406 2.242188 3.382812 2.417969 L 3.375 2.417969 L 3.375 1.59375 C 3.769531 1.496094 4.105469 1.414062 4.375 1.339844 Z M 4.375 1.339844 "/>
<path style=" stroke:none;fill-rule:evenodd;fill:rgb(61.960784%,53.333333%,21.960784%);fill-opacity:1;" d="M 5.511719 2.183594 C 5.542969 2.175781 5.558594 2.195312 5.558594 2.238281 C 5.558594 2.285156 5.542969 2.3125 5.511719 2.324219 L 5.511719 2.320312 L 5.503906 2.308594 L 5.503906 2.324219 C 5.496094 2.332031 5.484375 2.332031 5.46875 2.320312 C 5.460938 2.308594 5.457031 2.292969 5.457031 2.277344 C 5.457031 2.230469 5.476562 2.203125 5.511719 2.183594 Z M 3.570312 2.933594 C 3.605469 2.917969 3.621094 2.9375 3.621094 2.988281 C 3.621094 3.03125 3.605469 3.0625 3.570312 3.085938 L 3.570312 3.082031 L 3.5625 3.0625 L 3.5625 3.085938 C 3.53125 3.09375 3.515625 3.078125 3.515625 3.03125 C 3.515625 2.984375 3.535156 2.949219 3.570312 2.933594 Z M 5.027344 3.554688 L 5.027344 3.410156 C 5.027344 3.40625 5.027344 3.402344 5.03125 3.402344 C 5.070312 3.386719 5.085938 3.40625 5.085938 3.457031 C 5.085938 3.503906 5.070312 3.535156 5.03125 3.550781 Z M 4.058594 3.8125 C 4.089844 3.800781 4.105469 3.816406 4.105469 3.867188 C 4.105469 3.914062 4.089844 3.945312 4.054688 3.957031 L 4.054688 3.964844 C 4.019531 3.972656 4 3.953125 4 3.910156 C 4.007812 3.855469 4.027344 3.824219 4.058594 3.8125 Z M 4.058594 3.8125 "/>
<path style=" stroke:none;fill-rule:evenodd;fill:url(#linear3);" d="M 5.710938 3 L 5.710938 4.035156 L 5.320312 4.242188 C 5.230469 4.289062 5.148438 4.328125 5.078125 4.367188 L 5.078125 4.300781 C 5.105469 4.300781 5.132812 4.292969 5.160156 4.28125 L 5.277344 4.214844 C 5.238281 4.195312 5.195312 4.152344 5.152344 4.089844 L 5.246094 4.042969 C 5.210938 4.027344 5.171875 3.992188 5.132812 3.9375 L 5.210938 3.898438 C 5.171875 3.882812 5.132812 3.84375 5.101562 3.78125 L 5.164062 3.75 C 5.128906 3.734375 5.101562 3.699219 5.074219 3.648438 C 5.054688 3.621094 5.042969 3.589844 5.03125 3.550781 L 5.03125 3.554688 C 5.03125 3.558594 5.03125 3.566406 5.027344 3.574219 L 5.027344 3.554688 L 5.03125 3.550781 C 5.070312 3.535156 5.085938 3.503906 5.085938 3.457031 C 5.085938 3.40625 5.070312 3.386719 5.03125 3.402344 C 5.027344 3.402344 5.027344 3.40625 5.027344 3.410156 C 5.019531 2.988281 5.011719 2.640625 5.007812 2.367188 L 5.09375 2.332031 L 5.09375 2.191406 C 5.128906 2.191406 5.15625 2.1875 5.171875 2.179688 L 5.292969 2.125 C 5.25 2.101562 5.210938 2.058594 5.164062 1.996094 L 5.25 1.953125 C 5.222656 1.9375 5.1875 1.90625 5.152344 1.863281 L 5.695312 1.648438 L 5.703125 1.539062 L 5.695312 2.300781 C 5.699219 2.386719 5.703125 2.554688 5.710938 2.808594 C 5.675781 2.789062 5.640625 2.757812 5.609375 2.710938 L 5.683594 2.671875 C 5.648438 2.652344 5.609375 2.613281 5.570312 2.558594 L 5.578125 2.558594 L 5.636719 2.527344 C 5.605469 2.511719 5.574219 2.476562 5.542969 2.421875 L 5.511719 2.332031 L 5.511719 2.324219 L 5.503906 2.324219 L 5.503906 2.332031 C 5.503906 2.34375 5.492188 2.382812 5.46875 2.453125 C 5.441406 2.527344 5.410156 2.585938 5.378906 2.628906 L 5.4375 2.613281 L 5.445312 2.605469 C 5.402344 2.695312 5.367188 2.765625 5.332031 2.8125 L 5.402344 2.789062 C 5.367188 2.871094 5.332031 2.933594 5.296875 2.976562 L 5.382812 2.953125 C 5.339844 3.050781 5.296875 3.125 5.257812 3.179688 C 5.289062 3.175781 5.328125 3.160156 5.378906 3.140625 L 5.457031 3.09375 L 5.457031 3.234375 L 5.558594 3.191406 L 5.558594 3.054688 L 5.636719 3.039062 Z M 5.710938 2.953125 L 5.621094 2.855469 L 5.710938 2.820312 Z M 4.882812 4.457031 C 4.898438 4.449219 4.917969 4.4375 4.941406 4.425781 L 4.980469 4.402344 L 4.980469 4.414062 C 4.945312 4.429688 4.910156 4.445312 4.882812 4.457031 Z M 4.429688 3.53125 L 4.429688 3.5625 C 4.417969 3.917969 4.410156 4.28125 4.410156 4.652344 C 4.296875 4.695312 4.15625 4.757812 3.988281 4.828125 C 3.835938 4.894531 3.667969 4.96875 3.484375 5.046875 C 3.464844 4.6875 3.453125 4.371094 3.445312 4.105469 L 3.445312 4.03125 C 3.4375 4.011719 3.4375 3.992188 3.4375 3.96875 L 3.4375 3.9375 L 3.496094 3.902344 L 3.496094 4.050781 L 3.601562 4.007812 L 3.609375 3.855469 L 3.695312 3.835938 L 3.820312 3.769531 C 3.777344 3.75 3.734375 3.707031 3.6875 3.640625 L 3.789062 3.59375 C 3.746094 3.574219 3.707031 3.539062 3.667969 3.488281 L 3.753906 3.445312 C 3.714844 3.425781 3.675781 3.386719 3.636719 3.324219 L 3.707031 3.292969 C 3.667969 3.277344 3.632812 3.242188 3.601562 3.183594 L 3.570312 3.085938 L 3.5625 3.085938 C 3.5625 3.113281 3.550781 3.152344 3.523438 3.214844 C 3.488281 3.285156 3.453125 3.34375 3.421875 3.398438 C 3.417969 3.292969 3.417969 3.207031 3.417969 3.140625 L 3.410156 2.539062 L 3.953125 2.324219 C 3.917969 2.390625 3.886719 2.441406 3.855469 2.476562 C 3.875 2.476562 3.910156 2.46875 3.953125 2.453125 C 3.945312 2.46875 3.9375 2.488281 3.933594 2.503906 C 3.890625 2.578125 3.847656 2.640625 3.808594 2.683594 C 3.84375 2.679688 3.886719 2.667969 3.933594 2.648438 L 4.027344 2.601562 L 4.019531 2.746094 L 4.125 2.703125 L 4.125 2.5625 L 4.210938 2.542969 L 4.339844 2.484375 C 4.292969 2.464844 4.25 2.421875 4.207031 2.355469 L 4.296875 2.3125 C 4.265625 2.296875 4.238281 2.269531 4.207031 2.226562 L 4.410156 2.148438 L 4.410156 2.222656 C 4.421875 2.527344 4.433594 2.785156 4.4375 2.996094 C 4.433594 3 4.429688 3.003906 4.421875 3.007812 L 4.4375 3.007812 L 4.4375 3.101562 C 4.414062 3.136719 4.390625 3.167969 4.371094 3.195312 C 4.390625 3.195312 4.410156 3.191406 4.4375 3.183594 L 4.4375 3.203125 C 4.402344 3.269531 4.367188 3.328125 4.339844 3.367188 L 4.429688 3.34375 C 4.382812 3.445312 4.339844 3.523438 4.296875 3.574219 C 4.328125 3.570312 4.367188 3.558594 4.417969 3.539062 C 4.421875 3.539062 4.425781 3.535156 4.429688 3.53125 Z M 5.511719 2.183594 C 5.476562 2.203125 5.457031 2.230469 5.457031 2.277344 C 5.457031 2.292969 5.460938 2.308594 5.46875 2.320312 C 5.484375 2.332031 5.496094 2.335938 5.503906 2.324219 L 5.503906 2.308594 L 5.511719 2.320312 L 5.511719 2.324219 C 5.542969 2.3125 5.558594 2.285156 5.558594 2.238281 C 5.558594 2.195312 5.542969 2.175781 5.511719 2.183594 Z M 3.570312 2.933594 C 3.535156 2.949219 3.515625 2.984375 3.515625 3.03125 C 3.515625 3.078125 3.53125 3.09375 3.5625 3.085938 L 3.5625 3.0625 L 3.570312 3.082031 L 3.570312 3.085938 C 3.605469 3.0625 3.621094 3.03125 3.621094 2.988281 C 3.621094 2.9375 3.605469 2.917969 3.570312 2.933594 Z M 3.992188 4.78125 L 3.988281 4.828125 L 4.09375 4.78125 L 4.097656 4.730469 L 4.183594 4.710938 L 4.304688 4.644531 C 4.265625 4.625 4.222656 4.582031 4.171875 4.519531 L 4.273438 4.464844 C 4.238281 4.445312 4.199219 4.414062 4.160156 4.367188 L 4.238281 4.316406 C 4.199219 4.300781 4.160156 4.261719 4.121094 4.203125 L 4.125 4.203125 L 4.191406 4.164062 C 4.15625 4.148438 4.125 4.113281 4.09375 4.0625 C 4.082031 4.050781 4.070312 4.015625 4.050781 3.964844 C 4.035156 4.027344 4.023438 4.070312 4.011719 4.089844 C 3.976562 4.175781 3.941406 4.242188 3.90625 4.285156 L 3.972656 4.261719 L 3.980469 4.261719 C 3.9375 4.359375 3.894531 4.433594 3.855469 4.488281 L 3.933594 4.457031 C 3.894531 4.546875 3.855469 4.613281 3.8125 4.664062 C 3.839844 4.660156 3.875 4.648438 3.914062 4.632812 C 3.863281 4.738281 3.820312 4.820312 3.773438 4.878906 C 3.804688 4.875 3.847656 4.859375 3.902344 4.835938 C 3.917969 4.828125 3.949219 4.808594 3.992188 4.78125 Z M 4.058594 3.8125 C 4.027344 3.824219 4.007812 3.855469 4 3.910156 C 4 3.953125 4.019531 3.972656 4.050781 3.964844 L 4.050781 3.957031 C 4.089844 3.945312 4.105469 3.914062 4.105469 3.867188 C 4.105469 3.816406 4.089844 3.800781 4.058594 3.8125 Z M 3.421875 3.484375 L 3.421875 3.410156 L 3.484375 3.386719 L 3.488281 3.386719 L 3.421875 3.515625 Z M 3.429688 3.609375 C 3.425781 3.601562 3.425781 3.59375 3.429688 3.585938 L 3.445312 3.582031 Z M 3.429688 3.609375 "/>
<path style=" stroke:none;fill-rule:evenodd;fill:rgb(34.901961%,12.156863%,2.745098%);fill-opacity:1;" d="M 5.152344 1.863281 L 5.007812 1.917969 C 5.003906 1.875 5.003906 1.832031 5.007812 1.796875 L 5.703125 1.539062 L 5.695312 1.648438 Z M 4.402344 2.015625 L 4.410156 2.148438 L 3.953125 2.324219 L 3.410156 2.539062 L 3.390625 2.542969 L 3.257812 2.390625 L 3.375 2.417969 L 3.382812 2.417969 C 3.816406 2.242188 4.15625 2.109375 4.402344 2.015625 Z M 4.402344 2.015625 "/>
<path style=" stroke:none;fill-rule:evenodd;fill:url(#linear4);" d="M 5.710938 2.820312 L 5.621094 2.855469 L 5.710938 2.953125 L 5.710938 3 L 5.636719 3.039062 L 5.558594 3.054688 L 5.503906 3.050781 L 5.457031 3.09375 L 5.378906 3.140625 C 5.328125 3.160156 5.289062 3.175781 5.257812 3.175781 C 5.296875 3.125 5.339844 3.050781 5.382812 2.953125 L 5.296875 2.976562 C 5.335938 2.933594 5.367188 2.871094 5.402344 2.789062 L 5.332031 2.8125 C 5.367188 2.765625 5.402344 2.695312 5.445312 2.605469 L 5.4375 2.613281 L 5.378906 2.628906 C 5.410156 2.585938 5.441406 2.527344 5.46875 2.453125 C 5.492188 2.382812 5.503906 2.34375 5.503906 2.332031 L 5.503906 2.324219 L 5.511719 2.324219 L 5.511719 2.332031 L 5.542969 2.421875 C 5.574219 2.476562 5.605469 2.511719 5.636719 2.527344 L 5.578125 2.558594 L 5.570312 2.558594 C 5.609375 2.613281 5.648438 2.652344 5.683594 2.671875 L 5.609375 2.710938 C 5.640625 2.757812 5.675781 2.789062 5.710938 2.808594 Z M 5.710938 2.820312 "/>
<path style=" stroke:none;fill-rule:evenodd;fill:rgb(56.470588%,29.803922%,4.313725%);fill-opacity:1;" d="M 4.992188 1 L 5.039062 1.011719 L 4.914062 1.039062 L 4.78125 1.027344 L 4.914062 1 Z M 5.078125 4.300781 L 5.078125 4.367188 L 4.980469 4.414062 L 4.980469 4.402344 L 5.046875 4.359375 L 5.046875 4.296875 L 5.078125 4.296875 Z M 5.558594 3.054688 L 5.558594 3.191406 L 5.457031 3.234375 L 5.457031 3.09375 L 5.503906 3.050781 Z M 3.382812 1.148438 L 3.449219 1.15625 L 3.464844 1.164062 L 3.335938 1.1875 L 3.296875 1.1875 C 3.316406 1.179688 3.332031 1.171875 3.351562 1.164062 C 3.363281 1.15625 3.375 1.152344 3.382812 1.148438 Z M 3 1.4375 L 3.085938 1.4375 L 3.125 1.453125 L 3.007812 1.480469 C 2.96875 1.46875 2.933594 1.464844 2.898438 1.460938 Z M 2.992188 2.867188 L 2.984375 3 L 2.851562 2.976562 L 2.859375 2.84375 L 2.925781 2.832031 L 2.984375 2.859375 Z M 4.125 2.5625 L 4.125 2.703125 L 4.019531 2.746094 L 4.027344 2.601562 L 4.070312 2.558594 Z M 5.09375 2.191406 L 5.09375 2.332031 L 5.007812 2.367188 L 5.007812 2.222656 L 5.046875 2.191406 Z M 0.984375 0.871094 L 1.070312 0.871094 L 1.109375 0.882812 L 0.992188 0.90625 L 0.871094 0.894531 Z M 0.632812 1.136719 L 0.648438 1.136719 L 0.699219 1.144531 L 0.714844 1.144531 L 0.753906 1.15625 L 0.6875 1.167969 C 0.648438 1.164062 0.609375 1.160156 0.566406 1.15625 Z M 0.648438 2.484375 L 0.640625 2.617188 L 0.527344 2.59375 L 0.535156 2.464844 C 0.5625 2.464844 0.578125 2.460938 0.589844 2.453125 Z M 1.183594 3.554688 L 1.179688 3.683594 L 1.0625 3.664062 L 1.0625 3.539062 L 1.125 3.523438 Z M 2.351562 3.769531 L 2.34375 3.902344 L 2.222656 3.878906 L 2.230469 3.746094 L 2.289062 3.734375 C 2.308594 3.75 2.328125 3.761719 2.351562 3.769531 Z M 0.609375 4.394531 L 0.601562 4.464844 L 0.488281 4.433594 L 0.488281 4.371094 L 0.546875 4.367188 L 0.601562 4.394531 Z M 2.925781 4.863281 L 2.921875 4.933594 L 2.792969 4.90625 L 2.800781 4.839844 L 2.859375 4.828125 Z M 4.097656 4.730469 L 4.09375 4.78125 L 3.988281 4.828125 L 3.992188 4.78125 L 4.039062 4.730469 Z M 3.609375 3.855469 L 3.601562 4.007812 L 3.496094 4.050781 L 3.496094 3.902344 L 3.550781 3.855469 Z M 3.445312 4.03125 L 3.445312 4.105469 L 3.4375 4.105469 Z M 3.445312 4.03125 "/>
<path style=" stroke:none;fill-rule:evenodd;fill:url(#linear5);" d="M 4.296875 0.710938 L 4.296875 0.707031 L 4.304688 0.707031 Z M 3.363281 0.722656 C 3.410156 0.738281 3.453125 0.757812 3.484375 0.773438 C 3.457031 0.769531 3.433594 0.765625 3.410156 0.765625 C 3.398438 0.75 3.382812 0.734375 3.363281 0.722656 Z M 1.164062 1.230469 C 1.511719 1.140625 1.820312 1.0625 2.078125 1 C 2.101562 0.988281 2.121094 0.984375 2.144531 0.980469 C 2.152344 0.980469 2.164062 0.976562 2.171875 0.972656 C 2.195312 0.972656 2.226562 0.972656 2.257812 0.96875 C 2.328125 0.960938 2.386719 0.953125 2.4375 0.953125 C 2.425781 0.988281 2.429688 1.019531 2.441406 1.050781 C 2.460938 1.101562 2.507812 1.136719 2.582031 1.15625 C 2.589844 1.179688 2.613281 1.199219 2.648438 1.210938 C 2.507812 1.25 2.355469 1.300781 2.195312 1.355469 C 2.183594 1.355469 2.171875 1.359375 2.164062 1.363281 L 2.070312 1.351562 C 2.023438 1.34375 1.945312 1.332031 1.832031 1.320312 C 1.796875 1.3125 1.757812 1.304688 1.714844 1.300781 C 1.683594 1.296875 1.648438 1.292969 1.613281 1.289062 Z M 1.164062 1.230469 "/>
<path style=" stroke:none;fill-rule:evenodd;fill:url(#linear6);" d="M 3.363281 0.535156 C 3.335938 0.546875 3.304688 0.5625 3.269531 0.582031 C 3.257812 0.589844 3.246094 0.597656 3.238281 0.601562 C 3.203125 0.617188 3.171875 0.628906 3.152344 0.636719 L 3.144531 0.636719 C 3.132812 0.640625 3.121094 0.644531 3.113281 0.652344 C 3.09375 0.652344 3.078125 0.652344 3.066406 0.65625 C 3.050781 0.65625 3.035156 0.660156 3.019531 0.664062 L 3.117188 0.625 L 3.179688 0.601562 C 3.183594 0.597656 3.1875 0.597656 3.191406 0.597656 C 3.214844 0.574219 3.238281 0.558594 3.265625 0.539062 C 3.316406 0.503906 3.367188 0.480469 3.410156 0.46875 C 3.515625 0.429688 3.652344 0.417969 3.8125 0.425781 C 4.082031 0.449219 4.238281 0.5 4.273438 0.578125 C 4.292969 0.621094 4.300781 0.664062 4.296875 0.707031 L 4.296875 0.722656 C 4.296875 0.738281 4.292969 0.757812 4.285156 0.777344 C 4.273438 0.785156 4.265625 0.796875 4.257812 0.808594 C 4.253906 0.8125 4.25 0.816406 4.246094 0.820312 C 4.214844 0.847656 4.171875 0.867188 4.121094 0.882812 C 4.078125 0.890625 4.03125 0.898438 3.980469 0.902344 C 3.6875 0.925781 3.542969 0.898438 3.550781 0.816406 C 3.5625 0.816406 3.574219 0.816406 3.589844 0.820312 L 3.722656 0.820312 C 3.765625 0.816406 3.800781 0.808594 3.820312 0.789062 C 3.828125 0.777344 3.835938 0.765625 3.839844 0.753906 C 3.855469 0.726562 3.855469 0.683594 3.847656 0.632812 C 3.84375 0.589844 3.835938 0.5625 3.820312 0.539062 C 3.8125 0.535156 3.804688 0.527344 3.800781 0.523438 C 3.734375 0.457031 3.601562 0.457031 3.398438 0.523438 C 3.386719 0.527344 3.375 0.53125 3.363281 0.535156 Z M 3.363281 0.535156 "/>
<path style=" stroke:none;fill-rule:evenodd;fill:url(#linear7);" d="M 4.332031 0.71875 L 4.402344 0.710938 L 4.382812 0.722656 L 4.359375 0.742188 C 4.339844 0.757812 4.339844 0.773438 4.359375 0.785156 L 4.285156 0.777344 C 4.292969 0.757812 4.296875 0.738281 4.296875 0.722656 Z M 4.257812 0.808594 L 4.273438 0.820312 L 4.246094 0.820312 C 4.25 0.816406 4.253906 0.8125 4.257812 0.808594 Z M 4.257812 0.808594 "/>
<path style=" stroke:none;fill-rule:evenodd;fill:rgb(94.901961%,81.960784%,33.72549%);fill-opacity:1;" d="M 4.121094 0.96875 C 4.160156 0.960938 4.1875 0.960938 4.210938 0.96875 C 4.242188 0.972656 4.246094 0.980469 4.21875 0.992188 L 4.210938 0.992188 L 4.113281 0.980469 C 4.113281 0.976562 4.113281 0.972656 4.121094 0.96875 Z M 3.886719 1.277344 C 3.835938 1.285156 3.792969 1.289062 3.761719 1.285156 L 3.773438 1.277344 L 3.753906 1.285156 C 3.710938 1.277344 3.710938 1.269531 3.761719 1.261719 C 3.8125 1.25 3.855469 1.25 3.886719 1.253906 C 3.921875 1.257812 3.921875 1.265625 3.886719 1.277344 Z M 1.496094 0.992188 C 1.46875 0.996094 1.429688 1 1.375 1 L 1.382812 0.992188 L 1.371094 1 C 1.324219 0.988281 1.328125 0.980469 1.375 0.972656 C 1.429688 0.964844 1.46875 0.964844 1.496094 0.96875 C 1.527344 0.972656 1.527344 0.980469 1.496094 0.992188 Z M 1.085938 2.769531 C 1.085938 2.726562 1.105469 2.707031 1.144531 2.714844 C 1.183594 2.714844 1.203125 2.738281 1.203125 2.789062 C 1.203125 2.828125 1.183594 2.851562 1.144531 2.851562 L 1.144531 2.84375 C 1.105469 2.835938 1.085938 2.8125 1.085938 2.769531 Z M 2.25 2.964844 C 2.25 2.917969 2.273438 2.894531 2.316406 2.90625 C 2.355469 2.910156 2.375 2.9375 2.375 2.984375 C 2.367188 3.027344 2.347656 3.046875 2.308594 3.039062 C 2.269531 3.03125 2.25 3.003906 2.25 2.964844 Z M 0.5625 3.566406 C 0.601562 3.574219 0.621094 3.601562 0.621094 3.640625 C 0.621094 3.6875 0.601562 3.703125 0.5625 3.695312 C 0.515625 3.6875 0.5 3.664062 0.507812 3.621094 C 0.507812 3.578125 0.527344 3.558594 0.5625 3.566406 Z M 2.820312 4.054688 C 2.828125 4.007812 2.851562 3.984375 2.886719 3.996094 C 2.929688 4.007812 2.953125 4.035156 2.953125 4.078125 C 2.953125 4.125 2.929688 4.144531 2.886719 4.132812 L 2.886719 4.117188 L 2.878906 4.132812 C 2.839844 4.125 2.820312 4.101562 2.820312 4.054688 Z M 2.820312 4.054688 "/>
<path style=" stroke:none;fill-rule:evenodd;fill:url(#linear8);" d="M 1.421875 0.863281 C 1.324219 0.847656 1.222656 0.832031 1.117188 0.816406 L 1.203125 0.796875 L 1.210938 0.796875 L 1.304688 0.773438 L 1.355469 0.757812 L 1.390625 0.753906 L 1.5 0.730469 L 1.542969 0.722656 L 1.746094 0.675781 L 1.746094 0.695312 C 1.761719 0.753906 1.796875 0.804688 1.859375 0.839844 C 1.882812 0.851562 1.914062 0.863281 1.960938 0.871094 C 1.949219 0.878906 1.945312 0.886719 1.941406 0.894531 C 1.921875 0.910156 1.914062 0.925781 1.914062 0.941406 C 1.761719 0.917969 1.597656 0.890625 1.421875 0.863281 Z M 4.371094 1.285156 L 3.664062 1.1875 L 3.449219 1.15625 L 3.382812 1.148438 C 3.382812 1.148438 3.386719 1.144531 3.390625 1.144531 C 3.4375 1.121094 3.476562 1.101562 3.503906 1.089844 C 3.519531 1.085938 3.636719 1.078125 3.847656 1.070312 C 3.878906 1.070312 3.90625 1.070312 3.933594 1.066406 C 3.9375 1.058594 3.941406 1.058594 3.945312 1.058594 C 3.972656 1.054688 3.996094 1.050781 4.019531 1.039062 C 4.050781 1.027344 4.074219 1.015625 4.09375 1 C 4.097656 1 4.097656 0.996094 4.097656 0.992188 L 4.113281 0.980469 L 4.210938 0.992188 L 4.21875 0.992188 L 5.03125 1.109375 C 4.835938 1.171875 4.640625 1.230469 4.449219 1.277344 C 4.40625 1.285156 4.378906 1.289062 4.371094 1.285156 Z M 2.144531 0.816406 L 2.144531 0.796875 L 2.164062 0.816406 Z M 2.144531 0.980469 L 2.117188 0.980469 C 2.132812 0.976562 2.148438 0.972656 2.171875 0.972656 C 2.164062 0.976562 2.152344 0.980469 2.144531 0.980469 Z M 2.144531 0.980469 "/>
<path style=" stroke:none;fill-rule:evenodd;fill:rgb(36.862745%,29.411765%,2.745098%);fill-opacity:1;" d="M 4.113281 0.980469 C 4.109375 0.984375 4.105469 0.988281 4.097656 0.992188 C 4.097656 0.996094 4.097656 1 4.09375 1 C 4.074219 1.015625 4.050781 1.027344 4.019531 1.039062 C 3.996094 1.050781 3.972656 1.054688 3.945312 1.058594 C 3.941406 1.058594 3.9375 1.058594 3.933594 1.066406 C 3.90625 1.070312 3.878906 1.070312 3.847656 1.070312 C 3.636719 1.078125 3.519531 1.085938 3.503906 1.089844 C 3.476562 1.101562 3.4375 1.121094 3.390625 1.144531 C 3.386719 1.144531 3.382812 1.148438 3.382812 1.148438 C 3.375 1.152344 3.363281 1.15625 3.351562 1.164062 C 3.332031 1.171875 3.316406 1.179688 3.296875 1.1875 C 3.253906 1.199219 3.214844 1.207031 3.179688 1.210938 C 3.113281 1.222656 2.976562 1.230469 2.765625 1.230469 C 2.71875 1.230469 2.679688 1.222656 2.648438 1.210938 C 2.613281 1.199219 2.589844 1.179688 2.582031 1.15625 C 2.628906 1.167969 2.699219 1.171875 2.78125 1.171875 C 2.90625 1.171875 3.042969 1.15625 3.191406 1.125 C 3.289062 1.105469 3.363281 1.070312 3.410156 1.023438 C 3.46875 0.964844 3.476562 0.898438 3.445312 0.816406 C 3.433594 0.792969 3.421875 0.777344 3.410156 0.765625 C 3.433594 0.765625 3.457031 0.769531 3.484375 0.773438 L 3.496094 0.773438 C 3.53125 0.789062 3.5625 0.804688 3.589844 0.820312 C 3.578125 0.816406 3.5625 0.816406 3.550781 0.816406 C 3.542969 0.898438 3.6875 0.925781 3.980469 0.902344 C 4.03125 0.898438 4.078125 0.890625 4.121094 0.882812 C 4.132812 0.898438 4.132812 0.921875 4.125 0.949219 C 4.121094 0.957031 4.121094 0.964844 4.121094 0.96875 C 4.113281 0.972656 4.113281 0.976562 4.113281 0.980469 Z M 2.117188 0.980469 C 2.070312 0.980469 2.027344 0.976562 1.984375 0.972656 C 1.960938 0.96875 1.933594 0.964844 1.914062 0.960938 L 1.914062 0.941406 C 1.914062 0.925781 1.921875 0.910156 1.941406 0.894531 C 1.945312 0.886719 1.949219 0.878906 1.960938 0.871094 C 2.019531 0.882812 2.101562 0.886719 2.203125 0.886719 C 2.167969 0.871094 2.148438 0.847656 2.144531 0.816406 L 2.164062 0.816406 L 2.203125 0.863281 C 2.289062 0.875 2.390625 0.871094 2.507812 0.847656 C 2.46875 0.882812 2.445312 0.917969 2.4375 0.953125 C 2.386719 0.953125 2.328125 0.960938 2.257812 0.96875 C 2.226562 0.972656 2.195312 0.972656 2.171875 0.972656 C 2.148438 0.972656 2.132812 0.976562 2.117188 0.980469 Z M 2.117188 0.980469 "/>
<path style=" stroke:none;fill-rule:evenodd;fill:url(#linear9);" d="M 5.007812 2.367188 C 5.011719 2.640625 5.019531 2.988281 5.027344 3.410156 L 5.027344 3.574219 C 5.03125 3.796875 5.039062 4.039062 5.046875 4.296875 L 5.046875 4.359375 L 4.980469 4.402344 L 4.941406 4.425781 C 4.917969 4.4375 4.898438 4.449219 4.878906 4.457031 C 4.824219 4.484375 4.773438 4.507812 4.726562 4.523438 C 4.652344 4.550781 4.578125 4.585938 4.496094 4.621094 C 4.484375 4.625 4.46875 4.632812 4.457031 4.640625 L 4.445312 4.644531 L 4.445312 4.632812 L 4.46875 4.464844 L 4.421875 1.863281 C 4.421875 1.832031 4.425781 1.800781 4.429688 1.769531 L 4.429688 1.558594 C 4.429688 1.433594 4.414062 1.355469 4.375 1.332031 L 4.371094 1.296875 L 4.449219 1.277344 C 4.710938 1.242188 4.917969 1.1875 5.074219 1.113281 L 5.074219 1.125 L 5.046875 1.261719 C 5.042969 1.304688 5.039062 1.351562 5.03125 1.398438 C 5.027344 1.421875 5.027344 1.449219 5.027344 1.472656 C 5.019531 1.546875 5.011719 1.625 5.007812 1.710938 L 5.007812 1.796875 C 5.003906 1.832031 5.003906 1.875 5.007812 1.917969 C 5.003906 2.003906 5.003906 2.105469 5.007812 2.222656 Z M 5.007812 2.367188 "/>
<path style=" stroke:none;fill-rule:evenodd;fill:rgb(93.333333%,76.078431%,12.941176%);fill-opacity:1;" d="M 4.402344 2.015625 L 4.375 1.339844 L 4.371094 1.296875 L 4.371094 1.285156 C 4.378906 1.289062 4.40625 1.285156 4.449219 1.277344 L 4.371094 1.296875 L 4.375 1.332031 C 4.414062 1.355469 4.429688 1.433594 4.429688 1.558594 L 4.429688 1.769531 C 4.425781 1.800781 4.421875 1.832031 4.421875 1.863281 L 4.46875 4.464844 L 4.445312 4.632812 L 4.445312 4.644531 C 4.433594 4.648438 4.421875 4.65625 4.410156 4.660156 L 4.410156 4.652344 C 4.410156 4.28125 4.417969 3.917969 4.429688 3.5625 L 4.429688 3.53125 C 4.433594 3.445312 4.4375 3.335938 4.4375 3.203125 L 4.4375 3.007812 C 4.433594 3.003906 4.433594 3 4.4375 2.996094 C 4.433594 2.785156 4.421875 2.527344 4.410156 2.222656 L 4.410156 2.148438 Z M 4.449219 1.277344 C 4.640625 1.230469 4.835938 1.171875 5.03125 1.109375 L 5.074219 1.113281 C 4.917969 1.1875 4.710938 1.242188 4.449219 1.277344 Z M 4.449219 1.277344 "/>
<path style=" stroke:none;fill-rule:evenodd;fill:rgb(100%,43.137255%,27.843137%);fill-opacity:1;" d="M 5.863281 0.882812 L 5.074219 1.125 L 5.074219 1.113281 L 5.03125 1.109375 L 5.277344 1.046875 L 5.296875 1.039062 Z M 2.195312 1.355469 C 2.34375 1.375 2.5 1.394531 2.667969 1.421875 C 2.75 1.4375 2.828125 1.449219 2.898438 1.460938 C 2.9375 1.464844 2.96875 1.46875 3.007812 1.480469 C 3.144531 1.5 3.246094 1.515625 3.3125 1.527344 C 3.398438 1.511719 3.558594 1.480469 3.789062 1.429688 C 4.011719 1.382812 4.207031 1.335938 4.371094 1.289062 L 4.371094 1.296875 L 4.375 1.339844 C 4.105469 1.414062 3.769531 1.496094 3.375 1.59375 L 3.375 2.417969 L 3.277344 1.710938 L 3.269531 1.699219 C 3.265625 1.648438 3.257812 1.613281 3.246094 1.589844 L 2.726562 1.496094 C 2.523438 1.460938 2.335938 1.429688 2.164062 1.40625 L 2.164062 1.363281 C 2.171875 1.359375 2.183594 1.355469 2.195312 1.355469 Z M 0.03125 1.070312 C 0.214844 1.097656 0.394531 1.128906 0.566406 1.15625 C 0.609375 1.160156 0.648438 1.164062 0.6875 1.167969 C 0.851562 1.191406 1.007812 1.214844 1.164062 1.234375 L 1.171875 1.277344 C 0.960938 1.25 0.738281 1.214844 0.507812 1.167969 C 0.4375 1.15625 0.367188 1.140625 0.296875 1.125 L 0.222656 1.113281 C 0.15625 1.097656 0.09375 1.082031 0.03125 1.070312 Z M 0.03125 1.070312 "/>
<path style=" stroke:none;fill-rule:evenodd;fill:url(#linear10);" d="M 3.117188 0.625 L 3.117188 0.601562 C 3.140625 0.605469 3.164062 0.605469 3.183594 0.597656 C 3.1875 0.589844 3.195312 0.585938 3.199219 0.582031 C 3.226562 0.558594 3.246094 0.542969 3.265625 0.539062 C 3.238281 0.558594 3.214844 0.574219 3.191406 0.597656 C 3.1875 0.597656 3.183594 0.597656 3.179688 0.601562 Z M 3.484375 0.773438 C 3.453125 0.757812 3.410156 0.738281 3.363281 0.722656 C 3.335938 0.703125 3.304688 0.6875 3.273438 0.679688 C 3.21875 0.65625 3.179688 0.640625 3.152344 0.636719 C 3.171875 0.628906 3.203125 0.617188 3.238281 0.601562 C 3.246094 0.597656 3.257812 0.589844 3.273438 0.582031 C 3.304688 0.5625 3.335938 0.546875 3.363281 0.535156 C 3.382812 0.535156 3.402344 0.539062 3.421875 0.539062 C 3.488281 0.558594 3.539062 0.566406 3.570312 0.570312 C 3.621094 0.582031 3.671875 0.582031 3.722656 0.570312 C 3.757812 0.558594 3.789062 0.550781 3.820312 0.539062 C 3.835938 0.5625 3.84375 0.589844 3.847656 0.632812 C 3.855469 0.683594 3.855469 0.726562 3.839844 0.753906 C 3.835938 0.765625 3.828125 0.777344 3.820312 0.789062 C 3.800781 0.808594 3.765625 0.816406 3.722656 0.820312 L 3.589844 0.820312 C 3.5625 0.804688 3.53125 0.789062 3.496094 0.773438 Z M 3.484375 0.773438 "/>
<path style=" stroke:none;fill-rule:evenodd;fill:url(#linear11);" d="M 2.960938 0.664062 L 3.058594 0.664062 C 3.144531 0.664062 3.195312 0.664062 3.21875 0.667969 C 3.234375 0.671875 3.25 0.675781 3.265625 0.679688 L 3.273438 0.679688 C 3.304688 0.6875 3.335938 0.703125 3.363281 0.722656 C 3.382812 0.734375 3.398438 0.75 3.410156 0.765625 C 3.421875 0.777344 3.433594 0.792969 3.445312 0.816406 C 3.476562 0.898438 3.46875 0.964844 3.410156 1.023438 C 3.363281 1.070312 3.289062 1.105469 3.191406 1.125 C 3.042969 1.15625 2.90625 1.171875 2.78125 1.171875 C 2.699219 1.171875 2.628906 1.167969 2.582031 1.15625 C 2.507812 1.136719 2.460938 1.101562 2.441406 1.050781 C 2.429688 1.019531 2.425781 0.988281 2.4375 0.953125 C 2.445312 0.917969 2.46875 0.882812 2.507812 0.847656 C 2.53125 0.816406 2.558594 0.789062 2.59375 0.765625 C 2.652344 0.726562 2.710938 0.695312 2.773438 0.675781 C 2.800781 0.664062 2.828125 0.65625 2.851562 0.652344 C 2.871094 0.640625 2.890625 0.636719 2.914062 0.632812 C 2.925781 0.628906 2.941406 0.625 2.960938 0.625 L 2.921875 0.664062 Z M 2.960938 0.664062 "/>
<path style=" stroke:none;fill-rule:evenodd;fill:url(#linear12);" d="M 2.515625 0.21875 C 2.515625 0.277344 2.550781 0.347656 2.617188 0.417969 C 2.65625 0.464844 2.699219 0.503906 2.746094 0.539062 C 2.671875 0.523438 2.578125 0.503906 2.464844 0.480469 C 2.453125 0.457031 2.449219 0.429688 2.441406 0.40625 C 2.421875 0.320312 2.4375 0.257812 2.496094 0.210938 Z M 2.773438 0.675781 C 2.730469 0.671875 2.691406 0.664062 2.660156 0.65625 C 2.628906 0.644531 2.601562 0.632812 2.582031 0.621094 C 2.570312 0.613281 2.558594 0.605469 2.550781 0.597656 C 2.527344 0.578125 2.507812 0.5625 2.496094 0.539062 C 2.550781 0.542969 2.609375 0.5625 2.675781 0.589844 C 2.742188 0.613281 2.800781 0.632812 2.851562 0.652344 C 2.828125 0.65625 2.800781 0.664062 2.773438 0.675781 Z M 2.773438 0.675781 "/>
<path style=" stroke:none;fill-rule:evenodd;fill:url(#linear13);" d="M 2.746094 0.539062 C 2.699219 0.503906 2.65625 0.464844 2.617188 0.417969 C 2.550781 0.347656 2.515625 0.277344 2.515625 0.21875 C 2.511719 0.203125 2.511719 0.1875 2.515625 0.175781 C 2.527344 0.117188 2.578125 0.0742188 2.660156 0.0351562 C 2.746094 0.00390625 2.824219 -0.0078125 2.898438 0.00390625 C 3.0625 0.0273438 3.132812 0.125 3.105469 0.296875 C 3.097656 0.371094 3.074219 0.464844 3.039062 0.582031 C 3.035156 0.585938 3.03125 0.597656 3.03125 0.609375 C 3.023438 0.625 3.019531 0.640625 3.011719 0.664062 L 2.960938 0.664062 L 2.933594 0.652344 L 2.960938 0.625 C 2.941406 0.625 2.925781 0.628906 2.914062 0.632812 L 2.851562 0.601562 C 2.820312 0.582031 2.785156 0.5625 2.746094 0.539062 Z M 2.746094 0.539062 "/>
<path style=" stroke:none;fill-rule:evenodd;fill:url(#linear14);" d="M 2.851562 0.652344 C 2.800781 0.632812 2.742188 0.613281 2.675781 0.589844 C 2.609375 0.5625 2.550781 0.542969 2.496094 0.539062 C 2.484375 0.539062 2.46875 0.535156 2.457031 0.535156 C 2.421875 0.53125 2.390625 0.535156 2.363281 0.539062 C 2.347656 0.542969 2.328125 0.554688 2.308594 0.566406 C 2.285156 0.578125 2.257812 0.597656 2.230469 0.625 C 2.214844 0.644531 2.195312 0.671875 2.179688 0.699219 C 2.15625 0.734375 2.144531 0.769531 2.144531 0.796875 L 2.144531 0.816406 C 2.148438 0.847656 2.167969 0.871094 2.203125 0.886719 C 2.101562 0.886719 2.019531 0.882812 1.960938 0.871094 C 1.914062 0.863281 1.882812 0.851562 1.859375 0.839844 C 1.796875 0.804688 1.761719 0.753906 1.746094 0.695312 L 1.746094 0.675781 C 1.738281 0.621094 1.753906 0.574219 1.792969 0.527344 C 1.886719 0.421875 2.074219 0.398438 2.355469 0.457031 C 2.390625 0.464844 2.425781 0.472656 2.464844 0.480469 C 2.578125 0.503906 2.671875 0.523438 2.746094 0.539062 C 2.785156 0.5625 2.820312 0.582031 2.851562 0.601562 L 2.914062 0.632812 C 2.890625 0.636719 2.871094 0.640625 2.851562 0.652344 Z M 2.960938 0.664062 L 2.921875 0.664062 L 2.933594 0.652344 Z M 2.960938 0.664062 "/>
<path style=" stroke:none;fill-rule:evenodd;fill:url(#linear15);" d="M 3.066406 0.65625 L 3.058594 0.664062 L 3.011719 0.664062 C 3.019531 0.640625 3.023438 0.625 3.03125 0.609375 C 3.042969 0.605469 3.050781 0.601562 3.066406 0.601562 L 3.152344 0.597656 L 3.164062 0.589844 L 3.183594 0.597656 C 3.164062 0.605469 3.140625 0.605469 3.117188 0.601562 L 3.117188 0.625 L 3.019531 0.664062 C 3.039062 0.660156 3.050781 0.65625 3.066406 0.65625 Z M 3.152344 0.636719 C 3.152344 0.640625 3.15625 0.644531 3.15625 0.652344 L 3.113281 0.652344 C 3.121094 0.644531 3.132812 0.640625 3.144531 0.636719 Z M 3.152344 0.636719 "/>
<path style=" stroke:none;fill-rule:evenodd;fill:url(#linear16);" d="M 3 1.4375 L 2.734375 1.40625 L 3.058594 1.386719 L 2.953125 1.367188 C 3.027344 1.367188 3.117188 1.367188 3.226562 1.355469 L 3.132812 1.34375 L 3.429688 1.328125 L 3.351562 1.316406 C 3.421875 1.316406 3.507812 1.3125 3.609375 1.300781 L 3.753906 1.285156 C 3.734375 1.296875 3.71875 1.304688 3.707031 1.316406 C 3.6875 1.332031 3.683594 1.34375 3.703125 1.355469 L 3.609375 1.351562 C 3.589844 1.371094 3.589844 1.386719 3.609375 1.398438 L 3.503906 1.394531 C 3.488281 1.410156 3.492188 1.421875 3.507812 1.4375 L 3.382812 1.421875 C 3.367188 1.449219 3.367188 1.46875 3.382812 1.484375 L 3.125 1.453125 L 3.085938 1.4375 Z M 3 1.4375 "/>
<path style=" stroke:none;fill-rule:evenodd;fill:url(#linear17);" d="M 3.449219 1.15625 L 3.664062 1.1875 L 3.464844 1.164062 Z M 3.449219 1.15625 "/>
<path style=" stroke:none;fill-rule:evenodd;fill:url(#linear18);" d="M 2.164062 1.40625 C 2.335938 1.429688 2.523438 1.460938 2.726562 1.496094 L 3.246094 1.589844 C 3.257812 1.613281 3.265625 1.648438 3.269531 1.699219 L 3.277344 1.710938 L 3.375 2.417969 L 3.257812 2.390625 L 2.761719 2.289062 C 2.515625 2.238281 2.3125 2.203125 2.152344 2.171875 Z M 1.171875 1.277344 L 1.203125 2.003906 C 0.972656 1.953125 0.691406 1.890625 0.347656 1.8125 C 0.269531 1.796875 0.1875 1.78125 0.105469 1.757812 L 0.03125 1.070312 C 0.09375 1.082031 0.15625 1.097656 0.222656 1.113281 L 0.296875 1.125 C 0.367188 1.140625 0.4375 1.15625 0.507812 1.167969 C 0.738281 1.214844 0.960938 1.25 1.171875 1.277344 Z M 1.171875 1.277344 "/>
<path style=" stroke:none;fill-rule:evenodd;fill:url(#linear19);" d="M 2.992188 2.867188 L 2.984375 2.859375 L 2.925781 2.832031 L 2.859375 2.84375 C 2.835938 2.851562 2.800781 2.851562 2.753906 2.84375 L 2.601562 2.808594 C 2.65625 2.777344 2.710938 2.730469 2.773438 2.660156 L 2.65625 2.636719 C 2.703125 2.613281 2.75 2.574219 2.800781 2.519531 L 2.703125 2.496094 C 2.742188 2.476562 2.78125 2.445312 2.820312 2.40625 C 2.894531 2.425781 2.953125 2.441406 2.992188 2.445312 L 3.078125 2.472656 C 3.109375 2.511719 3.140625 2.542969 3.171875 2.570312 L 3.070312 2.558594 C 3.121094 2.628906 3.167969 2.683594 3.210938 2.722656 L 3.09375 2.714844 C 3.144531 2.800781 3.199219 2.867188 3.25 2.910156 L 3.097656 2.898438 C 3.058594 2.894531 3.023438 2.882812 2.992188 2.867188 Z M 2.992188 2.867188 "/>
<path style=" stroke:none;fill-rule:evenodd;fill:url(#linear20);" d="M 2.125 3.566406 L 2.136719 3.566406 C 2.132812 3.570312 2.128906 3.578125 2.125 3.585938 Z M 2.132812 3.464844 L 2.132812 3.417969 C 2.140625 3.417969 2.152344 3.421875 2.164062 3.421875 C 2.152344 3.4375 2.140625 3.453125 2.132812 3.464844 Z M 2.132812 3.367188 L 2.132812 3.25 L 2.152344 2.265625 C 2.449219 2.324219 2.671875 2.371094 2.820312 2.40625 C 2.78125 2.445312 2.742188 2.476562 2.703125 2.496094 L 2.800781 2.519531 C 2.75 2.574219 2.703125 2.613281 2.65625 2.636719 L 2.773438 2.660156 C 2.710938 2.730469 2.65625 2.777344 2.601562 2.808594 L 2.753906 2.84375 C 2.800781 2.851562 2.835938 2.851562 2.859375 2.84375 L 2.851562 2.976562 L 2.984375 3 L 2.992188 2.867188 C 3.023438 2.882812 3.058594 2.894531 3.097656 2.898438 L 3.25 2.910156 C 3.199219 2.867188 3.144531 2.800781 3.09375 2.714844 L 3.210938 2.722656 C 3.167969 2.683594 3.121094 2.628906 3.070312 2.558594 L 3.171875 2.570312 C 3.140625 2.542969 3.109375 2.511719 3.078125 2.472656 L 3.390625 2.542969 L 3.410156 2.539062 L 3.417969 3.140625 C 3.417969 3.207031 3.417969 3.292969 3.421875 3.398438 L 3.417969 3.402344 L 3.417969 3.410156 L 3.421875 3.410156 L 3.421875 3.417969 C 3.398438 3.4375 3.371094 3.453125 3.351562 3.464844 L 3.421875 3.484375 L 3.421875 3.5 C 3.375 3.554688 3.328125 3.589844 3.285156 3.609375 C 3.304688 3.621094 3.339844 3.632812 3.382812 3.640625 C 3.332031 3.695312 3.28125 3.730469 3.238281 3.75 C 3.265625 3.761719 3.304688 3.773438 3.355469 3.78125 C 3.296875 3.851562 3.238281 3.898438 3.183594 3.921875 C 3.21875 3.9375 3.269531 3.953125 3.335938 3.964844 C 3.363281 3.96875 3.398438 3.96875 3.4375 3.96875 C 3.4375 3.992188 3.4375 4.011719 3.445312 4.03125 L 3.4375 4.105469 L 3.445312 4.105469 C 3.453125 4.371094 3.464844 4.6875 3.484375 5.046875 L 2.847656 4.921875 C 2.542969 4.859375 2.3125 4.816406 2.160156 4.792969 C 2.132812 4.511719 2.117188 4.265625 2.117188 4.054688 L 2.125 3.746094 C 2.160156 3.753906 2.195312 3.753906 2.222656 3.746094 L 2.230469 3.746094 L 2.222656 3.878906 L 2.34375 3.902344 L 2.351562 3.769531 L 2.457031 3.800781 L 2.601562 3.816406 C 2.554688 3.773438 2.503906 3.707031 2.449219 3.621094 L 2.5625 3.636719 C 2.515625 3.597656 2.472656 3.542969 2.429688 3.46875 L 2.527344 3.484375 C 2.480469 3.441406 2.433594 3.378906 2.390625 3.300781 L 2.46875 3.3125 C 2.429688 3.273438 2.390625 3.222656 2.355469 3.152344 L 2.308594 3.042969 C 2.300781 3.074219 2.285156 3.101562 2.257812 3.136719 C 2.21875 3.191406 2.175781 3.230469 2.132812 3.25 L 2.210938 3.269531 L 2.21875 3.269531 C 2.1875 3.308594 2.160156 3.34375 2.132812 3.367188 Z M 0.382812 2.375 C 0.378906 2.34375 0.375 2.3125 0.375 2.28125 L 0.449219 2.292969 Z M 0.382812 2.460938 L 0.433594 2.464844 C 0.472656 2.472656 0.503906 2.472656 0.527344 2.464844 L 0.535156 2.464844 L 0.527344 2.59375 L 0.640625 2.617188 L 0.648438 2.484375 C 0.683594 2.5 0.714844 2.511719 0.746094 2.515625 L 0.886719 2.527344 C 0.835938 2.488281 0.785156 2.425781 0.734375 2.34375 L 0.847656 2.351562 C 0.808594 2.3125 0.765625 2.261719 0.71875 2.199219 L 0.8125 2.203125 C 0.765625 2.164062 0.71875 2.105469 0.679688 2.03125 L 0.757812 2.039062 C 0.734375 2.019531 0.710938 1.992188 0.6875 1.960938 C 0.871094 1.996094 1.046875 2.03125 1.210938 2.0625 L 1.230469 2.496094 C 1.242188 2.671875 1.257812 2.867188 1.269531 3.082031 C 1.238281 3.046875 1.210938 3.007812 1.183594 2.957031 L 1.144531 2.847656 L 1.097656 2.941406 C 1.058594 2.992188 1.019531 3.03125 0.976562 3.050781 L 1.050781 3.074219 L 1.058594 3.074219 C 1.007812 3.132812 0.960938 3.171875 0.917969 3.195312 L 1.011719 3.222656 C 0.960938 3.273438 0.917969 3.308594 0.878906 3.332031 C 0.90625 3.34375 0.941406 3.351562 0.984375 3.359375 C 0.933594 3.425781 0.878906 3.46875 0.828125 3.496094 L 0.964844 3.53125 L 1.0625 3.539062 L 1.0625 3.664062 L 1.179688 3.683594 L 1.183594 3.554688 C 1.21875 3.570312 1.253906 3.582031 1.285156 3.585938 C 1.292969 3.898438 1.296875 4.246094 1.304688 4.628906 C 1.308594 4.632812 1.316406 4.636719 1.328125 4.640625 C 1.082031 4.582031 0.773438 4.507812 0.402344 4.414062 C 0.398438 4.304688 0.394531 4.203125 0.390625 4.105469 C 0.375 3.691406 0.375 3.367188 0.382812 3.136719 C 0.386719 3.007812 0.386719 2.785156 0.382812 2.460938 Z M 0.363281 1.894531 C 0.414062 1.902344 0.46875 1.910156 0.523438 1.925781 C 0.496094 1.957031 0.46875 1.976562 0.441406 1.992188 L 0.515625 2.007812 L 0.523438 2.007812 C 0.472656 2.070312 0.425781 2.113281 0.382812 2.136719 L 0.476562 2.15625 C 0.441406 2.199219 0.40625 2.230469 0.375 2.253906 C 0.375 2.179688 0.375 2.105469 0.371094 2.027344 Z M 1.085938 2.769531 C 1.085938 2.8125 1.105469 2.835938 1.144531 2.84375 L 1.144531 2.847656 C 1.183594 2.847656 1.203125 2.828125 1.203125 2.789062 C 1.203125 2.738281 1.183594 2.714844 1.144531 2.714844 C 1.105469 2.707031 1.085938 2.726562 1.085938 2.769531 Z M 1.277344 3.292969 C 1.269531 3.28125 1.261719 3.269531 1.257812 3.265625 L 1.277344 3.269531 Z M 1.269531 3.105469 L 1.269531 3.183594 C 1.253906 3.15625 1.234375 3.128906 1.21875 3.097656 L 1.222656 3.097656 Z M 2.25 2.964844 C 2.25 3.003906 2.269531 3.03125 2.308594 3.039062 C 2.347656 3.046875 2.367188 3.027344 2.375 2.984375 C 2.375 2.9375 2.355469 2.914062 2.316406 2.90625 C 2.273438 2.894531 2.25 2.917969 2.25 2.964844 Z M 0.5625 3.566406 C 0.527344 3.558594 0.507812 3.578125 0.507812 3.621094 C 0.5 3.664062 0.515625 3.6875 0.5625 3.695312 C 0.601562 3.703125 0.621094 3.6875 0.621094 3.640625 C 0.621094 3.601562 0.601562 3.574219 0.5625 3.566406 Z M 0.488281 4.371094 L 0.488281 4.433594 L 0.601562 4.464844 L 0.609375 4.394531 C 0.640625 4.414062 0.667969 4.421875 0.699219 4.425781 L 0.839844 4.445312 C 0.792969 4.40625 0.742188 4.339844 0.695312 4.257812 L 0.800781 4.269531 C 0.757812 4.230469 0.71875 4.179688 0.675781 4.109375 L 0.765625 4.121094 C 0.722656 4.082031 0.679688 4.023438 0.632812 3.953125 L 0.640625 3.953125 L 0.714844 3.957031 C 0.675781 3.925781 0.636719 3.875 0.601562 3.804688 L 0.5625 3.703125 L 0.515625 3.792969 C 0.480469 3.84375 0.441406 3.878906 0.402344 3.898438 L 0.476562 3.914062 L 0.476562 3.921875 L 0.390625 4.007812 L 0.390625 4.054688 L 0.429688 4.0625 L 0.390625 4.105469 L 0.394531 4.195312 L 0.410156 4.203125 L 0.394531 4.214844 L 0.402344 4.367188 Z M 2.800781 4.839844 L 2.792969 4.90625 L 2.921875 4.933594 L 2.925781 4.863281 C 2.96875 4.886719 3.007812 4.898438 3.03125 4.902344 L 3.183594 4.921875 C 3.132812 4.875 3.078125 4.808594 3.027344 4.71875 L 3.144531 4.738281 C 3.101562 4.695312 3.054688 4.640625 3.007812 4.566406 L 3.105469 4.578125 C 3.054688 4.539062 3.011719 4.476562 2.964844 4.394531 L 3.050781 4.410156 C 3.007812 4.371094 2.96875 4.320312 2.933594 4.25 C 2.917969 4.222656 2.898438 4.183594 2.886719 4.132812 L 2.878906 4.132812 C 2.878906 4.160156 2.863281 4.191406 2.835938 4.230469 C 2.792969 4.285156 2.75 4.320312 2.707031 4.339844 L 2.789062 4.367188 C 2.738281 4.425781 2.691406 4.46875 2.640625 4.488281 C 2.664062 4.5 2.699219 4.511719 2.742188 4.519531 C 2.6875 4.570312 2.640625 4.609375 2.59375 4.628906 L 2.714844 4.660156 C 2.652344 4.722656 2.59375 4.769531 2.542969 4.792969 C 2.582031 4.808594 2.632812 4.824219 2.695312 4.835938 L 2.792969 4.839844 Z M 2.820312 4.054688 C 2.820312 4.101562 2.839844 4.125 2.878906 4.132812 L 2.886719 4.117188 L 2.886719 4.132812 C 2.929688 4.144531 2.953125 4.125 2.953125 4.078125 C 2.953125 4.035156 2.929688 4.007812 2.886719 3.996094 C 2.851562 3.984375 2.828125 4.007812 2.820312 4.054688 Z M 2.820312 4.054688 "/>
<path style=" stroke:none;fill-rule:evenodd;fill:rgb(49.019608%,17.254902%,3.921569%);fill-opacity:1;" d="M 1.210938 2.0625 C 1.046875 2.03125 0.871094 1.996094 0.6875 1.960938 C 0.632812 1.949219 0.578125 1.933594 0.523438 1.925781 C 0.46875 1.910156 0.414062 1.902344 0.363281 1.894531 C 0.359375 1.890625 0.355469 1.886719 0.347656 1.886719 L 0.347656 1.8125 C 0.691406 1.890625 0.972656 1.953125 1.203125 2.003906 Z M 3.390625 2.542969 L 3.078125 2.472656 L 2.992188 2.445312 C 2.953125 2.441406 2.894531 2.425781 2.820312 2.40625 C 2.671875 2.371094 2.449219 2.324219 2.152344 2.265625 L 2.152344 2.171875 C 2.3125 2.203125 2.515625 2.238281 2.761719 2.289062 L 3.257812 2.390625 Z M 3.390625 2.542969 "/>
<path style=" stroke:none;fill-rule:evenodd;fill:url(#linear21);" d="M 4.207031 2.226562 C 4.238281 2.269531 4.265625 2.296875 4.296875 2.3125 L 4.207031 2.355469 C 4.25 2.421875 4.292969 2.464844 4.339844 2.484375 L 4.210938 2.542969 L 4.125 2.5625 L 4.070312 2.558594 L 4.027344 2.601562 L 3.933594 2.648438 C 3.886719 2.667969 3.84375 2.679688 3.808594 2.683594 C 3.847656 2.640625 3.890625 2.578125 3.933594 2.503906 C 3.9375 2.488281 3.945312 2.46875 3.953125 2.453125 C 3.910156 2.46875 3.875 2.476562 3.855469 2.476562 C 3.886719 2.441406 3.917969 2.390625 3.953125 2.324219 Z M 4.207031 2.226562 "/>
<path style=" stroke:none;fill-rule:evenodd;fill:url(#linear22);" d="M 5.152344 1.863281 C 5.1875 1.90625 5.222656 1.9375 5.25 1.953125 L 5.164062 1.996094 C 5.210938 2.058594 5.25 2.101562 5.292969 2.125 L 5.171875 2.179688 C 5.15625 2.1875 5.128906 2.191406 5.09375 2.191406 L 5.046875 2.191406 L 5.007812 2.222656 C 5.003906 2.105469 5.003906 2.003906 5.007812 1.917969 Z M 5.152344 1.863281 "/>
<path style=" stroke:none;fill-rule:evenodd;fill:url(#linear23);" d="M 4.4375 3.007812 L 4.421875 3.007812 C 4.429688 3.003906 4.433594 3 4.4375 2.996094 C 4.433594 3 4.433594 3.003906 4.4375 3.007812 Z M 4.4375 3.097656 L 4.4375 3.183594 C 4.410156 3.191406 4.390625 3.195312 4.371094 3.195312 C 4.390625 3.167969 4.414062 3.136719 4.4375 3.097656 Z M 4.429688 3.53125 C 4.425781 3.535156 4.421875 3.539062 4.417969 3.539062 C 4.367188 3.558594 4.328125 3.570312 4.296875 3.574219 C 4.339844 3.519531 4.382812 3.445312 4.429688 3.34375 L 4.339844 3.367188 C 4.367188 3.328125 4.402344 3.273438 4.4375 3.203125 C 4.4375 3.335938 4.433594 3.445312 4.429688 3.53125 Z M 4.429688 3.53125 "/>
<path style=" stroke:none;fill-rule:evenodd;fill:url(#linear24);" d="M 2.230469 0.625 C 2.300781 0.632812 2.363281 0.636719 2.410156 0.636719 C 2.449219 0.636719 2.507812 0.632812 2.582031 0.621094 C 2.605469 0.632812 2.628906 0.644531 2.660156 0.65625 C 2.691406 0.664062 2.730469 0.671875 2.773438 0.675781 C 2.710938 0.695312 2.652344 0.726562 2.59375 0.765625 C 2.558594 0.789062 2.53125 0.816406 2.507812 0.847656 C 2.390625 0.871094 2.289062 0.875 2.203125 0.863281 L 2.164062 0.816406 L 2.144531 0.796875 C 2.144531 0.769531 2.15625 0.734375 2.179688 0.699219 C 2.195312 0.671875 2.214844 0.644531 2.230469 0.625 Z M 2.230469 0.625 "/>
<path style=" stroke:none;fill-rule:evenodd;fill:url(#linear25);" d="M 1.984375 0.972656 C 2.027344 0.976562 2.070312 0.980469 2.117188 0.980469 L 2.144531 0.980469 C 2.121094 0.984375 2.101562 0.988281 2.078125 1 L 1.886719 0.972656 Z M 1.984375 0.972656 "/>
<path style=" stroke:none;fill-rule:evenodd;fill:url(#linear26);" d="M 1.203125 0.796875 L 1.117188 0.816406 C 1.222656 0.832031 1.324219 0.847656 1.421875 0.863281 L 1.351562 0.855469 C 1.332031 0.878906 1.332031 0.894531 1.351562 0.90625 L 1.109375 0.882812 L 1.070312 0.871094 L 0.984375 0.871094 L 0.914062 0.863281 L 1.117188 0.816406 L 1.191406 0.796875 Z M 1.296875 0.773438 L 1.304688 0.773438 L 1.210938 0.796875 L 1.203125 0.789062 L 1.285156 0.773438 Z M 1.390625 0.753906 L 1.355469 0.757812 L 1.375 0.753906 Z M 1.390625 0.753906 "/>
<path style=" stroke:none;fill-rule:evenodd;fill:url(#linear27);" d="M 2.160156 4.792969 L 2.160156 4.796875 C 1.699219 4.730469 1.421875 4.675781 1.328125 4.640625 C 1.316406 4.636719 1.308594 4.632812 1.304688 4.628906 C 1.296875 4.246094 1.292969 3.898438 1.285156 3.585938 C 1.285156 3.523438 1.28125 3.464844 1.277344 3.410156 L 1.277344 3.269531 C 1.273438 3.238281 1.269531 3.207031 1.269531 3.183594 L 1.269531 3.105469 C 1.265625 3.097656 1.265625 3.089844 1.269531 3.082031 C 1.257812 2.867188 1.242188 2.671875 1.230469 2.496094 L 1.210938 2.0625 L 1.203125 2.003906 L 1.171875 1.277344 L 1.164062 1.234375 L 1.164062 1.230469 L 1.613281 1.289062 C 1.648438 1.292969 1.683594 1.296875 1.714844 1.300781 C 1.757812 1.304688 1.796875 1.3125 1.832031 1.320312 C 1.945312 1.332031 2.023438 1.34375 2.070312 1.351562 L 2.164062 1.363281 L 2.164062 1.40625 L 2.152344 2.171875 L 2.152344 2.265625 L 2.132812 3.25 L 2.132812 3.464844 L 2.125 3.566406 L 2.125 3.746094 L 2.117188 4.054688 C 2.117188 4.265625 2.132812 4.511719 2.160156 4.792969 Z M 2.160156 4.792969 "/>
<path style=" stroke:none;fill-rule:evenodd;fill:url(#linear28);" d="M 0.753906 1.15625 L 0.714844 1.144531 L 0.648438 1.136719 L 0.632812 1.136719 C 0.585938 1.136719 0.546875 1.136719 0.523438 1.132812 L 0.394531 1.113281 L 0.699219 1.09375 L 0.601562 1.078125 C 0.671875 1.078125 0.757812 1.074219 0.859375 1.066406 L 0.773438 1.050781 C 0.851562 1.050781 0.949219 1.050781 1.058594 1.039062 L 1.050781 1.035156 L 0.984375 1.027344 C 1.050781 1.027344 1.132812 1.023438 1.222656 1.011719 L 1.363281 1 L 1.371094 1 L 1.316406 1.023438 C 1.292969 1.042969 1.289062 1.054688 1.304688 1.066406 L 1.21875 1.058594 C 1.199219 1.078125 1.199219 1.09375 1.21875 1.109375 L 1.109375 1.09375 C 1.097656 1.117188 1.097656 1.132812 1.109375 1.144531 L 0.992188 1.132812 C 0.972656 1.15625 0.972656 1.171875 0.992188 1.1875 Z M 0.753906 1.15625 "/>
<path style=" stroke:none;fill-rule:evenodd;fill:url(#linear29);" d="M 0.382812 2.460938 L 0.382812 2.433594 L 0.375 2.375 L 0.382812 2.375 L 0.449219 2.292969 L 0.375 2.28125 L 0.375 2.253906 C 0.40625 2.230469 0.441406 2.199219 0.476562 2.15625 L 0.382812 2.136719 C 0.425781 2.113281 0.472656 2.070312 0.523438 2.007812 L 0.515625 2.007812 L 0.441406 1.992188 C 0.46875 1.976562 0.496094 1.957031 0.523438 1.925781 C 0.578125 1.933594 0.632812 1.949219 0.6875 1.960938 C 0.710938 1.992188 0.734375 2.019531 0.757812 2.039062 L 0.679688 2.03125 C 0.71875 2.105469 0.765625 2.164062 0.8125 2.203125 L 0.71875 2.199219 C 0.765625 2.261719 0.808594 2.3125 0.847656 2.351562 L 0.734375 2.34375 C 0.785156 2.425781 0.835938 2.488281 0.886719 2.527344 L 0.746094 2.515625 C 0.714844 2.511719 0.683594 2.5 0.648438 2.484375 L 0.589844 2.453125 C 0.578125 2.460938 0.5625 2.464844 0.535156 2.464844 L 0.527344 2.464844 C 0.503906 2.472656 0.472656 2.472656 0.433594 2.464844 Z M 0.382812 2.460938 "/>
<path style=" stroke:none;fill-rule:evenodd;fill:url(#linear30);" d="M 1.269531 3.082031 C 1.265625 3.089844 1.265625 3.097656 1.269531 3.105469 L 1.222656 3.097656 L 1.21875 3.097656 C 1.234375 3.128906 1.253906 3.15625 1.269531 3.183594 C 1.269531 3.207031 1.273438 3.238281 1.277344 3.269531 L 1.257812 3.265625 C 1.261719 3.269531 1.269531 3.28125 1.277344 3.292969 L 1.277344 3.410156 C 1.28125 3.464844 1.285156 3.523438 1.285156 3.585938 C 1.253906 3.582031 1.21875 3.570312 1.183594 3.554688 L 1.125 3.523438 L 1.0625 3.539062 L 0.964844 3.53125 L 0.828125 3.496094 C 0.878906 3.46875 0.933594 3.425781 0.984375 3.359375 C 0.941406 3.351562 0.90625 3.34375 0.878906 3.332031 C 0.917969 3.308594 0.960938 3.273438 1.011719 3.222656 L 0.917969 3.195312 C 0.960938 3.171875 1.007812 3.132812 1.058594 3.074219 L 1.050781 3.074219 L 0.976562 3.050781 C 1.019531 3.03125 1.058594 2.992188 1.097656 2.941406 L 1.144531 2.847656 L 1.183594 2.957031 C 1.210938 3.007812 1.238281 3.046875 1.269531 3.082031 Z M 1.269531 3.082031 "/>
<path style=" stroke:none;fill-rule:evenodd;fill:url(#linear31);" d="M 2.351562 3.769531 C 2.328125 3.761719 2.308594 3.75 2.289062 3.734375 L 2.230469 3.746094 L 2.222656 3.746094 C 2.195312 3.753906 2.160156 3.753906 2.125 3.746094 L 2.125 3.585938 C 2.128906 3.578125 2.132812 3.570312 2.136719 3.566406 L 2.125 3.566406 L 2.132812 3.464844 C 2.140625 3.453125 2.152344 3.4375 2.164062 3.421875 C 2.152344 3.421875 2.140625 3.417969 2.132812 3.417969 L 2.132812 3.367188 C 2.160156 3.34375 2.1875 3.308594 2.21875 3.269531 L 2.210938 3.269531 L 2.132812 3.25 C 2.175781 3.230469 2.21875 3.191406 2.257812 3.136719 C 2.285156 3.101562 2.300781 3.074219 2.308594 3.042969 L 2.355469 3.152344 C 2.390625 3.222656 2.429688 3.273438 2.46875 3.3125 L 2.390625 3.300781 C 2.433594 3.382812 2.480469 3.441406 2.527344 3.484375 L 2.429688 3.46875 C 2.472656 3.542969 2.515625 3.597656 2.5625 3.636719 L 2.449219 3.621094 C 2.503906 3.707031 2.554688 3.773438 2.601562 3.816406 L 2.457031 3.800781 Z M 2.351562 3.769531 "/>
<path style=" stroke:none;fill-rule:evenodd;fill:url(#linear32);" d="M 0.609375 4.394531 L 0.601562 4.394531 L 0.546875 4.367188 L 0.488281 4.371094 L 0.402344 4.367188 L 0.394531 4.214844 L 0.410156 4.203125 L 0.394531 4.195312 L 0.390625 4.105469 L 0.429688 4.0625 L 0.390625 4.054688 L 0.390625 4.007812 L 0.476562 3.921875 L 0.476562 3.914062 L 0.402344 3.898438 C 0.441406 3.878906 0.480469 3.84375 0.515625 3.792969 L 0.5625 3.703125 L 0.601562 3.804688 C 0.636719 3.875 0.675781 3.925781 0.714844 3.957031 L 0.640625 3.953125 L 0.632812 3.953125 C 0.679688 4.023438 0.722656 4.082031 0.765625 4.121094 L 0.675781 4.109375 C 0.71875 4.179688 0.757812 4.230469 0.800781 4.269531 L 0.695312 4.257812 C 0.742188 4.339844 0.792969 4.40625 0.839844 4.445312 L 0.699219 4.425781 C 0.667969 4.421875 0.640625 4.414062 0.609375 4.394531 Z M 0.609375 4.394531 "/>
<path style=" stroke:none;fill-rule:evenodd;fill:url(#linear33);" d="M 2.925781 4.863281 L 2.859375 4.828125 L 2.800781 4.839844 L 2.792969 4.839844 L 2.695312 4.835938 C 2.632812 4.824219 2.582031 4.808594 2.542969 4.792969 C 2.59375 4.769531 2.652344 4.722656 2.714844 4.660156 L 2.59375 4.628906 C 2.640625 4.609375 2.6875 4.570312 2.742188 4.519531 C 2.699219 4.511719 2.664062 4.5 2.640625 4.488281 C 2.691406 4.46875 2.738281 4.425781 2.789062 4.367188 L 2.707031 4.339844 C 2.75 4.320312 2.792969 4.285156 2.835938 4.230469 C 2.863281 4.191406 2.878906 4.160156 2.878906 4.132812 L 2.886719 4.132812 C 2.898438 4.183594 2.917969 4.222656 2.933594 4.25 C 2.96875 4.320312 3.007812 4.371094 3.050781 4.410156 L 2.964844 4.394531 C 3.011719 4.476562 3.054688 4.539062 3.105469 4.578125 L 3.007812 4.566406 C 3.054688 4.640625 3.101562 4.695312 3.144531 4.738281 L 3.027344 4.71875 C 3.078125 4.808594 3.132812 4.875 3.183594 4.921875 L 3.03125 4.902344 C 3.007812 4.898438 2.96875 4.886719 2.925781 4.863281 Z M 2.925781 4.863281 "/>
<path style=" stroke:none;fill-rule:evenodd;fill:url(#linear34);" d="M 5.078125 4.300781 L 5.046875 4.300781 C 5.039062 4.039062 5.03125 3.796875 5.027344 3.574219 C 5.03125 3.566406 5.03125 3.558594 5.03125 3.554688 L 5.03125 3.550781 C 5.042969 3.589844 5.054688 3.621094 5.074219 3.648438 C 5.101562 3.699219 5.132812 3.734375 5.164062 3.75 L 5.101562 3.78125 C 5.132812 3.84375 5.171875 3.882812 5.210938 3.898438 L 5.132812 3.941406 C 5.171875 3.992188 5.210938 4.027344 5.246094 4.042969 L 5.152344 4.089844 C 5.195312 4.152344 5.238281 4.195312 5.277344 4.214844 L 5.160156 4.28125 C 5.132812 4.292969 5.105469 4.300781 5.078125 4.300781 Z M 5.078125 4.300781 "/>
<path style=" stroke:none;fill-rule:evenodd;fill:url(#linear35);" d="M 4.097656 4.730469 L 4.039062 4.730469 L 3.992188 4.78125 C 3.949219 4.808594 3.917969 4.828125 3.902344 4.835938 C 3.847656 4.859375 3.804688 4.875 3.773438 4.878906 C 3.820312 4.820312 3.863281 4.738281 3.914062 4.632812 C 3.875 4.648438 3.839844 4.660156 3.8125 4.664062 C 3.855469 4.613281 3.894531 4.546875 3.933594 4.457031 L 3.855469 4.488281 C 3.894531 4.433594 3.9375 4.359375 3.980469 4.261719 L 3.972656 4.261719 L 3.90625 4.285156 C 3.941406 4.242188 3.976562 4.175781 4.011719 4.089844 C 4.023438 4.070312 4.035156 4.027344 4.050781 3.964844 C 4.070312 4.015625 4.082031 4.050781 4.09375 4.0625 C 4.125 4.113281 4.15625 4.148438 4.191406 4.164062 L 4.125 4.203125 L 4.121094 4.203125 C 4.160156 4.261719 4.199219 4.300781 4.238281 4.316406 L 4.160156 4.367188 C 4.199219 4.414062 4.238281 4.445312 4.273438 4.464844 L 4.171875 4.519531 C 4.222656 4.582031 4.265625 4.625 4.304688 4.644531 L 4.183594 4.710938 Z M 4.097656 4.730469 "/>
<path style=" stroke:none;fill-rule:evenodd;fill:url(#linear36);" d="M 3.609375 3.855469 L 3.550781 3.855469 L 3.496094 3.902344 L 3.4375 3.9375 L 3.421875 3.617188 L 3.429688 3.609375 L 3.445312 3.582031 L 3.429688 3.585938 L 3.421875 3.585938 L 3.421875 3.515625 L 3.488281 3.386719 L 3.484375 3.386719 L 3.421875 3.410156 L 3.417969 3.410156 L 3.417969 3.402344 L 3.421875 3.398438 C 3.453125 3.34375 3.488281 3.285156 3.523438 3.214844 C 3.550781 3.152344 3.5625 3.113281 3.5625 3.085938 L 3.570312 3.085938 L 3.601562 3.183594 C 3.632812 3.242188 3.667969 3.277344 3.707031 3.292969 L 3.636719 3.324219 C 3.675781 3.386719 3.714844 3.425781 3.753906 3.445312 L 3.667969 3.488281 C 3.707031 3.539062 3.746094 3.574219 3.789062 3.59375 L 3.6875 3.640625 C 3.734375 3.707031 3.777344 3.75 3.820312 3.769531 L 3.695312 3.835938 Z M 3.609375 3.855469 "/>
<path style=" stroke:none;fill-rule:evenodd;fill:url(#linear37);" d="M 3.4375 3.9375 L 3.4375 3.96875 C 3.398438 3.96875 3.363281 3.96875 3.335938 3.964844 C 3.269531 3.953125 3.21875 3.9375 3.183594 3.921875 C 3.238281 3.898438 3.296875 3.851562 3.355469 3.78125 C 3.304688 3.773438 3.265625 3.761719 3.238281 3.75 C 3.28125 3.730469 3.332031 3.695312 3.382812 3.640625 C 3.339844 3.632812 3.304688 3.621094 3.285156 3.613281 C 3.328125 3.589844 3.375 3.554688 3.421875 3.5 L 3.421875 3.585938 L 3.429688 3.585938 C 3.425781 3.59375 3.425781 3.601562 3.429688 3.613281 L 3.421875 3.617188 Z M 3.421875 3.484375 L 3.351562 3.464844 C 3.371094 3.453125 3.398438 3.4375 3.421875 3.417969 Z M 3.421875 3.484375 "/>
</g>
</svg>
