<?xml version="1.0" encoding="UTF-8"?>
<svg xmlns="http://www.w3.org/2000/svg" xmlns:xlink="http://www.w3.org/1999/xlink" width="45pt" height="22pt" viewBox="0 0 45 22" version="1.1">
<defs>
<linearGradient id="linear0" gradientUnits="userSpaceOnUse" x1="-5978.6" y1="2692.9" x2="-5869" y2="2316.1" spreadMethod="reflect" gradientTransform="matrix(-1.0062,0,0,1.0372,-9739.1,-44.543)">
<stop offset="0" style="stop-color:rgb(89.411765%,88.235294%,17.254902%);stop-opacity:1;"/>
<stop offset="1" style="stop-color:rgb(100%,100%,100%);stop-opacity:1;"/>
</linearGradient>
<linearGradient id="linear1" gradientUnits="userSpaceOnUse" x1="-6024.3" y1="2613.2" x2="-5880.5" y2="2281.8" spreadMethod="reflect" gradientTransform="matrix(-1.0062,0,0,1.0372,-9739.1,-44.543)">
<stop offset="0" style="stop-color:rgb(100%,68.235294%,14.117647%);stop-opacity:1;"/>
<stop offset="1" style="stop-color:rgb(100%,0%,0%);stop-opacity:1;"/>
</linearGradient>
<linearGradient id="linear2" gradientUnits="userSpaceOnUse" x1="-4381.8" y1="3178.5" x2="-3274.6" y2="1099.2" gradientTransform="matrix(0.00754433,0,0,0.00758081,59.028894,-0.885718)">
<stop offset="0" style="stop-color:rgb(65.490196%,8.235294%,33.333333%);stop-opacity:1;"/>
<stop offset="1" style="stop-color:rgb(65.490196%,8.235294%,90.980392%);stop-opacity:0;"/>
</linearGradient>
<linearGradient id="linear3" gradientUnits="userSpaceOnUse" x1="-5756.3" y1="2898.5" x2="-4917.3" y2="1573.7" gradientTransform="matrix(0.00754433,0,0,0.00758081,59.028894,-0.885718)">
<stop offset="0" style="stop-color:rgb(60%,0%,40%);stop-opacity:1;"/>
<stop offset="1" style="stop-color:rgb(78.431373%,0%,41.176471%);stop-opacity:0;"/>
</linearGradient>
<linearGradient id="linear4" gradientUnits="userSpaceOnUse" x1="-9397.8" y1="4781.8" x2="-6172.6" y2="2257.2" gradientTransform="matrix(0.00754433,0,0.0070375,0.00273167,59.028894,-0.885718)">
<stop offset="0" style="stop-color:rgb(76.470588%,19.607843%,78.431373%);stop-opacity:1;"/>
<stop offset="1" style="stop-color:rgb(76.470588%,19.607843%,40%);stop-opacity:0;"/>
</linearGradient>
<linearGradient id="linear5" gradientUnits="userSpaceOnUse" x1="-4043.6" y1="4122.4" x2="-7964.7" y2="1219.5" spreadMethod="reflect" gradientTransform="matrix(0.44118,0,0,0.59241,-339.57,1167.3)">
<stop offset="0" style="stop-color:rgb(89.411765%,88.235294%,17.254902%);stop-opacity:1;"/>
<stop offset="1" style="stop-color:rgb(100%,100%,100%);stop-opacity:1;"/>
</linearGradient>
<linearGradient id="linear6" gradientUnits="userSpaceOnUse" x1="-4369.5" y1="2101.3" x2="-4369.5" y2="3642.3" spreadMethod="reflect" gradientTransform="matrix(1,0,0,0.97182,-66,56.553)">
<stop offset="0" style="stop-color:rgb(100%,68.235294%,14.117647%);stop-opacity:1;"/>
<stop offset="1" style="stop-color:rgb(100%,0%,0%);stop-opacity:1;"/>
</linearGradient>
<linearGradient id="linear7" gradientUnits="userSpaceOnUse" x1="-4043.6" y1="4122.4" x2="-7964.7" y2="1219.5" spreadMethod="reflect" gradientTransform="matrix(0.44118,0,-0.00000012851,0.34967,-3659.1,2523.3)">
<stop offset="0" style="stop-color:rgb(89.411765%,88.235294%,17.254902%);stop-opacity:1;"/>
<stop offset="1" style="stop-color:rgb(100%,100%,100%);stop-opacity:1;"/>
</linearGradient>
<linearGradient id="linear8" gradientUnits="userSpaceOnUse" x1="-4369.5" y1="2101.3" x2="-4369.5" y2="3642.3" spreadMethod="reflect" gradientTransform="matrix(1,0,-0.00000021081,0.57361,-3385.5,1867.7)">
<stop offset="0" style="stop-color:rgb(100%,68.235294%,14.117647%);stop-opacity:1;"/>
<stop offset="1" style="stop-color:rgb(100%,0%,0%);stop-opacity:1;"/>
</linearGradient>
<linearGradient id="linear9" gradientUnits="userSpaceOnUse" x1="-4043.6" y1="4122.4" x2="-7964.7" y2="1219.5" spreadMethod="reflect" gradientTransform="matrix(0.27706,0.15952,0,0.57453,-3204.9,2386.7)">
<stop offset="0" style="stop-color:rgb(89.411765%,88.235294%,17.254902%);stop-opacity:1;"/>
<stop offset="1" style="stop-color:rgb(100%,100%,100%);stop-opacity:1;"/>
</linearGradient>
<linearGradient id="linear10" gradientUnits="userSpaceOnUse" x1="-4369.5" y1="2101.3" x2="-4369.5" y2="3642.3" spreadMethod="reflect" gradientTransform="matrix(0.628,0.36158,0,0.94249,-3033.1,1408.4)">
<stop offset="0" style="stop-color:rgb(100%,68.235294%,14.117647%);stop-opacity:1;"/>
<stop offset="1" style="stop-color:rgb(100%,0%,0%);stop-opacity:1;"/>
</linearGradient>
<linearGradient id="linear11" gradientUnits="userSpaceOnUse" x1="-4043.6" y1="4122.4" x2="-7964.7" y2="1219.5" spreadMethod="reflect" gradientTransform="matrix(0.33731,0.00000045137,0,0.66271,6164.4,6713)">
<stop offset="0" style="stop-color:rgb(89.411765%,88.235294%,17.254902%);stop-opacity:1;"/>
<stop offset="1" style="stop-color:rgb(100%,100%,100%);stop-opacity:1;"/>
</linearGradient>
<linearGradient id="linear12" gradientUnits="userSpaceOnUse" x1="-4369.5" y1="2101.3" x2="-4369.5" y2="3642.3" spreadMethod="reflect" gradientTransform="matrix(0.76456,0.0000010231,0,1.0871,6373.6,5470.5)">
<stop offset="0" style="stop-color:rgb(100%,68.235294%,14.117647%);stop-opacity:1;"/>
<stop offset="1" style="stop-color:rgb(100%,0%,0%);stop-opacity:1;"/>
</linearGradient>
<linearGradient id="linear13" gradientUnits="userSpaceOnUse" x1="-5978.6" y1="2692.9" x2="-5869" y2="2316.1" spreadMethod="reflect" gradientTransform="matrix(1.0062,0,0,1.0372,48.481,-109.19)">
<stop offset="0" style="stop-color:rgb(89.411765%,88.235294%,17.254902%);stop-opacity:1;"/>
<stop offset="1" style="stop-color:rgb(100%,100%,100%);stop-opacity:1;"/>
</linearGradient>
<linearGradient id="linear14" gradientUnits="userSpaceOnUse" x1="-6024.3" y1="2613.2" x2="-5880.5" y2="2281.8" spreadMethod="reflect" gradientTransform="matrix(1.0062,0,0,1.0372,48.481,-109.19)">
<stop offset="0" style="stop-color:rgb(100%,68.235294%,14.117647%);stop-opacity:1;"/>
<stop offset="1" style="stop-color:rgb(100%,0%,0%);stop-opacity:1;"/>
</linearGradient>
<linearGradient id="linear15" gradientUnits="userSpaceOnUse" x1="-7805" y1="2660.5" x2="-7650.4" y2="1478.9" spreadMethod="reflect" gradientTransform="matrix(0.81914,-0.32975,0.34696,0.60125,107.23,-3173.7)">
<stop offset="0" style="stop-color:rgb(89.411765%,88.235294%,17.254902%);stop-opacity:1;"/>
<stop offset="1" style="stop-color:rgb(100%,100%,100%);stop-opacity:1;"/>
</linearGradient>
<linearGradient id="linear16" gradientUnits="userSpaceOnUse" x1="-6250.4" y1="2801.1" x2="-6731.2" y2="2060" spreadMethod="reflect" gradientTransform="matrix(0.81914,-0.32975,0.34696,0.60125,-38.935,-2858.1)">
<stop offset="0" style="stop-color:rgb(100%,68.235294%,14.117647%);stop-opacity:1;"/>
<stop offset="1" style="stop-color:rgb(100%,0%,0%);stop-opacity:1;"/>
</linearGradient>
<linearGradient id="linear17" gradientUnits="userSpaceOnUse" x1="-7805" y1="2660.5" x2="-7650.4" y2="1478.9" spreadMethod="reflect" gradientTransform="matrix(0.81914,-0.32975,0.34696,0.60125,107.23,-3173.7)">
<stop offset="0" style="stop-color:rgb(89.411765%,88.235294%,17.254902%);stop-opacity:1;"/>
<stop offset="1" style="stop-color:rgb(100%,100%,100%);stop-opacity:1;"/>
</linearGradient>
<linearGradient id="linear18" gradientUnits="userSpaceOnUse" x1="-6250.4" y1="2801.1" x2="-6731.2" y2="2060" spreadMethod="reflect" gradientTransform="matrix(0.81914,-0.32975,0.34696,0.60125,-38.935,-2858.1)">
<stop offset="0" style="stop-color:rgb(100%,68.235294%,14.117647%);stop-opacity:1;"/>
<stop offset="1" style="stop-color:rgb(100%,0%,0%);stop-opacity:1;"/>
</linearGradient>
<linearGradient id="linear19" gradientUnits="userSpaceOnUse" x1="-5978.6" y1="2692.9" x2="-5869" y2="2316.1" spreadMethod="reflect" gradientTransform="matrix(-0.74784,0.3341,0.70396,0.47612,-8944.5,2291.8)">
<stop offset="0" style="stop-color:rgb(89.411765%,88.235294%,17.254902%);stop-opacity:1;"/>
<stop offset="1" style="stop-color:rgb(100%,100%,100%);stop-opacity:1;"/>
</linearGradient>
<linearGradient id="linear20" gradientUnits="userSpaceOnUse" x1="-6024.3" y1="2613.2" x2="-5880.5" y2="2281.8" spreadMethod="reflect" gradientTransform="matrix(-0.74784,0.3341,0.70396,0.47612,-8944.5,2291.8)">
<stop offset="0" style="stop-color:rgb(100%,68.235294%,14.117647%);stop-opacity:1;"/>
<stop offset="1" style="stop-color:rgb(100%,0%,0%);stop-opacity:1;"/>
</linearGradient>
<linearGradient id="linear21" gradientUnits="userSpaceOnUse" x1="-7805" y1="2660.5" x2="-7650.4" y2="1478.9" spreadMethod="reflect" gradientTransform="matrix(-0.81914,-0.32975,-0.34696,0.60125,-9494.7,-3173.7)">
<stop offset="0" style="stop-color:rgb(89.411765%,88.235294%,17.254902%);stop-opacity:1;"/>
<stop offset="1" style="stop-color:rgb(100%,100%,100%);stop-opacity:1;"/>
</linearGradient>
<linearGradient id="linear22" gradientUnits="userSpaceOnUse" x1="-6250.4" y1="2801.1" x2="-6731.2" y2="2060" spreadMethod="reflect" gradientTransform="matrix(-0.81914,-0.32975,-0.34696,0.60125,-9348.6,-2858.1)">
<stop offset="0" style="stop-color:rgb(100%,68.235294%,14.117647%);stop-opacity:1;"/>
<stop offset="1" style="stop-color:rgb(100%,0%,0%);stop-opacity:1;"/>
</linearGradient>
<linearGradient id="linear23" gradientUnits="userSpaceOnUse" x1="-7805" y1="2660.5" x2="-7650.4" y2="1478.9" spreadMethod="reflect" gradientTransform="matrix(0.61639,-0.40779,0.26108,0.74354,-1074.4,-4180.4)">
<stop offset="0" style="stop-color:rgb(89.411765%,88.235294%,17.254902%);stop-opacity:1;"/>
<stop offset="1" style="stop-color:rgb(100%,100%,100%);stop-opacity:1;"/>
</linearGradient>
<linearGradient id="linear24" gradientUnits="userSpaceOnUse" x1="-6250.4" y1="2801.1" x2="-6731.2" y2="2060" spreadMethod="reflect" gradientTransform="matrix(0.61639,-0.40779,0.26108,0.74354,-1184.4,-3790.1)">
<stop offset="0" style="stop-color:rgb(100%,68.235294%,14.117647%);stop-opacity:1;"/>
<stop offset="1" style="stop-color:rgb(100%,0%,0%);stop-opacity:1;"/>
</linearGradient>
</defs>
<g id="surface1">
<path style="fill-rule:evenodd;fill:url(#linear0);stroke-width:21.054;stroke-linecap:butt;stroke-linejoin:miter;stroke:url(#linear1);stroke-miterlimit:4;" d="M -3691.926496 2705.611106 C -3602.869553 2812.274375 -3658.271256 2711.279202 -3553.163352 2666.449712 C -3466.695274 2621.620222 -3208.326584 2441.271699 -3052.994706 2460.852396 C -2900.769466 2479.40253 -2823.103527 2534.53765 -2755.275274 2606.677059 C -2675.538243 2670.571964 -2676.573789 2715.401454 -2595.801213 2776.719952 C -2555.414925 2782.90333 -2620.654313 2630.380008 -2544.541693 2601.524244 C -2458.591388 2564.423976 -2337.432523 2579.882421 -2274.781999 2662.32746 C -2206.953746 2755.59341 -2265.462086 2892.143006 -2373.676628 2903.99448 C -2424.418375 2918.422362 -2454.449204 2923.059896 -2380.407676 2932.334963 C -2220.933615 2959.1296 -2142.23213 2958.099037 -1899.914401 2960.675445 C -1760.115711 2993.65346 -2292.386279 3008.081342 -2445.647065 2969.43523 C -2549.20165 2943.671155 -2593.212348 2882.352658 -2658.96951 2805.060434 C -2720.066715 2750.955877 -2789.448287 2637.593948 -2858.829859 2596.88671 C -2802.910383 2753.532284 -2872.809728 2808.667404 -2897.145056 2868.955339 C -2952.028986 3003.95909 -3091.827676 2983.34783 -3172.600252 2876.16928 C -3254.408374 2767.960166 -3249.230645 2642.231482 -3160.691475 2556.694754 C -3060.7613 2461.367678 -3472.908549 2696.336039 -3573.356496 2720.554269 C -3706.941911 2796.81593 -3767.521343 2625.227193 -3691.926496 2705.611106 Z M -3027.623833 2534.022368 C -3132.731737 2532.991805 -3203.666627 2741.165529 -3146.711606 2807.12156 C -2959.79558 3025.085631 -2889.896235 2756.623973 -2903.876104 2667.995557 C -2912.16047 2612.860437 -2977.399859 2534.53765 -3027.623833 2534.022368 Z M -2402.671912 2658.72049 C -2612.369947 2630.895289 -2567.841475 2885.444347 -2440.987108 2882.867939 C -2328.11261 2881.322095 -2250.446672 2699.427728 -2356.072348 2665.419149 C -2371.087763 2659.235771 -2387.138724 2660.781616 -2402.671912 2658.72049 Z M -2402.671912 2658.72049 " transform="matrix(0.00754433,0,0,0.00758081,59.028894,-0.885718)"/>
<path style=" stroke:none;fill-rule:nonzero;fill:rgb(100%,44.705882%,100%);fill-opacity:1;" d="M 13.542969 6.042969 L 27.113281 6.042969 L 34.0625 8.738281 L 20.496094 8.738281 Z M 13.542969 6.042969 "/>
<path style=" stroke:none;fill-rule:nonzero;fill:rgb(83.529412%,0%,83.921569%);fill-opacity:1;" d="M 13.800781 6.066406 L 20.648438 8.734375 L 20.671875 21.085938 L 13.78125 17.792969 Z M 13.800781 6.066406 "/>
<path style=" stroke:none;fill-rule:nonzero;fill:rgb(100%,8.235294%,100%);fill-opacity:1;" d="M 20.789062 8.734375 L 34.324219 8.734375 L 34.324219 21.078125 L 20.789062 21.078125 Z M 20.789062 8.734375 "/>
<path style="fill:none;stroke-width:15.068;stroke-linecap:butt;stroke-linejoin:miter;stroke:rgb(94.509804%,27.843137%,92.941176%);stroke-opacity:1;stroke-miterlimit:4;" d="M -5994.462696 919.64545 L -5073.344661 1275.18968 L -3274.601518 1275.18968 L -4196.237326 919.64545 Z M -5988.767194 926.859391 L -5991.873831 2473.734434 L -5078.522391 2908.116732 L -5081.111255 1278.281369 Z M -5075.415753 1278.281369 L -5075.415753 2907.086169 L -3281.332566 2907.086169 L -3281.332566 1278.281369 Z M -5075.415753 1278.281369 " transform="matrix(0.00754433,0,0,0.00758081,59.028894,-0.885718)"/>
<path style=" stroke:none;fill-rule:nonzero;fill:url(#linear2);" d="M 20.789062 8.734375 L 34.324219 8.734375 L 34.324219 21.078125 L 20.789062 21.078125 Z M 20.789062 8.734375 "/>
<path style=" stroke:none;fill-rule:nonzero;fill:url(#linear3);" d="M 13.800781 6.066406 L 20.648438 8.734375 L 20.671875 21.085938 L 13.78125 17.792969 Z M 13.800781 6.066406 "/>
<path style=" stroke:none;fill-rule:nonzero;fill:url(#linear4);" d="M 13.542969 6.042969 L 27.113281 6.042969 L 34.0625 8.738281 L 20.496094 8.738281 Z M 13.542969 6.042969 "/>
<path style="fill-rule:nonzero;fill:url(#linear5);stroke-width:49.451;stroke-linecap:butt;stroke-linejoin:miter;stroke:url(#linear6);stroke-miterlimit:4;" d="M -4410.595317 1295.80094 L -3853.471649 1295.80094 L -3853.471649 2901.418073 L -4410.595317 2901.418073 Z M -4410.595317 1295.80094 " transform="matrix(0.00754433,0,0,0.00758081,59.028894,-0.885718)"/>
<path style="fill-rule:nonzero;fill:url(#linear7);stroke-width:69.668;stroke-linecap:butt;stroke-linejoin:miter;stroke:url(#linear8);stroke-miterlimit:4;" d="M -7730.44208 2599.906123 L -7173.836186 2599.906123 L -7173.023159 3547.170417 L -7730.146827 3547.170417 Z M -7730.44208 2599.906123 " transform="matrix(0.00754433,0,0.0070492,0.00270103,59.028894,-0.885718)"/>
<path style="fill-rule:nonzero;fill:url(#linear9);stroke-width:38.592;stroke-linecap:butt;stroke-linejoin:miter;stroke:url(#linear10);stroke-miterlimit:4;" d="M -5761.464879 1039.190756 L -5388.668373 1185.015419 L -5406.790425 2756.623973 L -5761.464879 2592.249177 Z M -5761.464879 1039.190756 " transform="matrix(0.00754433,0,0,0.00758081,59.028894,-0.885718)"/>
<path style="fill-rule:nonzero;fill:url(#linear11);stroke-width:45.733;stroke-linecap:butt;stroke-linejoin:miter;stroke:url(#linear12);stroke-miterlimit:4;" d="M 3051.24582 6855.890563 L 3478.351942 6857.348651 L 3478.351942 8653.502929 L 3051.24582 8652.044841 Z M 3051.24582 6855.890563 " transform="matrix(0.00711379,0.00252426,-0.00754433,0,59.028894,-0.885718)"/>
<path style="fill-rule:evenodd;fill:url(#linear13);stroke-width:21.054;stroke-linecap:butt;stroke-linejoin:miter;stroke:url(#linear14);stroke-miterlimit:4;" d="M -5171.721517 875.846523 C -5171.203744 894.396657 -5237.996452 901.610597 -5294.433701 924.282983 C -5392.292784 962.929095 -5430.60798 1113.391291 -5497.91846 1205.111397 C -5571.959989 1307.652414 -5741.789508 2486.101189 -5817.384355 2565.969821 C -5906.441299 2673.148371 -6032.26012 2646.353734 -6137.368023 2601.524244 C -6223.836102 2557.210035 -6482.204792 2376.861513 -6638.054442 2395.926928 C -6789.76191 2414.992343 -6867.427848 2469.612182 -6935.256102 2542.266872 C -7014.993132 2605.646496 -7014.475359 2650.991267 -7094.730163 2712.309765 C -7135.116451 2718.493143 -7070.394835 2565.969821 -7145.989682 2536.598776 C -7231.939988 2499.498508 -7353.616625 2515.472234 -7415.749376 2597.401992 C -7484.095403 2691.183224 -7425.587062 2827.217538 -7316.854748 2839.584294 C -7266.113001 2854.012176 -7236.082171 2858.134428 -7310.641473 2867.924776 C -7469.597761 2894.719414 -7548.299245 2893.173569 -7790.616975 2896.265258 C -7930.933437 2928.727992 -7398.66287 2943.155874 -7245.402084 2905.025043 C -7141.329726 2878.745687 -7097.319027 2817.942471 -7031.561866 2740.650247 C -6970.464661 2686.54569 -6901.083089 2573.183762 -6831.701516 2532.476524 C -6887.620992 2688.606816 -6817.721647 2743.741936 -6793.38632 2804.029871 C -6738.50239 2939.548903 -6598.7037 2918.422362 -6517.931124 2811.243812 C -6436.640774 2703.034698 -6441.300731 2577.306014 -6530.357674 2492.284567 C -6629.770076 2396.44221 -6217.622827 2631.41057 -6117.692652 2655.628801 C -5983.589465 2732.405743 -5693.118853 1553.441686 -5569.888897 1417.407372 C -5491.705185 1331.355363 -5449.765578 1181.92373 -5386.597281 1113.391291 C -5312.03798 1033.52266 -5201.752347 946.440087 -5083.70012 979.933384 C -4977.55667 1053.618638 -5161.883832 877.907649 -5171.721517 875.846523 Z M -6662.907543 2469.612182 C -6557.799639 2468.581619 -6487.382521 2676.755342 -6543.81977 2742.711373 C -6731.253569 2960.160163 -6800.635141 2692.213787 -6787.173045 2603.58537 C -6778.370905 2548.45025 -6713.131517 2469.612182 -6662.907543 2469.612182 Z M -7287.859464 2594.310303 C -7078.679202 2566.485102 -7122.689901 2820.518879 -7249.544267 2818.457753 C -7362.418765 2816.396627 -7440.084704 2635.017541 -7334.9768 2601.008962 C -7319.443612 2594.825584 -7303.392652 2595.856147 -7287.859464 2594.310303 Z M -7287.859464 2594.310303 " transform="matrix(0.00754433,0,0,0.00758081,59.028894,-0.885718)"/>
<path style="fill-rule:evenodd;fill:url(#linear15);stroke-width:20.833;stroke-linecap:butt;stroke-linejoin:miter;stroke:url(#linear16);stroke-miterlimit:4;" d="M -5436.303482 327.587014 C -5495.329596 350.774681 -5502.060644 447.647602 -5462.192129 542.974678 C -5409.37929 685.707652 -5309.449115 825.864218 -5199.681255 929.435798 C -5105.964356 1012.396118 -5009.140819 1039.706038 -4920.601648 1059.802016 C -4835.686889 1075.775742 -4754.914312 1075.260461 -4685.53274 1053.618638 C -4664.30405 1031.461534 -4689.674924 977.356977 -4698.994836 937.16502 C -4746.112173 776.397195 -4848.631212 598.109798 -4982.7344 487.839558 C -5111.142085 380.661008 -5246.798592 328.102295 -5364.850819 316.250821 C -5390.739465 315.220258 -5415.592565 318.311947 -5436.303482 327.587014 Z M -5380.901779 397.150015 C -5289.255971 401.272267 -5182.076976 448.162883 -5080.075709 522.363418 C -4970.307849 605.83902 -4874.519858 741.358053 -4822.742566 875.846523 C -4807.209378 914.492635 -4794.782828 953.138747 -4784.945142 990.754296 C -4879.697587 991.269577 -4986.35881 975.811132 -5097.679989 898.003627 C -5208.483395 808.344647 -5306.342478 670.249207 -5362.779727 533.18433 C -5380.901779 486.293714 -5396.434967 434.250283 -5386.597281 399.211141 L -5384.52619 397.150015 Z M -5380.901779 397.150015 " transform="matrix(0.00754433,0,0,0.00758081,59.028894,-0.885718)"/>
<path style="fill-rule:evenodd;fill:url(#linear17);stroke-width:20.833;stroke-linecap:butt;stroke-linejoin:miter;stroke:url(#linear18);stroke-miterlimit:4;" d="M -4302.380775 129.71892 C -4239.212478 128.688357 -4196.755099 216.286211 -4197.272872 319.857791 C -4193.130688 471.865832 -4232.999203 639.332317 -4295.131954 776.912476 C -4350.533657 888.72856 -4430.270688 950.562339 -4504.829989 1002.090489 C -4577.835972 1048.981105 -4652.913046 1078.867431 -4724.883483 1085.050809 C -4752.843221 1072.684053 -4750.254356 1012.9114 -4756.467631 972.204162 C -4773.554138 805.76824 -4745.076627 601.716768 -4662.750732 449.193446 C -4584.049247 301.307658 -4478.42357 201.858329 -4373.315666 146.207928 C -4349.498112 135.387017 -4325.680557 129.203639 -4302.380775 129.71892 Z M -4327.751649 214.740367 C -4411.11309 253.386479 -4492.921212 337.377362 -4559.196146 444.555913 C -4629.613264 563.070656 -4667.410688 724.869045 -4664.821823 868.632582 C -4664.821823 910.370383 -4661.715186 950.562339 -4656.537456 989.208451 C -4568.516059 954.16931 -4475.316933 899.549471 -4402.31095 785.672261 C -4332.929378 660.97414 -4294.614182 496.084062 -4293.060863 348.198274 C -4294.096409 297.700687 -4299.274138 243.59613 -4322.056147 214.740367 L -4324.645011 213.709804 Z M -4327.751649 214.740367 " transform="matrix(0.00754433,0,0,0.00758081,59.028894,-0.885718)"/>
<path style="fill-rule:evenodd;fill:url(#linear19);stroke-width:15.848;stroke-linecap:butt;stroke-linejoin:miter;stroke:url(#linear20);stroke-miterlimit:4;" d="M -4396.097675 1010.334993 C -4383.671125 1019.094778 -4329.304968 1000.544644 -4271.832173 992.30014 C -4172.937544 977.356977 -4034.1744 1017.548933 -3922.335448 1037.12963 C -3861.756016 1055.679764 -3787.196715 1075.775742 -3590.960776 1147.39987 C -3869.004837 1171.102818 -3993.270339 1078.867431 -4075.596234 1048.465823 C -4178.115273 1009.819711 -4603.206845 1006.212741 -4667.928461 1060.832579 C -4696.923745 1129.880299 -4401.793177 1014.972526 -4396.097675 1010.334993 Z M -4396.097675 1010.334993 " transform="matrix(0.00754433,0,0,0.00758081,59.028894,-0.885718)"/>
<path style="fill-rule:evenodd;fill:url(#linear21);stroke-width:20.833;stroke-linecap:butt;stroke-linejoin:miter;stroke:url(#linear22);stroke-miterlimit:4;" d="M -3950.812959 327.587014 C -3891.786845 350.774681 -3885.57357 447.647602 -3924.924313 542.974678 C -3978.254924 685.707652 -4078.185099 825.864218 -4187.952959 929.435798 C -4281.152085 1012.396118 -4378.493395 1039.706038 -4467.032566 1059.802016 C -4551.947325 1075.775742 -4632.719902 1075.260461 -4702.101474 1053.618638 C -4723.330164 1031.461534 -4697.95929 977.356977 -4688.639378 937.16502 C -4641.522042 776.397195 -4538.485229 598.109798 -4404.899815 487.839558 C -4276.492129 380.661008 -4140.835623 328.102295 -4022.783396 316.250821 C -3996.894749 315.220258 -3972.041649 318.311947 -3950.812959 327.587014 Z M -4006.214662 397.150015 C -4098.378243 401.272267 -4205.039465 448.162883 -4307.558505 522.363418 C -4416.808592 605.83902 -4513.114356 741.358053 -4564.891649 875.846523 C -4580.424836 914.492635 -4592.851387 953.138747 -4602.689072 990.754296 C -4507.936627 991.269577 -4400.757631 975.811132 -4289.954225 898.003627 C -4179.150819 808.344647 -4081.291736 670.249207 -4024.336714 533.18433 C -4006.732435 486.293714 -3990.681474 434.250283 -4001.036933 399.211141 L -4003.108024 397.150015 Z M -4006.214662 397.150015 " transform="matrix(0.00754433,0,0,0.00758081,59.028894,-0.885718)"/>
<path style="fill-rule:evenodd;fill:url(#linear23);stroke-width:20.097;stroke-linecap:butt;stroke-linejoin:miter;stroke:url(#linear24);stroke-miterlimit:4;" d="M -5246.280819 149.814899 C -5290.291517 178.155381 -5295.469247 298.215969 -5265.438417 416.215431 C -5225.569902 592.441701 -5150.492827 765.576283 -5067.649159 893.881375 C -4997.232041 996.422392 -4924.226059 1030.430971 -4857.951124 1055.164482 C -4793.747282 1074.745179 -4733.167849 1074.229898 -4680.872784 1047.43526 C -4664.821823 1020.125341 -4683.979421 953.138747 -4691.228242 903.671723 C -4726.436801 704.773067 -4803.584967 484.232588 -4904.550688 348.198274 C -5000.856452 215.255648 -5102.857718 150.33018 -5191.914661 135.902298 C -5211.590033 134.356454 -5230.229858 137.963424 -5246.280819 149.814899 Z M -5204.341212 235.351627 C -5134.95964 240.504441 -5054.704836 298.73125 -4978.074443 390.451356 C -4895.230775 493.507655 -4822.742566 661.489422 -4783.909596 827.410062 C -4772.518592 875.331241 -4763.198679 922.737139 -4755.432085 969.627755 C -4826.884749 970.143036 -4907.139552 951.077621 -4991.018766 854.719982 C -5074.380207 744.449742 -5147.903963 573.376286 -5190.879116 403.848675 C -5203.823439 346.137148 -5216.249989 281.211679 -5208.483395 237.928034 L -5206.930076 235.351627 Z M -5204.341212 235.351627 " transform="matrix(0.00754433,0,0,0.00758081,59.028894,-0.885718)"/>
</g>
</svg>
